%TF.GenerationSoftware,KiCad,Pcbnew,(6.0.0)*%
%TF.CreationDate,2022-01-17T01:15:48+01:00*%
%TF.ProjectId,DCMotorController,44434d6f-746f-4724-936f-6e74726f6c6c,rev?*%
%TF.SameCoordinates,Original*%
%TF.FileFunction,Soldermask,Bot*%
%TF.FilePolarity,Negative*%
%FSLAX46Y46*%
G04 Gerber Fmt 4.6, Leading zero omitted, Abs format (unit mm)*
G04 Created by KiCad (PCBNEW (6.0.0)) date 2022-01-17 01:15:48*
%MOMM*%
%LPD*%
G01*
G04 APERTURE LIST*
G04 Aperture macros list*
%AMRoundRect*
0 Rectangle with rounded corners*
0 $1 Rounding radius*
0 $2 $3 $4 $5 $6 $7 $8 $9 X,Y pos of 4 corners*
0 Add a 4 corners polygon primitive as box body*
4,1,4,$2,$3,$4,$5,$6,$7,$8,$9,$2,$3,0*
0 Add four circle primitives for the rounded corners*
1,1,$1+$1,$2,$3*
1,1,$1+$1,$4,$5*
1,1,$1+$1,$6,$7*
1,1,$1+$1,$8,$9*
0 Add four rect primitives between the rounded corners*
20,1,$1+$1,$2,$3,$4,$5,0*
20,1,$1+$1,$4,$5,$6,$7,0*
20,1,$1+$1,$6,$7,$8,$9,0*
20,1,$1+$1,$8,$9,$2,$3,0*%
G04 Aperture macros list end*
%ADD10RoundRect,0.250000X0.600000X0.725000X-0.600000X0.725000X-0.600000X-0.725000X0.600000X-0.725000X0*%
%ADD11O,1.700000X1.950000*%
%ADD12R,1.700000X1.700000*%
%ADD13O,1.700000X1.700000*%
%ADD14R,1.500000X1.050000*%
%ADD15O,1.500000X1.050000*%
%ADD16C,2.000000*%
%ADD17RoundRect,1.500000X-1.500000X-1.500000X1.500000X-1.500000X1.500000X1.500000X-1.500000X1.500000X0*%
%ADD18R,2.000000X2.000000*%
G04 APERTURE END LIST*
D10*
%TO.C,1WIRE1*%
X77500000Y-22837500D03*
D11*
X75000000Y-22837500D03*
X72500000Y-22837500D03*
%TD*%
D12*
%TO.C,J2*%
X43225000Y-56250000D03*
D13*
X45765000Y-56250000D03*
X48305000Y-56250000D03*
%TD*%
D14*
%TO.C,U1*%
X124140000Y-59730000D03*
D15*
X124140000Y-61000000D03*
X124140000Y-62270000D03*
%TD*%
D14*
%TO.C,U9*%
X85500000Y-76040000D03*
D15*
X85500000Y-74770000D03*
X85500000Y-73500000D03*
%TD*%
D12*
%TO.C,M1_S1*%
X89770000Y-22520000D03*
D13*
X87230000Y-22520000D03*
X84690000Y-22520000D03*
%TD*%
D12*
%TO.C,M1_S2*%
X99795000Y-22520000D03*
D13*
X97255000Y-22520000D03*
X94715000Y-22520000D03*
%TD*%
D12*
%TO.C,M2_S1*%
X109850000Y-22520000D03*
D13*
X107310000Y-22520000D03*
X104770000Y-22520000D03*
%TD*%
D12*
%TO.C,M2_S2*%
X119790000Y-22500000D03*
D13*
X117250000Y-22500000D03*
X114710000Y-22500000D03*
%TD*%
D16*
%TO.C,C23*%
X79750000Y-66500000D03*
X72250000Y-66500000D03*
%TD*%
D17*
%TO.C,VIN1*%
X126500000Y-68000000D03*
%TD*%
%TO.C,M1-1*%
X126500000Y-41000000D03*
%TD*%
%TO.C,M2+1*%
X126500000Y-86000000D03*
%TD*%
%TO.C,M2-1*%
X126500000Y-95000000D03*
%TD*%
D18*
%TO.C,BZ1*%
X65000000Y-99500000D03*
D16*
X60000000Y-99500000D03*
%TD*%
D17*
%TO.C,GND1*%
X126500000Y-32000000D03*
%TD*%
D18*
%TO.C,C30*%
X46500000Y-76400000D03*
D16*
X46500000Y-81400000D03*
%TD*%
D17*
%TO.C,M1+1*%
X126500000Y-50000000D03*
%TD*%
G36*
X84261931Y-101266002D02*
G01*
X84282905Y-101282905D01*
X84487188Y-101487188D01*
X84510650Y-101500000D01*
X121874000Y-101500000D01*
X121942121Y-101520002D01*
X121988614Y-101573658D01*
X122000000Y-101626000D01*
X122000000Y-106374000D01*
X121979998Y-106442121D01*
X121926342Y-106488614D01*
X121874000Y-106500000D01*
X82520447Y-106500000D01*
X82480603Y-106493534D01*
X82374891Y-106458297D01*
X82316591Y-106417780D01*
X82289451Y-106352176D01*
X82294049Y-106302557D01*
X83755823Y-101429976D01*
X83757747Y-101424092D01*
X83762972Y-101409349D01*
X83767668Y-101397915D01*
X83772999Y-101386554D01*
X83778794Y-101375632D01*
X83785210Y-101364853D01*
X83792043Y-101354558D01*
X83799490Y-101344451D01*
X83807311Y-101334860D01*
X83815695Y-101325553D01*
X83824413Y-101316782D01*
X83833697Y-101308316D01*
X83843228Y-101300446D01*
X83853284Y-101292940D01*
X83863538Y-101286042D01*
X83874273Y-101279562D01*
X83885170Y-101273694D01*
X83896490Y-101268298D01*
X83907892Y-101263534D01*
X83919705Y-101259266D01*
X83931530Y-101255639D01*
X83943676Y-101252557D01*
X83955797Y-101250108D01*
X83968110Y-101248243D01*
X83980602Y-101246983D01*
X83996823Y-101246161D01*
X84003200Y-101246000D01*
X84193810Y-101246000D01*
X84261931Y-101266002D01*
G37*
G36*
X79575967Y-64028488D02*
G01*
X83489388Y-65496020D01*
X83511333Y-65500000D01*
X83568044Y-65500000D01*
X83636165Y-65520002D01*
X83682658Y-65573658D01*
X83692762Y-65643932D01*
X83671267Y-65698256D01*
X80347667Y-70446256D01*
X80292216Y-70490593D01*
X80244444Y-70500000D01*
X80063000Y-70500000D01*
X79994879Y-70479998D01*
X79962200Y-70449600D01*
X77065567Y-66587423D01*
X77040696Y-66520925D01*
X77055725Y-66451537D01*
X77077272Y-66422728D01*
X79442630Y-64057370D01*
X79504942Y-64023344D01*
X79575967Y-64028488D01*
G37*
G36*
X103942121Y-83520002D02*
G01*
X103988614Y-83573658D01*
X104000000Y-83626000D01*
X104000000Y-87481885D01*
X104007530Y-87507530D01*
X104217095Y-87717095D01*
X104251121Y-87779407D01*
X104254000Y-87806190D01*
X104254000Y-88496912D01*
X104253848Y-88503094D01*
X104253081Y-88518709D01*
X104251869Y-88531015D01*
X104250028Y-88543426D01*
X104247616Y-88555552D01*
X104244565Y-88567733D01*
X104240976Y-88579565D01*
X104236752Y-88591371D01*
X104232019Y-88602798D01*
X104226654Y-88614141D01*
X104220822Y-88625052D01*
X104214373Y-88635810D01*
X104207511Y-88646079D01*
X104200033Y-88656163D01*
X104192179Y-88665733D01*
X104183756Y-88675025D01*
X104175025Y-88683756D01*
X104165733Y-88692179D01*
X104156163Y-88700033D01*
X104146079Y-88707511D01*
X104135810Y-88714373D01*
X104125052Y-88720822D01*
X104114141Y-88726654D01*
X104102798Y-88732019D01*
X104091371Y-88736752D01*
X104079565Y-88740976D01*
X104067733Y-88744565D01*
X104055552Y-88747616D01*
X104043426Y-88750028D01*
X104031015Y-88751869D01*
X104018709Y-88753081D01*
X104003094Y-88753848D01*
X103996912Y-88754000D01*
X97806190Y-88754000D01*
X97738069Y-88733998D01*
X97717095Y-88717095D01*
X97512812Y-88512812D01*
X97489350Y-88500000D01*
X90626000Y-88500000D01*
X90557879Y-88479998D01*
X90511386Y-88426342D01*
X90500000Y-88374000D01*
X90500000Y-83626000D01*
X90520002Y-83557879D01*
X90573658Y-83511386D01*
X90626000Y-83500000D01*
X103874000Y-83500000D01*
X103942121Y-83520002D01*
G37*
G36*
X74043060Y-90731996D02*
G01*
X74055367Y-90733007D01*
X74067810Y-90734646D01*
X74079992Y-90736864D01*
X74092208Y-90739715D01*
X74104090Y-90743111D01*
X74115974Y-90747147D01*
X74127473Y-90751693D01*
X74138890Y-90756868D01*
X74149881Y-90762515D01*
X74160751Y-90768792D01*
X74171150Y-90775498D01*
X74181352Y-90782811D01*
X74191033Y-90790497D01*
X74201016Y-90799254D01*
X74208905Y-90806803D01*
X74216649Y-90814885D01*
X74219845Y-90818348D01*
X74968174Y-91660218D01*
X74998481Y-91724421D01*
X75000000Y-91743928D01*
X75000000Y-91981885D01*
X75007530Y-92007530D01*
X77429196Y-94429196D01*
X77434275Y-94434581D01*
X78216241Y-95314293D01*
X78220234Y-95319015D01*
X78230036Y-95331197D01*
X78237303Y-95341195D01*
X78244171Y-95351691D01*
X78250428Y-95362361D01*
X78256238Y-95373488D01*
X78261418Y-95384722D01*
X78266106Y-95396358D01*
X78270157Y-95408032D01*
X78273682Y-95420069D01*
X78276572Y-95432104D01*
X78278901Y-95444439D01*
X78280595Y-95456672D01*
X78281704Y-95469162D01*
X78282192Y-95481521D01*
X78282071Y-95494068D01*
X78281345Y-95506414D01*
X78279994Y-95518894D01*
X78278061Y-95531109D01*
X78275496Y-95543382D01*
X78272376Y-95555348D01*
X78268618Y-95567318D01*
X78264342Y-95578913D01*
X78259427Y-95590463D01*
X78254028Y-95601599D01*
X78248007Y-95612605D01*
X78241550Y-95623145D01*
X78234481Y-95633506D01*
X78227022Y-95643362D01*
X78218969Y-95652984D01*
X78210573Y-95662070D01*
X78201614Y-95670857D01*
X78192373Y-95679071D01*
X78182598Y-95686936D01*
X78172601Y-95694201D01*
X78162105Y-95701069D01*
X78151435Y-95707326D01*
X78140308Y-95713136D01*
X78129074Y-95718316D01*
X78117438Y-95723004D01*
X78105764Y-95727055D01*
X78093727Y-95730580D01*
X78081692Y-95733470D01*
X78069357Y-95735799D01*
X78057121Y-95737493D01*
X78044752Y-95738591D01*
X78032162Y-95739077D01*
X78015816Y-95738889D01*
X78009405Y-95738652D01*
X70301482Y-95256907D01*
X70234742Y-95232694D01*
X70220247Y-95220247D01*
X70058949Y-95058949D01*
X70024923Y-94996637D01*
X70022592Y-94967774D01*
X69540104Y-93520312D01*
X69522533Y-93495029D01*
X69500000Y-93423122D01*
X69500000Y-93284726D01*
X69520002Y-93216605D01*
X69564809Y-93174582D01*
X73902405Y-90764806D01*
X73907883Y-90761936D01*
X73921900Y-90755026D01*
X73933242Y-90750111D01*
X73944984Y-90745693D01*
X73956760Y-90741911D01*
X73968877Y-90738666D01*
X73980971Y-90736056D01*
X73993360Y-90734013D01*
X74005630Y-90732603D01*
X74018141Y-90731784D01*
X74030520Y-90731583D01*
X74043060Y-90731996D01*
G37*
G36*
X107912075Y-91419711D02*
G01*
X107941697Y-91441697D01*
X108987188Y-92487188D01*
X109010650Y-92500000D01*
X109087460Y-92500000D01*
X109155581Y-92520002D01*
X109202074Y-92573658D01*
X109212178Y-92643932D01*
X109204448Y-92672795D01*
X107305248Y-97420795D01*
X107261377Y-97476615D01*
X107188260Y-97500000D01*
X107029745Y-97500000D01*
X106973396Y-97486698D01*
X106018286Y-97009143D01*
X105985540Y-96985540D01*
X105858542Y-96858542D01*
X105824516Y-96796230D01*
X105829223Y-96726387D01*
X107734188Y-91487732D01*
X107776266Y-91430549D01*
X107842579Y-91405191D01*
X107912075Y-91419711D01*
G37*
G36*
X108913585Y-92419669D02*
G01*
X108939712Y-92439712D01*
X108987188Y-92487188D01*
X109010650Y-92500000D01*
X124874000Y-92500000D01*
X124942121Y-92520002D01*
X124988614Y-92573658D01*
X125000000Y-92626000D01*
X125000000Y-97374000D01*
X124979998Y-97442121D01*
X124926342Y-97488614D01*
X124874000Y-97500000D01*
X107029745Y-97500000D01*
X106973396Y-97486698D01*
X106875725Y-97437862D01*
X106823741Y-97389506D01*
X106806152Y-97320723D01*
X106815086Y-97278369D01*
X108733629Y-92482012D01*
X108777500Y-92426192D01*
X108844585Y-92402951D01*
X108913585Y-92419669D01*
G37*
G36*
X83345873Y-65442202D02*
G01*
X83489388Y-65496020D01*
X83511333Y-65500000D01*
X124374000Y-65500000D01*
X124442121Y-65520002D01*
X124488614Y-65573658D01*
X124500000Y-65626000D01*
X124500000Y-70374000D01*
X124479998Y-70442121D01*
X124426342Y-70488614D01*
X124374000Y-70500000D01*
X80063000Y-70500000D01*
X79994879Y-70479998D01*
X79962200Y-70449601D01*
X79894418Y-70359226D01*
X79869547Y-70292728D01*
X79884576Y-70223340D01*
X79891995Y-70211369D01*
X83198408Y-65487923D01*
X83253859Y-65443586D01*
X83324477Y-65436268D01*
X83345873Y-65442202D01*
G37*
G36*
X124442121Y-47520002D02*
G01*
X124488614Y-47573658D01*
X124500000Y-47626000D01*
X124500000Y-52374000D01*
X124479998Y-52442121D01*
X124426342Y-52488614D01*
X124374000Y-52500000D01*
X106126000Y-52500000D01*
X106057879Y-52479998D01*
X106011386Y-52426342D01*
X106000000Y-52374000D01*
X106000000Y-47626000D01*
X106020002Y-47557879D01*
X106073658Y-47511386D01*
X106126000Y-47500000D01*
X124374000Y-47500000D01*
X124442121Y-47520002D01*
G37*
G36*
X104256381Y-38520002D02*
G01*
X104305248Y-38579205D01*
X106204448Y-43327205D01*
X106211176Y-43397882D01*
X106178625Y-43460977D01*
X106117130Y-43496457D01*
X106087460Y-43500000D01*
X106018115Y-43500000D01*
X105992470Y-43507530D01*
X100512812Y-48987188D01*
X100500000Y-49010650D01*
X100500000Y-49307020D01*
X100479998Y-49375141D01*
X100463095Y-49396115D01*
X100181796Y-49677414D01*
X100177320Y-49681677D01*
X100165729Y-49692183D01*
X100156163Y-49700033D01*
X100146079Y-49707511D01*
X100135810Y-49714373D01*
X100125052Y-49720822D01*
X100114141Y-49726654D01*
X100102798Y-49732019D01*
X100091371Y-49736752D01*
X100079565Y-49740976D01*
X100067733Y-49744565D01*
X100055552Y-49747616D01*
X100043426Y-49750028D01*
X100031015Y-49751869D01*
X100018705Y-49753081D01*
X100006178Y-49753696D01*
X99993822Y-49753696D01*
X99981295Y-49753081D01*
X99968984Y-49751869D01*
X99955684Y-49749896D01*
X99945293Y-49747906D01*
X99935313Y-49745556D01*
X99931040Y-49744470D01*
X94436151Y-48245864D01*
X94430222Y-48244090D01*
X94415357Y-48239240D01*
X94403812Y-48234835D01*
X94392312Y-48229789D01*
X94381240Y-48224268D01*
X94370309Y-48218129D01*
X94359840Y-48211554D01*
X94349547Y-48204362D01*
X94339776Y-48196795D01*
X94330252Y-48188642D01*
X94321258Y-48180143D01*
X94312570Y-48171085D01*
X94304460Y-48161754D01*
X94296706Y-48151894D01*
X94289549Y-48141812D01*
X94282801Y-48131243D01*
X94276667Y-48120507D01*
X94270979Y-48109311D01*
X94265924Y-48098022D01*
X94261365Y-48086332D01*
X94257446Y-48074615D01*
X94254057Y-48062546D01*
X94251302Y-48050489D01*
X94249109Y-48038126D01*
X94247549Y-48025857D01*
X94246580Y-48013356D01*
X94246230Y-48000999D01*
X94246491Y-47988446D01*
X94247355Y-47976105D01*
X94248844Y-47963653D01*
X94250914Y-47951458D01*
X94253618Y-47939206D01*
X94256869Y-47927286D01*
X94260758Y-47915364D01*
X94265165Y-47903812D01*
X94270211Y-47892312D01*
X94275732Y-47881240D01*
X94281871Y-47870309D01*
X94288446Y-47859840D01*
X94295638Y-47849547D01*
X94303204Y-47839777D01*
X94312788Y-47828581D01*
X94318184Y-47822669D01*
X94319818Y-47820989D01*
X94321046Y-47819744D01*
X95103885Y-47036905D01*
X95166197Y-47002879D01*
X95192980Y-47000000D01*
X95481885Y-47000000D01*
X95507530Y-46992470D01*
X103963095Y-38536905D01*
X104025407Y-38502879D01*
X104052190Y-38500000D01*
X104188260Y-38500000D01*
X104256381Y-38520002D01*
G37*
G36*
X124442121Y-29520002D02*
G01*
X124488614Y-29573658D01*
X124500000Y-29626000D01*
X124500000Y-34374000D01*
X124479998Y-34442121D01*
X124426342Y-34488614D01*
X124374000Y-34500000D01*
X85514668Y-34500000D01*
X85486881Y-34506560D01*
X85026354Y-34736823D01*
X84956480Y-34749397D01*
X84939397Y-34746351D01*
X84932273Y-34744567D01*
X84920435Y-34740976D01*
X84908629Y-34736752D01*
X84897202Y-34732019D01*
X84885859Y-34726654D01*
X84874948Y-34720822D01*
X84864190Y-34714373D01*
X84853921Y-34707511D01*
X84843837Y-34700033D01*
X84834267Y-34692179D01*
X84824975Y-34683756D01*
X84816244Y-34675025D01*
X84807821Y-34665733D01*
X84799967Y-34656163D01*
X84792489Y-34646079D01*
X84785627Y-34635810D01*
X84779178Y-34625052D01*
X84773344Y-34614137D01*
X84766852Y-34600410D01*
X84763768Y-34593336D01*
X82815086Y-29721631D01*
X82808358Y-29650954D01*
X82840909Y-29587859D01*
X82875725Y-29562138D01*
X82973396Y-29513302D01*
X83029745Y-29500000D01*
X124374000Y-29500000D01*
X124442121Y-29520002D01*
G37*
G36*
X69736131Y-42801122D02*
G01*
X75048809Y-44250035D01*
X75109266Y-44287256D01*
X75140003Y-44351254D01*
X75132644Y-44418390D01*
X75004464Y-44738839D01*
X75000000Y-44762020D01*
X75000000Y-91981885D01*
X75007530Y-92007530D01*
X75217095Y-92217095D01*
X75251121Y-92279407D01*
X75254000Y-92306190D01*
X75254000Y-93996912D01*
X75253848Y-94003094D01*
X75253081Y-94018709D01*
X75251869Y-94031015D01*
X75250028Y-94043426D01*
X75247616Y-94055552D01*
X75244565Y-94067733D01*
X75240976Y-94079565D01*
X75236752Y-94091371D01*
X75232019Y-94102798D01*
X75226654Y-94114141D01*
X75220822Y-94125052D01*
X75214373Y-94135810D01*
X75207511Y-94146079D01*
X75200033Y-94156163D01*
X75192179Y-94165733D01*
X75183756Y-94175025D01*
X75175025Y-94183756D01*
X75165733Y-94192179D01*
X75156163Y-94200033D01*
X75146079Y-94207511D01*
X75135810Y-94214373D01*
X75125052Y-94220822D01*
X75114141Y-94226654D01*
X75102798Y-94232019D01*
X75091371Y-94236752D01*
X75079565Y-94240976D01*
X75067733Y-94244565D01*
X75055552Y-94247616D01*
X75043426Y-94250028D01*
X75031015Y-94251869D01*
X75018712Y-94253081D01*
X75005955Y-94253708D01*
X74994054Y-94253730D01*
X74979851Y-94253085D01*
X74974160Y-94252698D01*
X69704116Y-93773604D01*
X69638085Y-93747516D01*
X69595989Y-93687966D01*
X69540104Y-93520312D01*
X69522533Y-93495029D01*
X69500000Y-93423122D01*
X69500000Y-43038149D01*
X69521162Y-42968257D01*
X69598140Y-42852790D01*
X69652569Y-42807205D01*
X69723003Y-42798283D01*
X69736131Y-42801122D01*
G37*
G36*
X84261931Y-101266002D02*
G01*
X84282905Y-101282905D01*
X84487188Y-101487188D01*
X84510650Y-101500000D01*
X94031223Y-101500000D01*
X94099344Y-101520002D01*
X94145837Y-101573658D01*
X94155941Y-101643932D01*
X94126447Y-101708512D01*
X94081462Y-101741551D01*
X83161062Y-106489551D01*
X83110823Y-106500000D01*
X82520447Y-106500000D01*
X82480602Y-106493534D01*
X81028217Y-106009406D01*
X80978967Y-105978967D01*
X80880413Y-105880413D01*
X80846387Y-105818101D01*
X80851452Y-105747286D01*
X80859364Y-105730127D01*
X83276465Y-101379345D01*
X83279600Y-101374015D01*
X83287856Y-101360734D01*
X83294890Y-101350568D01*
X83302523Y-101340617D01*
X83310524Y-101331183D01*
X83319102Y-101322022D01*
X83327987Y-101313421D01*
X83337416Y-101305150D01*
X83347097Y-101297464D01*
X83357299Y-101290151D01*
X83367698Y-101283445D01*
X83378568Y-101277168D01*
X83389559Y-101271521D01*
X83400976Y-101266346D01*
X83412475Y-101261800D01*
X83424359Y-101257764D01*
X83436241Y-101254368D01*
X83448457Y-101251517D01*
X83460633Y-101249300D01*
X83473587Y-101247593D01*
X83484891Y-101246619D01*
X83497415Y-101246106D01*
X83502572Y-101246000D01*
X84193810Y-101246000D01*
X84261931Y-101266002D01*
G37*
G36*
X74512817Y-91246552D02*
G01*
X74525321Y-91247494D01*
X74537610Y-91249030D01*
X74549967Y-91251196D01*
X74562013Y-91253922D01*
X74574101Y-91257288D01*
X74585835Y-91261185D01*
X74597536Y-91265720D01*
X74608841Y-91270753D01*
X74620037Y-91276412D01*
X74630783Y-91282524D01*
X74641369Y-91289252D01*
X74651472Y-91296392D01*
X74662000Y-91304637D01*
X74670137Y-91311587D01*
X74677961Y-91318866D01*
X74681231Y-91322021D01*
X74963095Y-91603885D01*
X74997121Y-91666197D01*
X75000000Y-91692980D01*
X75000000Y-91981885D01*
X75007530Y-92007530D01*
X84487188Y-101487188D01*
X84510650Y-101500000D01*
X84807020Y-101500000D01*
X84875141Y-101520002D01*
X84896115Y-101536905D01*
X85677414Y-102318204D01*
X85681677Y-102322680D01*
X85692183Y-102334271D01*
X85700033Y-102343837D01*
X85707511Y-102353921D01*
X85714373Y-102364190D01*
X85720822Y-102374948D01*
X85726654Y-102385859D01*
X85732019Y-102397202D01*
X85736752Y-102408629D01*
X85740976Y-102420435D01*
X85744565Y-102432267D01*
X85747616Y-102444448D01*
X85750028Y-102456574D01*
X85751869Y-102468985D01*
X85753081Y-102481295D01*
X85753696Y-102493822D01*
X85753696Y-102506178D01*
X85753081Y-102518705D01*
X85751869Y-102531015D01*
X85750028Y-102543426D01*
X85747616Y-102555552D01*
X85744565Y-102567733D01*
X85740976Y-102579565D01*
X85736752Y-102591371D01*
X85732019Y-102602798D01*
X85726654Y-102614141D01*
X85720822Y-102625052D01*
X85714373Y-102635810D01*
X85707511Y-102646079D01*
X85700033Y-102656163D01*
X85692179Y-102665733D01*
X85683756Y-102675025D01*
X85675026Y-102683755D01*
X85664054Y-102693701D01*
X85658045Y-102698815D01*
X85656557Y-102700003D01*
X85655299Y-102700994D01*
X81342833Y-106055135D01*
X81276781Y-106081169D01*
X81225631Y-106075211D01*
X81028217Y-106009406D01*
X80978967Y-105978967D01*
X70100926Y-95100926D01*
X70066900Y-95038614D01*
X70071965Y-94967799D01*
X70112664Y-94912373D01*
X71660121Y-93708795D01*
X71666836Y-93699471D01*
X71661071Y-93696459D01*
X71621986Y-93692906D01*
X71555956Y-93666819D01*
X71514512Y-93609174D01*
X71510812Y-93538274D01*
X71546032Y-93476629D01*
X71556037Y-93467966D01*
X74341617Y-91301404D01*
X74346592Y-91297727D01*
X74359403Y-91288736D01*
X74369852Y-91282143D01*
X74380764Y-91275984D01*
X74391834Y-91270434D01*
X74403318Y-91265367D01*
X74414846Y-91260942D01*
X74426772Y-91257023D01*
X74438706Y-91253742D01*
X74450950Y-91251014D01*
X74463130Y-91248921D01*
X74475579Y-91247406D01*
X74487920Y-91246516D01*
X74500472Y-91246229D01*
X74512817Y-91246552D01*
G37*
G36*
X82264920Y-29949892D02*
G01*
X82290653Y-29978073D01*
X85209622Y-34356527D01*
X85212930Y-34361763D01*
X85220961Y-34375196D01*
X85226770Y-34386090D01*
X85232120Y-34397430D01*
X85236844Y-34408867D01*
X85241063Y-34420697D01*
X85244642Y-34432543D01*
X85247675Y-34444709D01*
X85250072Y-34456825D01*
X85251900Y-34469234D01*
X85253100Y-34481544D01*
X85253703Y-34494082D01*
X85253690Y-34506451D01*
X85253061Y-34518983D01*
X85251835Y-34531289D01*
X85249981Y-34543696D01*
X85247559Y-34555811D01*
X85244499Y-34567976D01*
X85240894Y-34579814D01*
X85236653Y-34591627D01*
X85231903Y-34603059D01*
X85231254Y-34604427D01*
X85183984Y-34657399D01*
X85173764Y-34663118D01*
X84509086Y-34995457D01*
X84492815Y-35007185D01*
X75175718Y-44324282D01*
X75161914Y-44345216D01*
X75004464Y-44738839D01*
X75000000Y-44762020D01*
X75000000Y-44807020D01*
X74979998Y-44875141D01*
X74963095Y-44896115D01*
X74681796Y-45177414D01*
X74677320Y-45181677D01*
X74665729Y-45192183D01*
X74656163Y-45200033D01*
X74646079Y-45207511D01*
X74635810Y-45214373D01*
X74625052Y-45220822D01*
X74614141Y-45226654D01*
X74602798Y-45232019D01*
X74591371Y-45236752D01*
X74579565Y-45240976D01*
X74567733Y-45244565D01*
X74555552Y-45247616D01*
X74543426Y-45250028D01*
X74531015Y-45251869D01*
X74518705Y-45253081D01*
X74506178Y-45253696D01*
X74493822Y-45253696D01*
X74481295Y-45253081D01*
X74468985Y-45251869D01*
X74456574Y-45250028D01*
X74444448Y-45247616D01*
X74432267Y-45244565D01*
X74420435Y-45240976D01*
X74408629Y-45236752D01*
X74397202Y-45232019D01*
X74385859Y-45226654D01*
X74374948Y-45220822D01*
X74364190Y-45214373D01*
X74353921Y-45207511D01*
X74342154Y-45198785D01*
X74335721Y-45193681D01*
X74333512Y-45191808D01*
X74332026Y-45190529D01*
X70441057Y-41785931D01*
X70402963Y-41726020D01*
X70403306Y-41655024D01*
X70419191Y-41621214D01*
X70493080Y-41510380D01*
X70508823Y-41491177D01*
X81985540Y-30014460D01*
X82018286Y-29990857D01*
X82129466Y-29935267D01*
X82199340Y-29922693D01*
X82264920Y-29949892D01*
G37*
G36*
X83274229Y-29520002D02*
G01*
X83318806Y-29569651D01*
X85692806Y-34317651D01*
X85705380Y-34387525D01*
X85678181Y-34453105D01*
X85619845Y-34493570D01*
X85580108Y-34500000D01*
X85514668Y-34500000D01*
X85486881Y-34506560D01*
X84509086Y-34995457D01*
X84492815Y-35007185D01*
X84434293Y-35065707D01*
X84371981Y-35099733D01*
X84301166Y-35094668D01*
X84244330Y-35052121D01*
X84232500Y-35032961D01*
X81851293Y-30270548D01*
X81838719Y-30200674D01*
X81865918Y-30135094D01*
X81874896Y-30125104D01*
X81985540Y-30014460D01*
X82018286Y-29990857D01*
X82973396Y-29513302D01*
X83029745Y-29500000D01*
X83206108Y-29500000D01*
X83274229Y-29520002D01*
G37*
G36*
X70772545Y-41335452D02*
G01*
X75591460Y-43263018D01*
X75597143Y-43265455D01*
X75611362Y-43271969D01*
X75622336Y-43277663D01*
X75633187Y-43283988D01*
X75643553Y-43290733D01*
X75653712Y-43298077D01*
X75663367Y-43305805D01*
X75672761Y-43314113D01*
X75681612Y-43322752D01*
X75690161Y-43331957D01*
X75698117Y-43341413D01*
X75705701Y-43351382D01*
X75712696Y-43361580D01*
X75719290Y-43372283D01*
X75725251Y-43383114D01*
X75730744Y-43394370D01*
X75735617Y-43405740D01*
X75739993Y-43417516D01*
X75743727Y-43429306D01*
X75746919Y-43441422D01*
X75749477Y-43453514D01*
X75751471Y-43465912D01*
X75752833Y-43478200D01*
X75753602Y-43490728D01*
X75753753Y-43503101D01*
X75753290Y-43515630D01*
X75752228Y-43527944D01*
X75750538Y-43540380D01*
X75748274Y-43552535D01*
X75745376Y-43564734D01*
X75741932Y-43576609D01*
X75736838Y-43591413D01*
X75734682Y-43597211D01*
X75632215Y-43853378D01*
X75604322Y-43895678D01*
X75175718Y-44324282D01*
X75161914Y-44345216D01*
X75004464Y-44738839D01*
X75000000Y-44762020D01*
X75000000Y-45409651D01*
X74990988Y-45456446D01*
X74736982Y-46091460D01*
X74734545Y-46097143D01*
X74728031Y-46111362D01*
X74722337Y-46122336D01*
X74716012Y-46133187D01*
X74709267Y-46143553D01*
X74701923Y-46153712D01*
X74694195Y-46163367D01*
X74685887Y-46172761D01*
X74677248Y-46181612D01*
X74668043Y-46190161D01*
X74658587Y-46198117D01*
X74648618Y-46205701D01*
X74638420Y-46212696D01*
X74627717Y-46219290D01*
X74616886Y-46225251D01*
X74605630Y-46230744D01*
X74594260Y-46235617D01*
X74582484Y-46239993D01*
X74570694Y-46243727D01*
X74558578Y-46246919D01*
X74546486Y-46249477D01*
X74534088Y-46251471D01*
X74521800Y-46252833D01*
X74509272Y-46253602D01*
X74496899Y-46253753D01*
X74484370Y-46253290D01*
X74472056Y-46252228D01*
X74459620Y-46250538D01*
X74447465Y-46248274D01*
X74435266Y-46245376D01*
X74423392Y-46241932D01*
X74411520Y-46237847D01*
X74400039Y-46233255D01*
X74387592Y-46227553D01*
X74378602Y-46222991D01*
X74370997Y-46218741D01*
X74367638Y-46216795D01*
X69561174Y-43332916D01*
X69513051Y-43280717D01*
X69500000Y-43224872D01*
X69500000Y-43038149D01*
X69521162Y-42968257D01*
X70493080Y-41510380D01*
X70508823Y-41491177D01*
X70636655Y-41363345D01*
X70698967Y-41329319D01*
X70772545Y-41335452D01*
G37*
G36*
X103506391Y-86746309D02*
G01*
X103518734Y-86746921D01*
X103531219Y-86748156D01*
X103543455Y-86749977D01*
X103555767Y-86752432D01*
X103567756Y-86755440D01*
X103579750Y-86759084D01*
X103591397Y-86763258D01*
X103602986Y-86768065D01*
X103614161Y-86773357D01*
X103625231Y-86779281D01*
X103635833Y-86785642D01*
X103646255Y-86792613D01*
X103656179Y-86799981D01*
X103667087Y-86808941D01*
X103674010Y-86815066D01*
X103678509Y-86819351D01*
X103680705Y-86821495D01*
X103963095Y-87103885D01*
X103997121Y-87166197D01*
X104000000Y-87192980D01*
X104000000Y-87481885D01*
X104007530Y-87507530D01*
X108987188Y-92487188D01*
X109010650Y-92500000D01*
X109069838Y-92500000D01*
X109137959Y-92520002D01*
X109184452Y-92573658D01*
X109194556Y-92643932D01*
X109174676Y-92695892D01*
X106290653Y-97021927D01*
X106236224Y-97067512D01*
X106165790Y-97076434D01*
X106129466Y-97064733D01*
X106018286Y-97009143D01*
X105985540Y-96985540D01*
X97512812Y-88512812D01*
X97489350Y-88500000D01*
X97476243Y-88500000D01*
X97408122Y-88479998D01*
X97361629Y-88426342D01*
X97351525Y-88356068D01*
X97381019Y-88291488D01*
X97445684Y-88251762D01*
X103435394Y-86754335D01*
X103441422Y-86752984D01*
X103456768Y-86749938D01*
X103469007Y-86748128D01*
X103481494Y-86746904D01*
X103493846Y-86746303D01*
X103506391Y-86746309D01*
G37*
G36*
X124442121Y-38520002D02*
G01*
X124488614Y-38573658D01*
X124500000Y-38626000D01*
X124500000Y-43374000D01*
X124479998Y-43442121D01*
X124426342Y-43488614D01*
X124374000Y-43500000D01*
X106018115Y-43500000D01*
X105992470Y-43507530D01*
X105939712Y-43560288D01*
X105877400Y-43594314D01*
X105806585Y-43589249D01*
X105749749Y-43546702D01*
X105733629Y-43517988D01*
X103835452Y-38772545D01*
X103828724Y-38701868D01*
X103863345Y-38636655D01*
X103963095Y-38536905D01*
X104025407Y-38502879D01*
X104052190Y-38500000D01*
X124374000Y-38500000D01*
X124442121Y-38520002D01*
G37*
G36*
X100503094Y-46746152D02*
G01*
X100518709Y-46746919D01*
X100531015Y-46748131D01*
X100543426Y-46749972D01*
X100555552Y-46752384D01*
X100567733Y-46755435D01*
X100579565Y-46759024D01*
X100591371Y-46763248D01*
X100602798Y-46767981D01*
X100614141Y-46773346D01*
X100625052Y-46779178D01*
X100635810Y-46785627D01*
X100646079Y-46792489D01*
X100656163Y-46799967D01*
X100665733Y-46807821D01*
X100675025Y-46816244D01*
X100683756Y-46824975D01*
X100692179Y-46834267D01*
X100700033Y-46843837D01*
X100707511Y-46853921D01*
X100714373Y-46864190D01*
X100720822Y-46874948D01*
X100726654Y-46885859D01*
X100732019Y-46897202D01*
X100736752Y-46908629D01*
X100740976Y-46920435D01*
X100744565Y-46932267D01*
X100747616Y-46944448D01*
X100750028Y-46956574D01*
X100751869Y-46968985D01*
X100753081Y-46981291D01*
X100753848Y-46996906D01*
X100754000Y-47003088D01*
X100754000Y-48693810D01*
X100733998Y-48761931D01*
X100717095Y-48782905D01*
X100512812Y-48987188D01*
X100500000Y-49010650D01*
X100500000Y-51874000D01*
X100479998Y-51942121D01*
X100426342Y-51988614D01*
X100374000Y-52000000D01*
X89126000Y-52000000D01*
X89057879Y-51979998D01*
X89011386Y-51926342D01*
X89000000Y-51874000D01*
X89000000Y-47126000D01*
X89020002Y-47057879D01*
X89073658Y-47011386D01*
X89126000Y-47000000D01*
X95481885Y-47000000D01*
X95507530Y-46992470D01*
X95717095Y-46782905D01*
X95779407Y-46748879D01*
X95806190Y-46746000D01*
X100496912Y-46746000D01*
X100503094Y-46746152D01*
G37*
G36*
X124442121Y-83520002D02*
G01*
X124488614Y-83573658D01*
X124500000Y-83626000D01*
X124500000Y-88374000D01*
X124479998Y-88442121D01*
X124426342Y-88488614D01*
X124374000Y-88500000D01*
X110626000Y-88500000D01*
X110557879Y-88479998D01*
X110511386Y-88426342D01*
X110500000Y-88374000D01*
X110500000Y-83626000D01*
X110520002Y-83557879D01*
X110573658Y-83511386D01*
X110626000Y-83500000D01*
X124374000Y-83500000D01*
X124442121Y-83520002D01*
G37*
M02*
