%TF.GenerationSoftware,KiCad,Pcbnew,(6.0.0)*%
%TF.CreationDate,2022-01-17T01:15:48+01:00*%
%TF.ProjectId,DCMotorController,44434d6f-746f-4724-936f-6e74726f6c6c,rev?*%
%TF.SameCoordinates,Original*%
%TF.FileFunction,Soldermask,Top*%
%TF.FilePolarity,Negative*%
%FSLAX46Y46*%
G04 Gerber Fmt 4.6, Leading zero omitted, Abs format (unit mm)*
G04 Created by KiCad (PCBNEW (6.0.0)) date 2022-01-17 01:15:48*
%MOMM*%
%LPD*%
G01*
G04 APERTURE LIST*
G04 Aperture macros list*
%AMRoundRect*
0 Rectangle with rounded corners*
0 $1 Rounding radius*
0 $2 $3 $4 $5 $6 $7 $8 $9 X,Y pos of 4 corners*
0 Add a 4 corners polygon primitive as box body*
4,1,4,$2,$3,$4,$5,$6,$7,$8,$9,$2,$3,0*
0 Add four circle primitives for the rounded corners*
1,1,$1+$1,$2,$3*
1,1,$1+$1,$4,$5*
1,1,$1+$1,$6,$7*
1,1,$1+$1,$8,$9*
0 Add four rect primitives between the rounded corners*
20,1,$1+$1,$2,$3,$4,$5,0*
20,1,$1+$1,$4,$5,$6,$7,0*
20,1,$1+$1,$6,$7,$8,$9,0*
20,1,$1+$1,$8,$9,$2,$3,0*%
G04 Aperture macros list end*
%ADD10RoundRect,0.250000X0.600000X0.725000X-0.600000X0.725000X-0.600000X-0.725000X0.600000X-0.725000X0*%
%ADD11O,1.700000X1.950000*%
%ADD12R,1.500000X1.500000*%
%ADD13RoundRect,0.250000X0.475000X-0.250000X0.475000X0.250000X-0.475000X0.250000X-0.475000X-0.250000X0*%
%ADD14RoundRect,0.250000X-0.250000X-0.475000X0.250000X-0.475000X0.250000X0.475000X-0.250000X0.475000X0*%
%ADD15RoundRect,0.250000X0.250000X0.475000X-0.250000X0.475000X-0.250000X-0.475000X0.250000X-0.475000X0*%
%ADD16RoundRect,0.250000X-0.475000X0.250000X-0.475000X-0.250000X0.475000X-0.250000X0.475000X0.250000X0*%
%ADD17RoundRect,0.250000X-0.650000X0.325000X-0.650000X-0.325000X0.650000X-0.325000X0.650000X0.325000X0*%
%ADD18RoundRect,0.225000X-0.250000X0.225000X-0.250000X-0.225000X0.250000X-0.225000X0.250000X0.225000X0*%
%ADD19R,0.800000X0.900000*%
%ADD20R,0.900000X0.800000*%
%ADD21R,1.700000X1.700000*%
%ADD22O,1.700000X1.700000*%
%ADD23R,1.200000X2.200000*%
%ADD24R,5.800000X6.400000*%
%ADD25RoundRect,0.200000X0.275000X-0.200000X0.275000X0.200000X-0.275000X0.200000X-0.275000X-0.200000X0*%
%ADD26RoundRect,0.200000X-0.200000X-0.275000X0.200000X-0.275000X0.200000X0.275000X-0.200000X0.275000X0*%
%ADD27RoundRect,0.200000X-0.275000X0.200000X-0.275000X-0.200000X0.275000X-0.200000X0.275000X0.200000X0*%
%ADD28RoundRect,0.200000X0.200000X0.275000X-0.200000X0.275000X-0.200000X-0.275000X0.200000X-0.275000X0*%
%ADD29R,1.500000X1.050000*%
%ADD30O,1.500000X1.050000*%
%ADD31RoundRect,0.150000X-0.675000X-0.150000X0.675000X-0.150000X0.675000X0.150000X-0.675000X0.150000X0*%
%ADD32R,2.000000X0.900000*%
%ADD33R,0.900000X2.000000*%
%ADD34R,5.000000X5.000000*%
%ADD35R,2.000000X1.500000*%
%ADD36R,2.000000X3.800000*%
%ADD37C,2.000000*%
%ADD38R,0.900000X1.200000*%
%ADD39RoundRect,0.237500X-0.237500X0.250000X-0.237500X-0.250000X0.237500X-0.250000X0.237500X0.250000X0*%
%ADD40RoundRect,0.225000X0.225000X0.250000X-0.225000X0.250000X-0.225000X-0.250000X0.225000X-0.250000X0*%
%ADD41RoundRect,0.225000X0.250000X-0.225000X0.250000X0.225000X-0.250000X0.225000X-0.250000X-0.225000X0*%
%ADD42RoundRect,1.500000X-1.500000X-1.500000X1.500000X-1.500000X1.500000X1.500000X-1.500000X1.500000X0*%
%ADD43RoundRect,0.225000X-0.225000X-0.250000X0.225000X-0.250000X0.225000X0.250000X-0.225000X0.250000X0*%
%ADD44R,3.300000X4.500000*%
%ADD45R,5.400000X2.900000*%
%ADD46R,2.000000X2.000000*%
%ADD47RoundRect,0.237500X0.237500X-0.250000X0.237500X0.250000X-0.237500X0.250000X-0.237500X-0.250000X0*%
%ADD48R,2.500000X1.800000*%
%ADD49R,1.000000X1.500000*%
%ADD50RoundRect,0.250000X0.325000X0.650000X-0.325000X0.650000X-0.325000X-0.650000X0.325000X-0.650000X0*%
%ADD51RoundRect,0.250000X-0.325000X-0.650000X0.325000X-0.650000X0.325000X0.650000X-0.325000X0.650000X0*%
%ADD52R,2.200000X1.500000*%
%ADD53R,0.600000X1.550000*%
%ADD54R,3.100000X2.600000*%
%ADD55R,0.600000X0.450000*%
G04 APERTURE END LIST*
D10*
%TO.C,1WIRE1*%
X77500000Y-22837500D03*
D11*
X75000000Y-22837500D03*
X72500000Y-22837500D03*
%TD*%
D12*
%TO.C,Boot1*%
X43500000Y-52400000D03*
X43500000Y-44600000D03*
%TD*%
D13*
%TO.C,C1*%
X47000000Y-52700000D03*
X47000000Y-50800000D03*
%TD*%
D14*
%TO.C,C2*%
X43550000Y-31000000D03*
X45450000Y-31000000D03*
%TD*%
D15*
%TO.C,C3*%
X45450000Y-28500000D03*
X43550000Y-28500000D03*
%TD*%
%TO.C,C4*%
X68000000Y-41500000D03*
X66100000Y-41500000D03*
%TD*%
D16*
%TO.C,C5*%
X47000000Y-33800000D03*
X47000000Y-35700000D03*
%TD*%
D15*
%TO.C,C6*%
X56450000Y-44500000D03*
X54550000Y-44500000D03*
%TD*%
D17*
%TO.C,C8*%
X79127150Y-51525000D03*
X79127150Y-54475000D03*
%TD*%
D18*
%TO.C,C10*%
X69500000Y-34725000D03*
X69500000Y-36275000D03*
%TD*%
D19*
%TO.C,D3*%
X78450000Y-26087500D03*
X76550000Y-26087500D03*
X77500000Y-28087500D03*
%TD*%
D20*
%TO.C,D14*%
X87995000Y-27395978D03*
X87995000Y-25495978D03*
X85995000Y-26445978D03*
%TD*%
%TO.C,D15*%
X98020000Y-27470000D03*
X98020000Y-25570000D03*
X96020000Y-26520000D03*
%TD*%
%TO.C,D16*%
X108575000Y-27420000D03*
X108575000Y-25520000D03*
X106575000Y-26470000D03*
%TD*%
%TO.C,D17*%
X118290000Y-27250000D03*
X118290000Y-25350000D03*
X116290000Y-26300000D03*
%TD*%
D21*
%TO.C,J2*%
X43225000Y-56250000D03*
D22*
X45765000Y-56250000D03*
X48305000Y-56250000D03*
%TD*%
D23*
%TO.C,Q3*%
X111780000Y-54800000D03*
D24*
X109500000Y-61100000D03*
D23*
X107220000Y-54800000D03*
%TD*%
%TO.C,Q4*%
X120780000Y-54800000D03*
D24*
X118500000Y-61100000D03*
D23*
X116220000Y-54800000D03*
%TD*%
%TO.C,Q7*%
X120805000Y-36875000D03*
D24*
X118525000Y-43175000D03*
D23*
X116245000Y-36875000D03*
%TD*%
%TO.C,Q8*%
X111780000Y-36800000D03*
D24*
X109500000Y-43100000D03*
D23*
X107220000Y-36800000D03*
%TD*%
%TO.C,Q11*%
X102780000Y-54800000D03*
D24*
X100500000Y-61100000D03*
D23*
X98220000Y-54800000D03*
%TD*%
%TO.C,Q12*%
X93780000Y-54800000D03*
D24*
X91500000Y-61100000D03*
D23*
X89220000Y-54800000D03*
%TD*%
%TO.C,Q15*%
X102780000Y-36800000D03*
D24*
X100500000Y-43100000D03*
D23*
X98220000Y-36800000D03*
%TD*%
%TO.C,Q16*%
X93780000Y-36800000D03*
D24*
X91500000Y-43100000D03*
D23*
X89220000Y-36800000D03*
%TD*%
D25*
%TO.C,R1*%
X72000000Y-27912500D03*
X72000000Y-26262500D03*
%TD*%
%TO.C,R2*%
X74500000Y-27912500D03*
X74500000Y-26262500D03*
%TD*%
D26*
%TO.C,R4*%
X82627150Y-45500000D03*
X84277150Y-45500000D03*
%TD*%
%TO.C,R6*%
X82302150Y-53500000D03*
X83952150Y-53500000D03*
%TD*%
%TO.C,R8*%
X82825000Y-32500000D03*
X84475000Y-32500000D03*
%TD*%
%TO.C,R10*%
X82825000Y-41000000D03*
X84475000Y-41000000D03*
%TD*%
D27*
%TO.C,R13*%
X47000000Y-44425000D03*
X47000000Y-46075000D03*
%TD*%
D26*
%TO.C,R14*%
X49262500Y-44500000D03*
X50912500Y-44500000D03*
%TD*%
D28*
%TO.C,R15*%
X50912500Y-46750000D03*
X49262500Y-46750000D03*
%TD*%
D26*
%TO.C,R16*%
X54675000Y-47000000D03*
X56325000Y-47000000D03*
%TD*%
D25*
%TO.C,R17*%
X47000000Y-42075000D03*
X47000000Y-40425000D03*
%TD*%
D12*
%TO.C,Reset1*%
X43500000Y-34100000D03*
X43500000Y-41900000D03*
%TD*%
D29*
%TO.C,U1*%
X124140000Y-59730000D03*
D30*
X124140000Y-61000000D03*
X124140000Y-62270000D03*
%TD*%
D31*
%TO.C,U3*%
X71002150Y-48095000D03*
X71002150Y-49365000D03*
X71002150Y-50635000D03*
X71002150Y-51905000D03*
X76252150Y-51905000D03*
X76252150Y-50635000D03*
X76252150Y-49365000D03*
X76252150Y-48095000D03*
%TD*%
D32*
%TO.C,U4*%
X49500000Y-21495000D03*
X49500000Y-22765000D03*
X49500000Y-24035000D03*
X49500000Y-25305000D03*
X49500000Y-26575000D03*
X49500000Y-27845000D03*
X49500000Y-29115000D03*
X49500000Y-30385000D03*
X49500000Y-31655000D03*
X49500000Y-32925000D03*
X49500000Y-34195000D03*
X49500000Y-35465000D03*
X49500000Y-36735000D03*
X49500000Y-38005000D03*
D33*
X52285000Y-39005000D03*
X53555000Y-39005000D03*
X54825000Y-39005000D03*
X56095000Y-39005000D03*
X57365000Y-39005000D03*
X58635000Y-39005000D03*
X59905000Y-39005000D03*
X61175000Y-39005000D03*
X62445000Y-39005000D03*
X63715000Y-39005000D03*
D32*
X66500000Y-38005000D03*
X66500000Y-36735000D03*
X66500000Y-35465000D03*
X66500000Y-34195000D03*
X66500000Y-32925000D03*
X66500000Y-31655000D03*
X66500000Y-30385000D03*
X66500000Y-29115000D03*
X66500000Y-27845000D03*
X66500000Y-26575000D03*
X66500000Y-25305000D03*
X66500000Y-24035000D03*
X66500000Y-22765000D03*
X66500000Y-21495000D03*
D34*
X57000000Y-28995000D03*
%TD*%
D31*
%TO.C,U6*%
X71525000Y-35095000D03*
X71525000Y-36365000D03*
X71525000Y-37635000D03*
X71525000Y-38905000D03*
X76775000Y-38905000D03*
X76775000Y-37635000D03*
X76775000Y-36365000D03*
X76775000Y-35095000D03*
%TD*%
D35*
%TO.C,U8*%
X65150000Y-49575000D03*
D36*
X58850000Y-47275000D03*
D35*
X65150000Y-47275000D03*
X65150000Y-44975000D03*
%TD*%
D23*
%TO.C,Q14*%
X89220000Y-99200000D03*
D24*
X91500000Y-92900000D03*
D23*
X93780000Y-99200000D03*
%TD*%
%TO.C,Q13*%
X98220000Y-99200000D03*
D24*
X100500000Y-92900000D03*
D23*
X102780000Y-99200000D03*
%TD*%
%TO.C,Q10*%
X89220000Y-81200000D03*
D24*
X91500000Y-74900000D03*
D23*
X93780000Y-81200000D03*
%TD*%
%TO.C,Q9*%
X98220000Y-81200000D03*
D24*
X100500000Y-74900000D03*
D23*
X102780000Y-81200000D03*
%TD*%
%TO.C,Q6*%
X107220000Y-99200000D03*
D24*
X109500000Y-92900000D03*
D23*
X111780000Y-99200000D03*
%TD*%
%TO.C,Q5*%
X116245000Y-99200000D03*
D24*
X118525000Y-92900000D03*
D23*
X120805000Y-99200000D03*
%TD*%
%TO.C,Q2*%
X116220000Y-81200000D03*
D24*
X118500000Y-74900000D03*
D23*
X120780000Y-81200000D03*
%TD*%
%TO.C,Q1*%
X107220000Y-81200000D03*
D24*
X109500000Y-74900000D03*
D23*
X111780000Y-81200000D03*
%TD*%
D31*
%TO.C,U5*%
X72025000Y-83595000D03*
X72025000Y-84865000D03*
X72025000Y-86135000D03*
X72025000Y-87405000D03*
X77275000Y-87405000D03*
X77275000Y-86135000D03*
X77275000Y-84865000D03*
X77275000Y-83595000D03*
%TD*%
D26*
%TO.C,R9*%
X83325000Y-89000000D03*
X84975000Y-89000000D03*
%TD*%
D31*
%TO.C,U2*%
X71375000Y-95730000D03*
X71375000Y-97000000D03*
X71375000Y-98270000D03*
X71375000Y-99540000D03*
X76625000Y-99540000D03*
X76625000Y-98270000D03*
X76625000Y-97000000D03*
X76625000Y-95730000D03*
%TD*%
D29*
%TO.C,U9*%
X85500000Y-76040000D03*
D30*
X85500000Y-74770000D03*
X85500000Y-73500000D03*
%TD*%
D21*
%TO.C,M1_S1*%
X89770000Y-22520000D03*
D22*
X87230000Y-22520000D03*
X84690000Y-22520000D03*
%TD*%
D21*
%TO.C,M1_S2*%
X99795000Y-22520000D03*
D22*
X97255000Y-22520000D03*
X94715000Y-22520000D03*
%TD*%
D21*
%TO.C,M2_S1*%
X109850000Y-22520000D03*
D22*
X107310000Y-22520000D03*
X104770000Y-22520000D03*
%TD*%
D21*
%TO.C,M2_S2*%
X119790000Y-22500000D03*
D22*
X117250000Y-22500000D03*
X114710000Y-22500000D03*
%TD*%
D37*
%TO.C,C23*%
X79750000Y-66500000D03*
X72250000Y-66500000D03*
%TD*%
D38*
%TO.C,D9*%
X81850000Y-95635000D03*
X85150000Y-95635000D03*
%TD*%
D39*
%TO.C,R18*%
X54500000Y-96587500D03*
X54500000Y-98412500D03*
%TD*%
D40*
%TO.C,C36*%
X54775000Y-87500000D03*
X53225000Y-87500000D03*
%TD*%
D38*
%TO.C,D13*%
X82500000Y-86500000D03*
X85800000Y-86500000D03*
%TD*%
D40*
%TO.C,C35*%
X53525000Y-86000000D03*
X51975000Y-86000000D03*
%TD*%
D41*
%TO.C,C22*%
X48800000Y-70975000D03*
X48800000Y-69425000D03*
%TD*%
D42*
%TO.C,VIN1*%
X126500000Y-68000000D03*
%TD*%
D43*
%TO.C,C19*%
X63425000Y-59600000D03*
X64975000Y-59600000D03*
%TD*%
%TO.C,C17*%
X60225000Y-52000000D03*
X61775000Y-52000000D03*
%TD*%
D17*
%TO.C,C26*%
X80150000Y-82025000D03*
X80150000Y-84975000D03*
%TD*%
D38*
%TO.C,D7*%
X82000000Y-38000000D03*
X85300000Y-38000000D03*
%TD*%
D16*
%TO.C,C39*%
X50000000Y-49600000D03*
X50000000Y-51500000D03*
%TD*%
D26*
%TO.C,R12*%
X48975000Y-72800000D03*
X50625000Y-72800000D03*
%TD*%
%TO.C,R7*%
X83325000Y-81000000D03*
X84975000Y-81000000D03*
%TD*%
D27*
%TO.C,Rvoltage4*%
X57500000Y-89675000D03*
X57500000Y-91325000D03*
%TD*%
D42*
%TO.C,M1-1*%
X126500000Y-41000000D03*
%TD*%
D39*
%TO.C,R21*%
X60000000Y-59087500D03*
X60000000Y-60912500D03*
%TD*%
D18*
%TO.C,C28*%
X69000000Y-94225000D03*
X69000000Y-95775000D03*
%TD*%
D26*
%TO.C,R23*%
X82775000Y-26300000D03*
X84425000Y-26300000D03*
%TD*%
D38*
%TO.C,D2*%
X81477150Y-51000000D03*
X84777150Y-51000000D03*
%TD*%
D18*
%TO.C,C15*%
X50600000Y-66225000D03*
X50600000Y-67775000D03*
%TD*%
D26*
%TO.C,R25*%
X103375000Y-27300000D03*
X105025000Y-27300000D03*
%TD*%
D44*
%TO.C,D18*%
X55000000Y-68400000D03*
X55000000Y-59600000D03*
%TD*%
D26*
%TO.C,R5*%
X82675000Y-101135000D03*
X84325000Y-101135000D03*
%TD*%
D42*
%TO.C,M2+1*%
X126500000Y-86000000D03*
%TD*%
D17*
%TO.C,C9*%
X79650000Y-33925000D03*
X79650000Y-36875000D03*
%TD*%
D42*
%TO.C,M2-1*%
X126500000Y-95000000D03*
%TD*%
D16*
%TO.C,C29*%
X56000000Y-49550000D03*
X56000000Y-51450000D03*
%TD*%
%TO.C,C40*%
X51990000Y-49550000D03*
X51990000Y-51450000D03*
%TD*%
D17*
%TO.C,C11*%
X79650000Y-38925000D03*
X79650000Y-41875000D03*
%TD*%
D38*
%TO.C,D10*%
X81850000Y-98635000D03*
X85150000Y-98635000D03*
%TD*%
D17*
%TO.C,C27*%
X80150000Y-87025000D03*
X80150000Y-89975000D03*
%TD*%
D45*
%TO.C,L1*%
X61000000Y-74050000D03*
X61000000Y-83950000D03*
%TD*%
D46*
%TO.C,BZ1*%
X65000000Y-99500000D03*
D37*
X60000000Y-99500000D03*
%TD*%
D41*
%TO.C,C33*%
X50500000Y-91000000D03*
X50500000Y-89450000D03*
%TD*%
D39*
%TO.C,R20*%
X54500000Y-100087500D03*
X54500000Y-101912500D03*
%TD*%
D16*
%TO.C,C41*%
X54000000Y-49550000D03*
X54000000Y-51450000D03*
%TD*%
D47*
%TO.C,R19*%
X61750000Y-60912500D03*
X61750000Y-59087500D03*
%TD*%
D17*
%TO.C,C7*%
X79127150Y-46525000D03*
X79127150Y-49475000D03*
%TD*%
%TO.C,C14*%
X79500000Y-99160000D03*
X79500000Y-102110000D03*
%TD*%
D42*
%TO.C,GND1*%
X126500000Y-32000000D03*
%TD*%
D41*
%TO.C,C24*%
X50600000Y-70975000D03*
X50600000Y-69425000D03*
%TD*%
D25*
%TO.C,Rvoltage1*%
X48800000Y-64625000D03*
X48800000Y-62975000D03*
%TD*%
D48*
%TO.C,D8*%
X76000000Y-92135000D03*
X72000000Y-92135000D03*
%TD*%
D38*
%TO.C,D6*%
X82000000Y-35000000D03*
X85300000Y-35000000D03*
%TD*%
D18*
%TO.C,C25*%
X68627150Y-48725000D03*
X68627150Y-50275000D03*
%TD*%
D49*
%TO.C,D20*%
X42400000Y-67450000D03*
X45600000Y-67450000D03*
X45600000Y-62550000D03*
X42400000Y-62550000D03*
%TD*%
D26*
%TO.C,R11*%
X55175000Y-105000000D03*
X56825000Y-105000000D03*
%TD*%
D38*
%TO.C,D12*%
X82500000Y-83500000D03*
X85800000Y-83500000D03*
%TD*%
D50*
%TO.C,C16*%
X66975000Y-53000000D03*
X64025000Y-53000000D03*
%TD*%
D38*
%TO.C,D5*%
X81477150Y-48000000D03*
X84777150Y-48000000D03*
%TD*%
D40*
%TO.C,C32*%
X53025000Y-96500000D03*
X51475000Y-96500000D03*
%TD*%
D46*
%TO.C,C30*%
X46500000Y-76400000D03*
D37*
X46500000Y-81400000D03*
%TD*%
D26*
%TO.C,R26*%
X113075000Y-27100000D03*
X114725000Y-27100000D03*
%TD*%
D42*
%TO.C,M1+1*%
X126500000Y-50000000D03*
%TD*%
D18*
%TO.C,C12*%
X69650000Y-84225000D03*
X69650000Y-85775000D03*
%TD*%
D50*
%TO.C,C18*%
X66975000Y-55500000D03*
X64025000Y-55500000D03*
%TD*%
D51*
%TO.C,C38*%
X48025000Y-100500000D03*
X50975000Y-100500000D03*
%TD*%
D48*
%TO.C,D1*%
X75627150Y-44500000D03*
X71627150Y-44500000D03*
%TD*%
D27*
%TO.C,Rvoltage3*%
X57500000Y-86675000D03*
X57500000Y-88325000D03*
%TD*%
D52*
%TO.C,L2*%
X45750000Y-88800000D03*
X45750000Y-95200000D03*
%TD*%
D53*
%TO.C,U7*%
X64810000Y-64600000D03*
X63540000Y-64600000D03*
X62270000Y-64600000D03*
X61000000Y-64600000D03*
X61000000Y-70000000D03*
X62270000Y-70000000D03*
X63540000Y-70000000D03*
X64810000Y-70000000D03*
D54*
X62905000Y-67300000D03*
%TD*%
D25*
%TO.C,Rvoltage2*%
X48800000Y-61425000D03*
X48800000Y-59775000D03*
%TD*%
D26*
%TO.C,R24*%
X92875000Y-26900000D03*
X94525000Y-26900000D03*
%TD*%
D40*
%TO.C,C31*%
X53025000Y-98000000D03*
X51475000Y-98000000D03*
%TD*%
D48*
%TO.C,D11*%
X76650000Y-80000000D03*
X72650000Y-80000000D03*
%TD*%
D43*
%TO.C,C20*%
X63425000Y-57800000D03*
X64975000Y-57800000D03*
%TD*%
D51*
%TO.C,C37*%
X46775000Y-97500000D03*
X49725000Y-97500000D03*
%TD*%
D41*
%TO.C,C21*%
X47000000Y-70975000D03*
X47000000Y-69425000D03*
%TD*%
D17*
%TO.C,C13*%
X79500000Y-94160000D03*
X79500000Y-97110000D03*
%TD*%
D26*
%TO.C,R3*%
X82675000Y-93135000D03*
X84325000Y-93135000D03*
%TD*%
D18*
%TO.C,C34*%
X52000000Y-82975000D03*
X52000000Y-84525000D03*
%TD*%
D55*
%TO.C,D19*%
X47700000Y-86500000D03*
X49800000Y-86500000D03*
%TD*%
D25*
%TO.C,R22*%
X53500000Y-84575000D03*
X53500000Y-82925000D03*
%TD*%
D48*
%TO.C,D4*%
X76150000Y-31500000D03*
X72150000Y-31500000D03*
%TD*%
D53*
%TO.C,U10*%
X52095000Y-94700000D03*
X53365000Y-94700000D03*
X54635000Y-94700000D03*
X55905000Y-94700000D03*
X55905000Y-89300000D03*
X54635000Y-89300000D03*
X53365000Y-89300000D03*
X52095000Y-89300000D03*
D54*
X54000000Y-92000000D03*
%TD*%
M02*
