%TF.GenerationSoftware,KiCad,Pcbnew,(6.0.0)*%
%TF.CreationDate,2022-01-17T01:15:48+01:00*%
%TF.ProjectId,DCMotorController,44434d6f-746f-4724-936f-6e74726f6c6c,rev?*%
%TF.SameCoordinates,Original*%
%TF.FileFunction,Legend,Top*%
%TF.FilePolarity,Positive*%
%FSLAX46Y46*%
G04 Gerber Fmt 4.6, Leading zero omitted, Abs format (unit mm)*
G04 Created by KiCad (PCBNEW (6.0.0)) date 2022-01-17 01:15:48*
%MOMM*%
%LPD*%
G01*
G04 APERTURE LIST*
%ADD10C,0.150000*%
%ADD11C,0.075000*%
%ADD12C,0.125000*%
%ADD13C,0.120000*%
G04 APERTURE END LIST*
D10*
%TO.C,1WIRE1*%
X95297619Y16910119D02*
X94726190Y16910119D01*
X95011904Y16910119D02*
X95011904Y17910119D01*
X94916666Y17767261D01*
X94821428Y17672023D01*
X94726190Y17624404D01*
X95630952Y17910119D02*
X95869047Y16910119D01*
X96059523Y17624404D01*
X96250000Y16910119D01*
X96488095Y17910119D01*
X96869047Y16910119D02*
X96869047Y17910119D01*
X97916666Y16910119D02*
X97583333Y17386309D01*
X97345238Y16910119D02*
X97345238Y17910119D01*
X97726190Y17910119D01*
X97821428Y17862500D01*
X97869047Y17814880D01*
X97916666Y17719642D01*
X97916666Y17576785D01*
X97869047Y17481547D01*
X97821428Y17433928D01*
X97726190Y17386309D01*
X97345238Y17386309D01*
X98345238Y17433928D02*
X98678571Y17433928D01*
X98821428Y16910119D02*
X98345238Y16910119D01*
X98345238Y17910119D01*
X98821428Y17910119D01*
X99773809Y16910119D02*
X99202380Y16910119D01*
X99488095Y16910119D02*
X99488095Y17910119D01*
X99392857Y17767261D01*
X99297619Y17672023D01*
X99202380Y17624404D01*
%TO.C,Boot1*%
X42154761Y-53928571D02*
X42297619Y-53976190D01*
X42345238Y-54023809D01*
X42392857Y-54119047D01*
X42392857Y-54261904D01*
X42345238Y-54357142D01*
X42297619Y-54404761D01*
X42202380Y-54452380D01*
X41821428Y-54452380D01*
X41821428Y-53452380D01*
X42154761Y-53452380D01*
X42250000Y-53500000D01*
X42297619Y-53547619D01*
X42345238Y-53642857D01*
X42345238Y-53738095D01*
X42297619Y-53833333D01*
X42250000Y-53880952D01*
X42154761Y-53928571D01*
X41821428Y-53928571D01*
X42964285Y-54452380D02*
X42869047Y-54404761D01*
X42821428Y-54357142D01*
X42773809Y-54261904D01*
X42773809Y-53976190D01*
X42821428Y-53880952D01*
X42869047Y-53833333D01*
X42964285Y-53785714D01*
X43107142Y-53785714D01*
X43202380Y-53833333D01*
X43250000Y-53880952D01*
X43297619Y-53976190D01*
X43297619Y-54261904D01*
X43250000Y-54357142D01*
X43202380Y-54404761D01*
X43107142Y-54452380D01*
X42964285Y-54452380D01*
X43869047Y-54452380D02*
X43773809Y-54404761D01*
X43726190Y-54357142D01*
X43678571Y-54261904D01*
X43678571Y-53976190D01*
X43726190Y-53880952D01*
X43773809Y-53833333D01*
X43869047Y-53785714D01*
X44011904Y-53785714D01*
X44107142Y-53833333D01*
X44154761Y-53880952D01*
X44202380Y-53976190D01*
X44202380Y-54261904D01*
X44154761Y-54357142D01*
X44107142Y-54404761D01*
X44011904Y-54452380D01*
X43869047Y-54452380D01*
X44488095Y-53785714D02*
X44869047Y-53785714D01*
X44630952Y-53452380D02*
X44630952Y-54309523D01*
X44678571Y-54404761D01*
X44773809Y-54452380D01*
X44869047Y-54452380D01*
X45726190Y-54452380D02*
X45154761Y-54452380D01*
X45440476Y-54452380D02*
X45440476Y-53452380D01*
X45345238Y-53595238D01*
X45250000Y-53690476D01*
X45154761Y-53738095D01*
%TO.C,C1*%
X48833333Y-53357142D02*
X48785714Y-53404761D01*
X48642857Y-53452380D01*
X48547619Y-53452380D01*
X48404761Y-53404761D01*
X48309523Y-53309523D01*
X48261904Y-53214285D01*
X48214285Y-53023809D01*
X48214285Y-52880952D01*
X48261904Y-52690476D01*
X48309523Y-52595238D01*
X48404761Y-52500000D01*
X48547619Y-52452380D01*
X48642857Y-52452380D01*
X48785714Y-52500000D01*
X48833333Y-52547619D01*
X49785714Y-53452380D02*
X49214285Y-53452380D01*
X49500000Y-53452380D02*
X49500000Y-52452380D01*
X49404761Y-52595238D01*
X49309523Y-52690476D01*
X49214285Y-52738095D01*
%TO.C,C2*%
X44333333Y-32857142D02*
X44285714Y-32904761D01*
X44142857Y-32952380D01*
X44047619Y-32952380D01*
X43904761Y-32904761D01*
X43809523Y-32809523D01*
X43761904Y-32714285D01*
X43714285Y-32523809D01*
X43714285Y-32380952D01*
X43761904Y-32190476D01*
X43809523Y-32095238D01*
X43904761Y-32000000D01*
X44047619Y-31952380D01*
X44142857Y-31952380D01*
X44285714Y-32000000D01*
X44333333Y-32047619D01*
X44714285Y-32047619D02*
X44761904Y-32000000D01*
X44857142Y-31952380D01*
X45095238Y-31952380D01*
X45190476Y-32000000D01*
X45238095Y-32047619D01*
X45285714Y-32142857D01*
X45285714Y-32238095D01*
X45238095Y-32380952D01*
X44666666Y-32952380D01*
X45285714Y-32952380D01*
%TO.C,C3*%
X44333333Y-26857142D02*
X44285714Y-26904761D01*
X44142857Y-26952380D01*
X44047619Y-26952380D01*
X43904761Y-26904761D01*
X43809523Y-26809523D01*
X43761904Y-26714285D01*
X43714285Y-26523809D01*
X43714285Y-26380952D01*
X43761904Y-26190476D01*
X43809523Y-26095238D01*
X43904761Y-26000000D01*
X44047619Y-25952380D01*
X44142857Y-25952380D01*
X44285714Y-26000000D01*
X44333333Y-26047619D01*
X44666666Y-25952380D02*
X45285714Y-25952380D01*
X44952380Y-26333333D01*
X45095238Y-26333333D01*
X45190476Y-26380952D01*
X45238095Y-26428571D01*
X45285714Y-26523809D01*
X45285714Y-26761904D01*
X45238095Y-26857142D01*
X45190476Y-26904761D01*
X45095238Y-26952380D01*
X44809523Y-26952380D01*
X44714285Y-26904761D01*
X44666666Y-26857142D01*
%TO.C,C4*%
X66883333Y-43537142D02*
X66835714Y-43584761D01*
X66692857Y-43632380D01*
X66597619Y-43632380D01*
X66454761Y-43584761D01*
X66359523Y-43489523D01*
X66311904Y-43394285D01*
X66264285Y-43203809D01*
X66264285Y-43060952D01*
X66311904Y-42870476D01*
X66359523Y-42775238D01*
X66454761Y-42680000D01*
X66597619Y-42632380D01*
X66692857Y-42632380D01*
X66835714Y-42680000D01*
X66883333Y-42727619D01*
X67740476Y-42965714D02*
X67740476Y-43632380D01*
X67502380Y-42584761D02*
X67264285Y-43299047D01*
X67883333Y-43299047D01*
%TO.C,C5*%
X47357142Y-32166666D02*
X47404761Y-32214285D01*
X47452380Y-32357142D01*
X47452380Y-32452380D01*
X47404761Y-32595238D01*
X47309523Y-32690476D01*
X47214285Y-32738095D01*
X47023809Y-32785714D01*
X46880952Y-32785714D01*
X46690476Y-32738095D01*
X46595238Y-32690476D01*
X46500000Y-32595238D01*
X46452380Y-32452380D01*
X46452380Y-32357142D01*
X46500000Y-32214285D01*
X46547619Y-32166666D01*
X46452380Y-31261904D02*
X46452380Y-31738095D01*
X46928571Y-31785714D01*
X46880952Y-31738095D01*
X46833333Y-31642857D01*
X46833333Y-31404761D01*
X46880952Y-31309523D01*
X46928571Y-31261904D01*
X47023809Y-31214285D01*
X47261904Y-31214285D01*
X47357142Y-31261904D01*
X47404761Y-31309523D01*
X47452380Y-31404761D01*
X47452380Y-31642857D01*
X47404761Y-31738095D01*
X47357142Y-31785714D01*
%TO.C,C6*%
X55333333Y-43357142D02*
X55285714Y-43404761D01*
X55142857Y-43452380D01*
X55047619Y-43452380D01*
X54904761Y-43404761D01*
X54809523Y-43309523D01*
X54761904Y-43214285D01*
X54714285Y-43023809D01*
X54714285Y-42880952D01*
X54761904Y-42690476D01*
X54809523Y-42595238D01*
X54904761Y-42500000D01*
X55047619Y-42452380D01*
X55142857Y-42452380D01*
X55285714Y-42500000D01*
X55333333Y-42547619D01*
X56190476Y-42452380D02*
X56000000Y-42452380D01*
X55904761Y-42500000D01*
X55857142Y-42547619D01*
X55761904Y-42690476D01*
X55714285Y-42880952D01*
X55714285Y-43261904D01*
X55761904Y-43357142D01*
X55809523Y-43404761D01*
X55904761Y-43452380D01*
X56095238Y-43452380D01*
X56190476Y-43404761D01*
X56238095Y-43357142D01*
X56285714Y-43261904D01*
X56285714Y-43023809D01*
X56238095Y-42928571D01*
X56190476Y-42880952D01*
X56095238Y-42833333D01*
X55904761Y-42833333D01*
X55809523Y-42880952D01*
X55761904Y-42928571D01*
X55714285Y-43023809D01*
%TO.C,C8*%
X80833333Y-54857142D02*
X80785714Y-54904761D01*
X80642857Y-54952380D01*
X80547619Y-54952380D01*
X80404761Y-54904761D01*
X80309523Y-54809523D01*
X80261904Y-54714285D01*
X80214285Y-54523809D01*
X80214285Y-54380952D01*
X80261904Y-54190476D01*
X80309523Y-54095238D01*
X80404761Y-54000000D01*
X80547619Y-53952380D01*
X80642857Y-53952380D01*
X80785714Y-54000000D01*
X80833333Y-54047619D01*
X81404761Y-54380952D02*
X81309523Y-54333333D01*
X81261904Y-54285714D01*
X81214285Y-54190476D01*
X81214285Y-54142857D01*
X81261904Y-54047619D01*
X81309523Y-54000000D01*
X81404761Y-53952380D01*
X81595238Y-53952380D01*
X81690476Y-54000000D01*
X81738095Y-54047619D01*
X81785714Y-54142857D01*
X81785714Y-54190476D01*
X81738095Y-54285714D01*
X81690476Y-54333333D01*
X81595238Y-54380952D01*
X81404761Y-54380952D01*
X81309523Y-54428571D01*
X81261904Y-54476190D01*
X81214285Y-54571428D01*
X81214285Y-54761904D01*
X81261904Y-54857142D01*
X81309523Y-54904761D01*
X81404761Y-54952380D01*
X81595238Y-54952380D01*
X81690476Y-54904761D01*
X81738095Y-54857142D01*
X81785714Y-54761904D01*
X81785714Y-54571428D01*
X81738095Y-54476190D01*
X81690476Y-54428571D01*
X81595238Y-54380952D01*
%TO.C,C10*%
X70367142Y-33142857D02*
X70414761Y-33190476D01*
X70462380Y-33333333D01*
X70462380Y-33428571D01*
X70414761Y-33571428D01*
X70319523Y-33666666D01*
X70224285Y-33714285D01*
X70033809Y-33761904D01*
X69890952Y-33761904D01*
X69700476Y-33714285D01*
X69605238Y-33666666D01*
X69510000Y-33571428D01*
X69462380Y-33428571D01*
X69462380Y-33333333D01*
X69510000Y-33190476D01*
X69557619Y-33142857D01*
X70462380Y-32190476D02*
X70462380Y-32761904D01*
X70462380Y-32476190D02*
X69462380Y-32476190D01*
X69605238Y-32571428D01*
X69700476Y-32666666D01*
X69748095Y-32761904D01*
X69462380Y-31571428D02*
X69462380Y-31476190D01*
X69510000Y-31380952D01*
X69557619Y-31333333D01*
X69652857Y-31285714D01*
X69843333Y-31238095D01*
X70081428Y-31238095D01*
X70271904Y-31285714D01*
X70367142Y-31333333D01*
X70414761Y-31380952D01*
X70462380Y-31476190D01*
X70462380Y-31571428D01*
X70414761Y-31666666D01*
X70367142Y-31714285D01*
X70271904Y-31761904D01*
X70081428Y-31809523D01*
X69843333Y-31809523D01*
X69652857Y-31761904D01*
X69557619Y-31714285D01*
X69510000Y-31666666D01*
X69462380Y-31571428D01*
%TO.C,D3*%
X79761904Y-27452380D02*
X79761904Y-26452380D01*
X80000000Y-26452380D01*
X80142857Y-26500000D01*
X80238095Y-26595238D01*
X80285714Y-26690476D01*
X80333333Y-26880952D01*
X80333333Y-27023809D01*
X80285714Y-27214285D01*
X80238095Y-27309523D01*
X80142857Y-27404761D01*
X80000000Y-27452380D01*
X79761904Y-27452380D01*
X80666666Y-26452380D02*
X81285714Y-26452380D01*
X80952380Y-26833333D01*
X81095238Y-26833333D01*
X81190476Y-26880952D01*
X81238095Y-26928571D01*
X81285714Y-27023809D01*
X81285714Y-27261904D01*
X81238095Y-27357142D01*
X81190476Y-27404761D01*
X81095238Y-27452380D01*
X80809523Y-27452380D01*
X80714285Y-27404761D01*
X80666666Y-27357142D01*
%TO.C,D14*%
X89285714Y-27952380D02*
X89285714Y-26952380D01*
X89523809Y-26952380D01*
X89666666Y-27000000D01*
X89761904Y-27095238D01*
X89809523Y-27190476D01*
X89857142Y-27380952D01*
X89857142Y-27523809D01*
X89809523Y-27714285D01*
X89761904Y-27809523D01*
X89666666Y-27904761D01*
X89523809Y-27952380D01*
X89285714Y-27952380D01*
X90809523Y-27952380D02*
X90238095Y-27952380D01*
X90523809Y-27952380D02*
X90523809Y-26952380D01*
X90428571Y-27095238D01*
X90333333Y-27190476D01*
X90238095Y-27238095D01*
X91666666Y-27285714D02*
X91666666Y-27952380D01*
X91428571Y-26904761D02*
X91190476Y-27619047D01*
X91809523Y-27619047D01*
%TO.C,D15*%
X99285714Y-27952380D02*
X99285714Y-26952380D01*
X99523809Y-26952380D01*
X99666666Y-27000000D01*
X99761904Y-27095238D01*
X99809523Y-27190476D01*
X99857142Y-27380952D01*
X99857142Y-27523809D01*
X99809523Y-27714285D01*
X99761904Y-27809523D01*
X99666666Y-27904761D01*
X99523809Y-27952380D01*
X99285714Y-27952380D01*
X100809523Y-27952380D02*
X100238095Y-27952380D01*
X100523809Y-27952380D02*
X100523809Y-26952380D01*
X100428571Y-27095238D01*
X100333333Y-27190476D01*
X100238095Y-27238095D01*
X101714285Y-26952380D02*
X101238095Y-26952380D01*
X101190476Y-27428571D01*
X101238095Y-27380952D01*
X101333333Y-27333333D01*
X101571428Y-27333333D01*
X101666666Y-27380952D01*
X101714285Y-27428571D01*
X101761904Y-27523809D01*
X101761904Y-27761904D01*
X101714285Y-27857142D01*
X101666666Y-27904761D01*
X101571428Y-27952380D01*
X101333333Y-27952380D01*
X101238095Y-27904761D01*
X101190476Y-27857142D01*
%TO.C,D16*%
X109785714Y-27952380D02*
X109785714Y-26952380D01*
X110023809Y-26952380D01*
X110166666Y-27000000D01*
X110261904Y-27095238D01*
X110309523Y-27190476D01*
X110357142Y-27380952D01*
X110357142Y-27523809D01*
X110309523Y-27714285D01*
X110261904Y-27809523D01*
X110166666Y-27904761D01*
X110023809Y-27952380D01*
X109785714Y-27952380D01*
X111309523Y-27952380D02*
X110738095Y-27952380D01*
X111023809Y-27952380D02*
X111023809Y-26952380D01*
X110928571Y-27095238D01*
X110833333Y-27190476D01*
X110738095Y-27238095D01*
X112166666Y-26952380D02*
X111976190Y-26952380D01*
X111880952Y-27000000D01*
X111833333Y-27047619D01*
X111738095Y-27190476D01*
X111690476Y-27380952D01*
X111690476Y-27761904D01*
X111738095Y-27857142D01*
X111785714Y-27904761D01*
X111880952Y-27952380D01*
X112071428Y-27952380D01*
X112166666Y-27904761D01*
X112214285Y-27857142D01*
X112261904Y-27761904D01*
X112261904Y-27523809D01*
X112214285Y-27428571D01*
X112166666Y-27380952D01*
X112071428Y-27333333D01*
X111880952Y-27333333D01*
X111785714Y-27380952D01*
X111738095Y-27428571D01*
X111690476Y-27523809D01*
%TO.C,D17*%
X119785714Y-27952380D02*
X119785714Y-26952380D01*
X120023809Y-26952380D01*
X120166666Y-27000000D01*
X120261904Y-27095238D01*
X120309523Y-27190476D01*
X120357142Y-27380952D01*
X120357142Y-27523809D01*
X120309523Y-27714285D01*
X120261904Y-27809523D01*
X120166666Y-27904761D01*
X120023809Y-27952380D01*
X119785714Y-27952380D01*
X121309523Y-27952380D02*
X120738095Y-27952380D01*
X121023809Y-27952380D02*
X121023809Y-26952380D01*
X120928571Y-27095238D01*
X120833333Y-27190476D01*
X120738095Y-27238095D01*
X121642857Y-26952380D02*
X122309523Y-26952380D01*
X121880952Y-27952380D01*
%TO.C,J2*%
X50416666Y-55702380D02*
X50416666Y-56416666D01*
X50369047Y-56559523D01*
X50273809Y-56654761D01*
X50130952Y-56702380D01*
X50035714Y-56702380D01*
X50845238Y-55797619D02*
X50892857Y-55750000D01*
X50988095Y-55702380D01*
X51226190Y-55702380D01*
X51321428Y-55750000D01*
X51369047Y-55797619D01*
X51416666Y-55892857D01*
X51416666Y-55988095D01*
X51369047Y-56130952D01*
X50797619Y-56702380D01*
X51416666Y-56702380D01*
%TO.C,Q3*%
X114047619Y-55095238D02*
X114000000Y-55190476D01*
X113904761Y-55285714D01*
X113761904Y-55428571D01*
X113714285Y-55523809D01*
X113714285Y-55619047D01*
X113952380Y-55571428D02*
X113904761Y-55666666D01*
X113809523Y-55761904D01*
X113619047Y-55809523D01*
X113285714Y-55809523D01*
X113095238Y-55761904D01*
X113000000Y-55666666D01*
X112952380Y-55571428D01*
X112952380Y-55380952D01*
X113000000Y-55285714D01*
X113095238Y-55190476D01*
X113285714Y-55142857D01*
X113619047Y-55142857D01*
X113809523Y-55190476D01*
X113904761Y-55285714D01*
X113952380Y-55380952D01*
X113952380Y-55571428D01*
X112952380Y-54809523D02*
X112952380Y-54190476D01*
X113333333Y-54523809D01*
X113333333Y-54380952D01*
X113380952Y-54285714D01*
X113428571Y-54238095D01*
X113523809Y-54190476D01*
X113761904Y-54190476D01*
X113857142Y-54238095D01*
X113904761Y-54285714D01*
X113952380Y-54380952D01*
X113952380Y-54666666D01*
X113904761Y-54761904D01*
X113857142Y-54809523D01*
%TO.C,Q4*%
X123047619Y-55095238D02*
X123000000Y-55190476D01*
X122904761Y-55285714D01*
X122761904Y-55428571D01*
X122714285Y-55523809D01*
X122714285Y-55619047D01*
X122952380Y-55571428D02*
X122904761Y-55666666D01*
X122809523Y-55761904D01*
X122619047Y-55809523D01*
X122285714Y-55809523D01*
X122095238Y-55761904D01*
X122000000Y-55666666D01*
X121952380Y-55571428D01*
X121952380Y-55380952D01*
X122000000Y-55285714D01*
X122095238Y-55190476D01*
X122285714Y-55142857D01*
X122619047Y-55142857D01*
X122809523Y-55190476D01*
X122904761Y-55285714D01*
X122952380Y-55380952D01*
X122952380Y-55571428D01*
X122285714Y-54285714D02*
X122952380Y-54285714D01*
X121904761Y-54523809D02*
X122619047Y-54761904D01*
X122619047Y-54142857D01*
%TO.C,Q7*%
X123547619Y-37595238D02*
X123500000Y-37690476D01*
X123404761Y-37785714D01*
X123261904Y-37928571D01*
X123214285Y-38023809D01*
X123214285Y-38119047D01*
X123452380Y-38071428D02*
X123404761Y-38166666D01*
X123309523Y-38261904D01*
X123119047Y-38309523D01*
X122785714Y-38309523D01*
X122595238Y-38261904D01*
X122500000Y-38166666D01*
X122452380Y-38071428D01*
X122452380Y-37880952D01*
X122500000Y-37785714D01*
X122595238Y-37690476D01*
X122785714Y-37642857D01*
X123119047Y-37642857D01*
X123309523Y-37690476D01*
X123404761Y-37785714D01*
X123452380Y-37880952D01*
X123452380Y-38071428D01*
X122452380Y-37309523D02*
X122452380Y-36642857D01*
X123452380Y-37071428D01*
%TO.C,Q8*%
X114547619Y-39095238D02*
X114500000Y-39190476D01*
X114404761Y-39285714D01*
X114261904Y-39428571D01*
X114214285Y-39523809D01*
X114214285Y-39619047D01*
X114452380Y-39571428D02*
X114404761Y-39666666D01*
X114309523Y-39761904D01*
X114119047Y-39809523D01*
X113785714Y-39809523D01*
X113595238Y-39761904D01*
X113500000Y-39666666D01*
X113452380Y-39571428D01*
X113452380Y-39380952D01*
X113500000Y-39285714D01*
X113595238Y-39190476D01*
X113785714Y-39142857D01*
X114119047Y-39142857D01*
X114309523Y-39190476D01*
X114404761Y-39285714D01*
X114452380Y-39380952D01*
X114452380Y-39571428D01*
X113880952Y-38571428D02*
X113833333Y-38666666D01*
X113785714Y-38714285D01*
X113690476Y-38761904D01*
X113642857Y-38761904D01*
X113547619Y-38714285D01*
X113500000Y-38666666D01*
X113452380Y-38571428D01*
X113452380Y-38380952D01*
X113500000Y-38285714D01*
X113547619Y-38238095D01*
X113642857Y-38190476D01*
X113690476Y-38190476D01*
X113785714Y-38238095D01*
X113833333Y-38285714D01*
X113880952Y-38380952D01*
X113880952Y-38571428D01*
X113928571Y-38666666D01*
X113976190Y-38714285D01*
X114071428Y-38761904D01*
X114261904Y-38761904D01*
X114357142Y-38714285D01*
X114404761Y-38666666D01*
X114452380Y-38571428D01*
X114452380Y-38380952D01*
X114404761Y-38285714D01*
X114357142Y-38238095D01*
X114261904Y-38190476D01*
X114071428Y-38190476D01*
X113976190Y-38238095D01*
X113928571Y-38285714D01*
X113880952Y-38380952D01*
%TO.C,Q11*%
X105297619Y-59821428D02*
X105250000Y-59916666D01*
X105154761Y-60011904D01*
X105011904Y-60154761D01*
X104964285Y-60250000D01*
X104964285Y-60345238D01*
X105202380Y-60297619D02*
X105154761Y-60392857D01*
X105059523Y-60488095D01*
X104869047Y-60535714D01*
X104535714Y-60535714D01*
X104345238Y-60488095D01*
X104250000Y-60392857D01*
X104202380Y-60297619D01*
X104202380Y-60107142D01*
X104250000Y-60011904D01*
X104345238Y-59916666D01*
X104535714Y-59869047D01*
X104869047Y-59869047D01*
X105059523Y-59916666D01*
X105154761Y-60011904D01*
X105202380Y-60107142D01*
X105202380Y-60297619D01*
X105202380Y-58916666D02*
X105202380Y-59488095D01*
X105202380Y-59202380D02*
X104202380Y-59202380D01*
X104345238Y-59297619D01*
X104440476Y-59392857D01*
X104488095Y-59488095D01*
X105202380Y-57964285D02*
X105202380Y-58535714D01*
X105202380Y-58250000D02*
X104202380Y-58250000D01*
X104345238Y-58345238D01*
X104440476Y-58440476D01*
X104488095Y-58535714D01*
%TO.C,Q12*%
X96547619Y-59571428D02*
X96500000Y-59666666D01*
X96404761Y-59761904D01*
X96261904Y-59904761D01*
X96214285Y-60000000D01*
X96214285Y-60095238D01*
X96452380Y-60047619D02*
X96404761Y-60142857D01*
X96309523Y-60238095D01*
X96119047Y-60285714D01*
X95785714Y-60285714D01*
X95595238Y-60238095D01*
X95500000Y-60142857D01*
X95452380Y-60047619D01*
X95452380Y-59857142D01*
X95500000Y-59761904D01*
X95595238Y-59666666D01*
X95785714Y-59619047D01*
X96119047Y-59619047D01*
X96309523Y-59666666D01*
X96404761Y-59761904D01*
X96452380Y-59857142D01*
X96452380Y-60047619D01*
X96452380Y-58666666D02*
X96452380Y-59238095D01*
X96452380Y-58952380D02*
X95452380Y-58952380D01*
X95595238Y-59047619D01*
X95690476Y-59142857D01*
X95738095Y-59238095D01*
X95547619Y-58285714D02*
X95500000Y-58238095D01*
X95452380Y-58142857D01*
X95452380Y-57904761D01*
X95500000Y-57809523D01*
X95547619Y-57761904D01*
X95642857Y-57714285D01*
X95738095Y-57714285D01*
X95880952Y-57761904D01*
X96452380Y-58333333D01*
X96452380Y-57714285D01*
%TO.C,Q15*%
X105447619Y-39171428D02*
X105400000Y-39266666D01*
X105304761Y-39361904D01*
X105161904Y-39504761D01*
X105114285Y-39600000D01*
X105114285Y-39695238D01*
X105352380Y-39647619D02*
X105304761Y-39742857D01*
X105209523Y-39838095D01*
X105019047Y-39885714D01*
X104685714Y-39885714D01*
X104495238Y-39838095D01*
X104400000Y-39742857D01*
X104352380Y-39647619D01*
X104352380Y-39457142D01*
X104400000Y-39361904D01*
X104495238Y-39266666D01*
X104685714Y-39219047D01*
X105019047Y-39219047D01*
X105209523Y-39266666D01*
X105304761Y-39361904D01*
X105352380Y-39457142D01*
X105352380Y-39647619D01*
X105352380Y-38266666D02*
X105352380Y-38838095D01*
X105352380Y-38552380D02*
X104352380Y-38552380D01*
X104495238Y-38647619D01*
X104590476Y-38742857D01*
X104638095Y-38838095D01*
X104352380Y-37361904D02*
X104352380Y-37838095D01*
X104828571Y-37885714D01*
X104780952Y-37838095D01*
X104733333Y-37742857D01*
X104733333Y-37504761D01*
X104780952Y-37409523D01*
X104828571Y-37361904D01*
X104923809Y-37314285D01*
X105161904Y-37314285D01*
X105257142Y-37361904D01*
X105304761Y-37409523D01*
X105352380Y-37504761D01*
X105352380Y-37742857D01*
X105304761Y-37838095D01*
X105257142Y-37885714D01*
%TO.C,Q16*%
X96547619Y-39271428D02*
X96500000Y-39366666D01*
X96404761Y-39461904D01*
X96261904Y-39604761D01*
X96214285Y-39700000D01*
X96214285Y-39795238D01*
X96452380Y-39747619D02*
X96404761Y-39842857D01*
X96309523Y-39938095D01*
X96119047Y-39985714D01*
X95785714Y-39985714D01*
X95595238Y-39938095D01*
X95500000Y-39842857D01*
X95452380Y-39747619D01*
X95452380Y-39557142D01*
X95500000Y-39461904D01*
X95595238Y-39366666D01*
X95785714Y-39319047D01*
X96119047Y-39319047D01*
X96309523Y-39366666D01*
X96404761Y-39461904D01*
X96452380Y-39557142D01*
X96452380Y-39747619D01*
X96452380Y-38366666D02*
X96452380Y-38938095D01*
X96452380Y-38652380D02*
X95452380Y-38652380D01*
X95595238Y-38747619D01*
X95690476Y-38842857D01*
X95738095Y-38938095D01*
X95452380Y-37509523D02*
X95452380Y-37700000D01*
X95500000Y-37795238D01*
X95547619Y-37842857D01*
X95690476Y-37938095D01*
X95880952Y-37985714D01*
X96261904Y-37985714D01*
X96357142Y-37938095D01*
X96404761Y-37890476D01*
X96452380Y-37795238D01*
X96452380Y-37604761D01*
X96404761Y-37509523D01*
X96357142Y-37461904D01*
X96261904Y-37414285D01*
X96023809Y-37414285D01*
X95928571Y-37461904D01*
X95880952Y-37509523D01*
X95833333Y-37604761D01*
X95833333Y-37795238D01*
X95880952Y-37890476D01*
X95928571Y-37938095D01*
X96023809Y-37985714D01*
%TO.C,R1*%
X70633333Y-29452380D02*
X70300000Y-28976190D01*
X70061904Y-29452380D02*
X70061904Y-28452380D01*
X70442857Y-28452380D01*
X70538095Y-28500000D01*
X70585714Y-28547619D01*
X70633333Y-28642857D01*
X70633333Y-28785714D01*
X70585714Y-28880952D01*
X70538095Y-28928571D01*
X70442857Y-28976190D01*
X70061904Y-28976190D01*
X71585714Y-29452380D02*
X71014285Y-29452380D01*
X71300000Y-29452380D02*
X71300000Y-28452380D01*
X71204761Y-28595238D01*
X71109523Y-28690476D01*
X71014285Y-28738095D01*
%TO.C,R2*%
X75633333Y-29452380D02*
X75300000Y-28976190D01*
X75061904Y-29452380D02*
X75061904Y-28452380D01*
X75442857Y-28452380D01*
X75538095Y-28500000D01*
X75585714Y-28547619D01*
X75633333Y-28642857D01*
X75633333Y-28785714D01*
X75585714Y-28880952D01*
X75538095Y-28928571D01*
X75442857Y-28976190D01*
X75061904Y-28976190D01*
X76014285Y-28547619D02*
X76061904Y-28500000D01*
X76157142Y-28452380D01*
X76395238Y-28452380D01*
X76490476Y-28500000D01*
X76538095Y-28547619D01*
X76585714Y-28642857D01*
X76585714Y-28738095D01*
X76538095Y-28880952D01*
X75966666Y-29452380D01*
X76585714Y-29452380D01*
%TO.C,R4*%
X86333333Y-45952380D02*
X86000000Y-45476190D01*
X85761904Y-45952380D02*
X85761904Y-44952380D01*
X86142857Y-44952380D01*
X86238095Y-45000000D01*
X86285714Y-45047619D01*
X86333333Y-45142857D01*
X86333333Y-45285714D01*
X86285714Y-45380952D01*
X86238095Y-45428571D01*
X86142857Y-45476190D01*
X85761904Y-45476190D01*
X87190476Y-45285714D02*
X87190476Y-45952380D01*
X86952380Y-44904761D02*
X86714285Y-45619047D01*
X87333333Y-45619047D01*
%TO.C,R6*%
X86333333Y-53952380D02*
X86000000Y-53476190D01*
X85761904Y-53952380D02*
X85761904Y-52952380D01*
X86142857Y-52952380D01*
X86238095Y-53000000D01*
X86285714Y-53047619D01*
X86333333Y-53142857D01*
X86333333Y-53285714D01*
X86285714Y-53380952D01*
X86238095Y-53428571D01*
X86142857Y-53476190D01*
X85761904Y-53476190D01*
X87190476Y-52952380D02*
X87000000Y-52952380D01*
X86904761Y-53000000D01*
X86857142Y-53047619D01*
X86761904Y-53190476D01*
X86714285Y-53380952D01*
X86714285Y-53761904D01*
X86761904Y-53857142D01*
X86809523Y-53904761D01*
X86904761Y-53952380D01*
X87095238Y-53952380D01*
X87190476Y-53904761D01*
X87238095Y-53857142D01*
X87285714Y-53761904D01*
X87285714Y-53523809D01*
X87238095Y-53428571D01*
X87190476Y-53380952D01*
X87095238Y-53333333D01*
X86904761Y-53333333D01*
X86809523Y-53380952D01*
X86761904Y-53428571D01*
X86714285Y-53523809D01*
%TO.C,R8*%
X86333333Y-32952380D02*
X86000000Y-32476190D01*
X85761904Y-32952380D02*
X85761904Y-31952380D01*
X86142857Y-31952380D01*
X86238095Y-32000000D01*
X86285714Y-32047619D01*
X86333333Y-32142857D01*
X86333333Y-32285714D01*
X86285714Y-32380952D01*
X86238095Y-32428571D01*
X86142857Y-32476190D01*
X85761904Y-32476190D01*
X86904761Y-32380952D02*
X86809523Y-32333333D01*
X86761904Y-32285714D01*
X86714285Y-32190476D01*
X86714285Y-32142857D01*
X86761904Y-32047619D01*
X86809523Y-32000000D01*
X86904761Y-31952380D01*
X87095238Y-31952380D01*
X87190476Y-32000000D01*
X87238095Y-32047619D01*
X87285714Y-32142857D01*
X87285714Y-32190476D01*
X87238095Y-32285714D01*
X87190476Y-32333333D01*
X87095238Y-32380952D01*
X86904761Y-32380952D01*
X86809523Y-32428571D01*
X86761904Y-32476190D01*
X86714285Y-32571428D01*
X86714285Y-32761904D01*
X86761904Y-32857142D01*
X86809523Y-32904761D01*
X86904761Y-32952380D01*
X87095238Y-32952380D01*
X87190476Y-32904761D01*
X87238095Y-32857142D01*
X87285714Y-32761904D01*
X87285714Y-32571428D01*
X87238095Y-32476190D01*
X87190476Y-32428571D01*
X87095238Y-32380952D01*
%TO.C,R10*%
X85857142Y-41452380D02*
X85523809Y-40976190D01*
X85285714Y-41452380D02*
X85285714Y-40452380D01*
X85666666Y-40452380D01*
X85761904Y-40500000D01*
X85809523Y-40547619D01*
X85857142Y-40642857D01*
X85857142Y-40785714D01*
X85809523Y-40880952D01*
X85761904Y-40928571D01*
X85666666Y-40976190D01*
X85285714Y-40976190D01*
X86809523Y-41452380D02*
X86238095Y-41452380D01*
X86523809Y-41452380D02*
X86523809Y-40452380D01*
X86428571Y-40595238D01*
X86333333Y-40690476D01*
X86238095Y-40738095D01*
X87428571Y-40452380D02*
X87523809Y-40452380D01*
X87619047Y-40500000D01*
X87666666Y-40547619D01*
X87714285Y-40642857D01*
X87761904Y-40833333D01*
X87761904Y-41071428D01*
X87714285Y-41261904D01*
X87666666Y-41357142D01*
X87619047Y-41404761D01*
X87523809Y-41452380D01*
X87428571Y-41452380D01*
X87333333Y-41404761D01*
X87285714Y-41357142D01*
X87238095Y-41261904D01*
X87190476Y-41071428D01*
X87190476Y-40833333D01*
X87238095Y-40642857D01*
X87285714Y-40547619D01*
X87333333Y-40500000D01*
X87428571Y-40452380D01*
%TO.C,R13*%
X47452380Y-48642857D02*
X46976190Y-48976190D01*
X47452380Y-49214285D02*
X46452380Y-49214285D01*
X46452380Y-48833333D01*
X46500000Y-48738095D01*
X46547619Y-48690476D01*
X46642857Y-48642857D01*
X46785714Y-48642857D01*
X46880952Y-48690476D01*
X46928571Y-48738095D01*
X46976190Y-48833333D01*
X46976190Y-49214285D01*
X47452380Y-47690476D02*
X47452380Y-48261904D01*
X47452380Y-47976190D02*
X46452380Y-47976190D01*
X46595238Y-48071428D01*
X46690476Y-48166666D01*
X46738095Y-48261904D01*
X46452380Y-47357142D02*
X46452380Y-46738095D01*
X46833333Y-47071428D01*
X46833333Y-46928571D01*
X46880952Y-46833333D01*
X46928571Y-46785714D01*
X47023809Y-46738095D01*
X47261904Y-46738095D01*
X47357142Y-46785714D01*
X47404761Y-46833333D01*
X47452380Y-46928571D01*
X47452380Y-47214285D01*
X47404761Y-47309523D01*
X47357142Y-47357142D01*
%TO.C,R14*%
X49444642Y-43522380D02*
X49111309Y-43046190D01*
X48873214Y-43522380D02*
X48873214Y-42522380D01*
X49254166Y-42522380D01*
X49349404Y-42570000D01*
X49397023Y-42617619D01*
X49444642Y-42712857D01*
X49444642Y-42855714D01*
X49397023Y-42950952D01*
X49349404Y-42998571D01*
X49254166Y-43046190D01*
X48873214Y-43046190D01*
X50397023Y-43522380D02*
X49825595Y-43522380D01*
X50111309Y-43522380D02*
X50111309Y-42522380D01*
X50016071Y-42665238D01*
X49920833Y-42760476D01*
X49825595Y-42808095D01*
X51254166Y-42855714D02*
X51254166Y-43522380D01*
X51016071Y-42474761D02*
X50777976Y-43189047D01*
X51397023Y-43189047D01*
%TO.C,R15*%
X49444642Y-48632380D02*
X49111309Y-48156190D01*
X48873214Y-48632380D02*
X48873214Y-47632380D01*
X49254166Y-47632380D01*
X49349404Y-47680000D01*
X49397023Y-47727619D01*
X49444642Y-47822857D01*
X49444642Y-47965714D01*
X49397023Y-48060952D01*
X49349404Y-48108571D01*
X49254166Y-48156190D01*
X48873214Y-48156190D01*
X50397023Y-48632380D02*
X49825595Y-48632380D01*
X50111309Y-48632380D02*
X50111309Y-47632380D01*
X50016071Y-47775238D01*
X49920833Y-47870476D01*
X49825595Y-47918095D01*
X51301785Y-47632380D02*
X50825595Y-47632380D01*
X50777976Y-48108571D01*
X50825595Y-48060952D01*
X50920833Y-48013333D01*
X51158928Y-48013333D01*
X51254166Y-48060952D01*
X51301785Y-48108571D01*
X51349404Y-48203809D01*
X51349404Y-48441904D01*
X51301785Y-48537142D01*
X51254166Y-48584761D01*
X51158928Y-48632380D01*
X50920833Y-48632380D01*
X50825595Y-48584761D01*
X50777976Y-48537142D01*
%TO.C,R16*%
X54857142Y-48952380D02*
X54523809Y-48476190D01*
X54285714Y-48952380D02*
X54285714Y-47952380D01*
X54666666Y-47952380D01*
X54761904Y-48000000D01*
X54809523Y-48047619D01*
X54857142Y-48142857D01*
X54857142Y-48285714D01*
X54809523Y-48380952D01*
X54761904Y-48428571D01*
X54666666Y-48476190D01*
X54285714Y-48476190D01*
X55809523Y-48952380D02*
X55238095Y-48952380D01*
X55523809Y-48952380D02*
X55523809Y-47952380D01*
X55428571Y-48095238D01*
X55333333Y-48190476D01*
X55238095Y-48238095D01*
X56666666Y-47952380D02*
X56476190Y-47952380D01*
X56380952Y-48000000D01*
X56333333Y-48047619D01*
X56238095Y-48190476D01*
X56190476Y-48380952D01*
X56190476Y-48761904D01*
X56238095Y-48857142D01*
X56285714Y-48904761D01*
X56380952Y-48952380D01*
X56571428Y-48952380D01*
X56666666Y-48904761D01*
X56714285Y-48857142D01*
X56761904Y-48761904D01*
X56761904Y-48523809D01*
X56714285Y-48428571D01*
X56666666Y-48380952D01*
X56571428Y-48333333D01*
X56380952Y-48333333D01*
X56285714Y-48380952D01*
X56238095Y-48428571D01*
X56190476Y-48523809D01*
%TO.C,R17*%
X48557142Y-41352380D02*
X48223809Y-40876190D01*
X47985714Y-41352380D02*
X47985714Y-40352380D01*
X48366666Y-40352380D01*
X48461904Y-40400000D01*
X48509523Y-40447619D01*
X48557142Y-40542857D01*
X48557142Y-40685714D01*
X48509523Y-40780952D01*
X48461904Y-40828571D01*
X48366666Y-40876190D01*
X47985714Y-40876190D01*
X49509523Y-41352380D02*
X48938095Y-41352380D01*
X49223809Y-41352380D02*
X49223809Y-40352380D01*
X49128571Y-40495238D01*
X49033333Y-40590476D01*
X48938095Y-40638095D01*
X49842857Y-40352380D02*
X50509523Y-40352380D01*
X50080952Y-41352380D01*
%TO.C,Reset1*%
X41785714Y-43611904D02*
X41452380Y-43230952D01*
X41214285Y-43611904D02*
X41214285Y-42811904D01*
X41595238Y-42811904D01*
X41690476Y-42850000D01*
X41738095Y-42888095D01*
X41785714Y-42964285D01*
X41785714Y-43078571D01*
X41738095Y-43154761D01*
X41690476Y-43192857D01*
X41595238Y-43230952D01*
X41214285Y-43230952D01*
X42595238Y-43573809D02*
X42500000Y-43611904D01*
X42309523Y-43611904D01*
X42214285Y-43573809D01*
X42166666Y-43497619D01*
X42166666Y-43192857D01*
X42214285Y-43116666D01*
X42309523Y-43078571D01*
X42500000Y-43078571D01*
X42595238Y-43116666D01*
X42642857Y-43192857D01*
X42642857Y-43269047D01*
X42166666Y-43345238D01*
X43023809Y-43573809D02*
X43119047Y-43611904D01*
X43309523Y-43611904D01*
X43404761Y-43573809D01*
X43452380Y-43497619D01*
X43452380Y-43459523D01*
X43404761Y-43383333D01*
X43309523Y-43345238D01*
X43166666Y-43345238D01*
X43071428Y-43307142D01*
X43023809Y-43230952D01*
X43023809Y-43192857D01*
X43071428Y-43116666D01*
X43166666Y-43078571D01*
X43309523Y-43078571D01*
X43404761Y-43116666D01*
X44261904Y-43573809D02*
X44166666Y-43611904D01*
X43976190Y-43611904D01*
X43880952Y-43573809D01*
X43833333Y-43497619D01*
X43833333Y-43192857D01*
X43880952Y-43116666D01*
X43976190Y-43078571D01*
X44166666Y-43078571D01*
X44261904Y-43116666D01*
X44309523Y-43192857D01*
X44309523Y-43269047D01*
X43833333Y-43345238D01*
X44595238Y-43078571D02*
X44976190Y-43078571D01*
X44738095Y-42811904D02*
X44738095Y-43497619D01*
X44785714Y-43573809D01*
X44880952Y-43611904D01*
X44976190Y-43611904D01*
X45833333Y-43611904D02*
X45261904Y-43611904D01*
X45547619Y-43611904D02*
X45547619Y-42811904D01*
X45452380Y-42926190D01*
X45357142Y-43002380D01*
X45261904Y-43040476D01*
%TO.C,U1*%
X127452380Y-61761904D02*
X128261904Y-61761904D01*
X128357142Y-61714285D01*
X128404761Y-61666666D01*
X128452380Y-61571428D01*
X128452380Y-61380952D01*
X128404761Y-61285714D01*
X128357142Y-61238095D01*
X128261904Y-61190476D01*
X127452380Y-61190476D01*
X128452380Y-60190476D02*
X128452380Y-60761904D01*
X128452380Y-60476190D02*
X127452380Y-60476190D01*
X127595238Y-60571428D01*
X127690476Y-60666666D01*
X127738095Y-60761904D01*
%TO.C,U3*%
X72865245Y-53452380D02*
X72865245Y-54261904D01*
X72912864Y-54357142D01*
X72960483Y-54404761D01*
X73055721Y-54452380D01*
X73246197Y-54452380D01*
X73341435Y-54404761D01*
X73389054Y-54357142D01*
X73436673Y-54261904D01*
X73436673Y-53452380D01*
X73817626Y-53452380D02*
X74436673Y-53452380D01*
X74103340Y-53833333D01*
X74246197Y-53833333D01*
X74341435Y-53880952D01*
X74389054Y-53928571D01*
X74436673Y-54023809D01*
X74436673Y-54261904D01*
X74389054Y-54357142D01*
X74341435Y-54404761D01*
X74246197Y-54452380D01*
X73960483Y-54452380D01*
X73865245Y-54404761D01*
X73817626Y-54357142D01*
%TO.C,U4*%
X57238095Y-40452380D02*
X57238095Y-41261904D01*
X57285714Y-41357142D01*
X57333333Y-41404761D01*
X57428571Y-41452380D01*
X57619047Y-41452380D01*
X57714285Y-41404761D01*
X57761904Y-41357142D01*
X57809523Y-41261904D01*
X57809523Y-40452380D01*
X58714285Y-40785714D02*
X58714285Y-41452380D01*
X58476190Y-40404761D02*
X58238095Y-41119047D01*
X58857142Y-41119047D01*
%TO.C,U6*%
X73388095Y-39952380D02*
X73388095Y-40761904D01*
X73435714Y-40857142D01*
X73483333Y-40904761D01*
X73578571Y-40952380D01*
X73769047Y-40952380D01*
X73864285Y-40904761D01*
X73911904Y-40857142D01*
X73959523Y-40761904D01*
X73959523Y-39952380D01*
X74864285Y-39952380D02*
X74673809Y-39952380D01*
X74578571Y-40000000D01*
X74530952Y-40047619D01*
X74435714Y-40190476D01*
X74388095Y-40380952D01*
X74388095Y-40761904D01*
X74435714Y-40857142D01*
X74483333Y-40904761D01*
X74578571Y-40952380D01*
X74769047Y-40952380D01*
X74864285Y-40904761D01*
X74911904Y-40857142D01*
X74959523Y-40761904D01*
X74959523Y-40523809D01*
X74911904Y-40428571D01*
X74864285Y-40380952D01*
X74769047Y-40333333D01*
X74578571Y-40333333D01*
X74483333Y-40380952D01*
X74435714Y-40428571D01*
X74388095Y-40523809D01*
%TO.C,U8*%
X64738095Y-50942380D02*
X64738095Y-51751904D01*
X64785714Y-51847142D01*
X64833333Y-51894761D01*
X64928571Y-51942380D01*
X65119047Y-51942380D01*
X65214285Y-51894761D01*
X65261904Y-51847142D01*
X65309523Y-51751904D01*
X65309523Y-50942380D01*
X65928571Y-51370952D02*
X65833333Y-51323333D01*
X65785714Y-51275714D01*
X65738095Y-51180476D01*
X65738095Y-51132857D01*
X65785714Y-51037619D01*
X65833333Y-50990000D01*
X65928571Y-50942380D01*
X66119047Y-50942380D01*
X66214285Y-50990000D01*
X66261904Y-51037619D01*
X66309523Y-51132857D01*
X66309523Y-51180476D01*
X66261904Y-51275714D01*
X66214285Y-51323333D01*
X66119047Y-51370952D01*
X65928571Y-51370952D01*
X65833333Y-51418571D01*
X65785714Y-51466190D01*
X65738095Y-51561428D01*
X65738095Y-51751904D01*
X65785714Y-51847142D01*
X65833333Y-51894761D01*
X65928571Y-51942380D01*
X66119047Y-51942380D01*
X66214285Y-51894761D01*
X66261904Y-51847142D01*
X66309523Y-51751904D01*
X66309523Y-51561428D01*
X66261904Y-51466190D01*
X66214285Y-51418571D01*
X66119047Y-51370952D01*
%TO.C,Q14*%
X96547619Y-95571428D02*
X96500000Y-95666666D01*
X96404761Y-95761904D01*
X96261904Y-95904761D01*
X96214285Y-96000000D01*
X96214285Y-96095238D01*
X96452380Y-96047619D02*
X96404761Y-96142857D01*
X96309523Y-96238095D01*
X96119047Y-96285714D01*
X95785714Y-96285714D01*
X95595238Y-96238095D01*
X95500000Y-96142857D01*
X95452380Y-96047619D01*
X95452380Y-95857142D01*
X95500000Y-95761904D01*
X95595238Y-95666666D01*
X95785714Y-95619047D01*
X96119047Y-95619047D01*
X96309523Y-95666666D01*
X96404761Y-95761904D01*
X96452380Y-95857142D01*
X96452380Y-96047619D01*
X96452380Y-94666666D02*
X96452380Y-95238095D01*
X96452380Y-94952380D02*
X95452380Y-94952380D01*
X95595238Y-95047619D01*
X95690476Y-95142857D01*
X95738095Y-95238095D01*
X95785714Y-93809523D02*
X96452380Y-93809523D01*
X95404761Y-94047619D02*
X96119047Y-94285714D01*
X96119047Y-93666666D01*
%TO.C,Q13*%
X105547619Y-95171428D02*
X105500000Y-95266666D01*
X105404761Y-95361904D01*
X105261904Y-95504761D01*
X105214285Y-95600000D01*
X105214285Y-95695238D01*
X105452380Y-95647619D02*
X105404761Y-95742857D01*
X105309523Y-95838095D01*
X105119047Y-95885714D01*
X104785714Y-95885714D01*
X104595238Y-95838095D01*
X104500000Y-95742857D01*
X104452380Y-95647619D01*
X104452380Y-95457142D01*
X104500000Y-95361904D01*
X104595238Y-95266666D01*
X104785714Y-95219047D01*
X105119047Y-95219047D01*
X105309523Y-95266666D01*
X105404761Y-95361904D01*
X105452380Y-95457142D01*
X105452380Y-95647619D01*
X105452380Y-94266666D02*
X105452380Y-94838095D01*
X105452380Y-94552380D02*
X104452380Y-94552380D01*
X104595238Y-94647619D01*
X104690476Y-94742857D01*
X104738095Y-94838095D01*
X104452380Y-93933333D02*
X104452380Y-93314285D01*
X104833333Y-93647619D01*
X104833333Y-93504761D01*
X104880952Y-93409523D01*
X104928571Y-93361904D01*
X105023809Y-93314285D01*
X105261904Y-93314285D01*
X105357142Y-93361904D01*
X105404761Y-93409523D01*
X105452380Y-93504761D01*
X105452380Y-93790476D01*
X105404761Y-93885714D01*
X105357142Y-93933333D01*
%TO.C,Q10*%
X87297619Y-79321428D02*
X87250000Y-79416666D01*
X87154761Y-79511904D01*
X87011904Y-79654761D01*
X86964285Y-79750000D01*
X86964285Y-79845238D01*
X87202380Y-79797619D02*
X87154761Y-79892857D01*
X87059523Y-79988095D01*
X86869047Y-80035714D01*
X86535714Y-80035714D01*
X86345238Y-79988095D01*
X86250000Y-79892857D01*
X86202380Y-79797619D01*
X86202380Y-79607142D01*
X86250000Y-79511904D01*
X86345238Y-79416666D01*
X86535714Y-79369047D01*
X86869047Y-79369047D01*
X87059523Y-79416666D01*
X87154761Y-79511904D01*
X87202380Y-79607142D01*
X87202380Y-79797619D01*
X87202380Y-78416666D02*
X87202380Y-78988095D01*
X87202380Y-78702380D02*
X86202380Y-78702380D01*
X86345238Y-78797619D01*
X86440476Y-78892857D01*
X86488095Y-78988095D01*
X86202380Y-77797619D02*
X86202380Y-77702380D01*
X86250000Y-77607142D01*
X86297619Y-77559523D01*
X86392857Y-77511904D01*
X86583333Y-77464285D01*
X86821428Y-77464285D01*
X87011904Y-77511904D01*
X87107142Y-77559523D01*
X87154761Y-77607142D01*
X87202380Y-77702380D01*
X87202380Y-77797619D01*
X87154761Y-77892857D01*
X87107142Y-77940476D01*
X87011904Y-77988095D01*
X86821428Y-78035714D01*
X86583333Y-78035714D01*
X86392857Y-77988095D01*
X86297619Y-77940476D01*
X86250000Y-77892857D01*
X86202380Y-77797619D01*
%TO.C,Q9*%
X96547619Y-77095238D02*
X96500000Y-77190476D01*
X96404761Y-77285714D01*
X96261904Y-77428571D01*
X96214285Y-77523809D01*
X96214285Y-77619047D01*
X96452380Y-77571428D02*
X96404761Y-77666666D01*
X96309523Y-77761904D01*
X96119047Y-77809523D01*
X95785714Y-77809523D01*
X95595238Y-77761904D01*
X95500000Y-77666666D01*
X95452380Y-77571428D01*
X95452380Y-77380952D01*
X95500000Y-77285714D01*
X95595238Y-77190476D01*
X95785714Y-77142857D01*
X96119047Y-77142857D01*
X96309523Y-77190476D01*
X96404761Y-77285714D01*
X96452380Y-77380952D01*
X96452380Y-77571428D01*
X96452380Y-76666666D02*
X96452380Y-76476190D01*
X96404761Y-76380952D01*
X96357142Y-76333333D01*
X96214285Y-76238095D01*
X96023809Y-76190476D01*
X95642857Y-76190476D01*
X95547619Y-76238095D01*
X95500000Y-76285714D01*
X95452380Y-76380952D01*
X95452380Y-76571428D01*
X95500000Y-76666666D01*
X95547619Y-76714285D01*
X95642857Y-76761904D01*
X95880952Y-76761904D01*
X95976190Y-76714285D01*
X96023809Y-76666666D01*
X96071428Y-76571428D01*
X96071428Y-76380952D01*
X96023809Y-76285714D01*
X95976190Y-76238095D01*
X95880952Y-76190476D01*
%TO.C,Q6*%
X114647619Y-95195238D02*
X114600000Y-95290476D01*
X114504761Y-95385714D01*
X114361904Y-95528571D01*
X114314285Y-95623809D01*
X114314285Y-95719047D01*
X114552380Y-95671428D02*
X114504761Y-95766666D01*
X114409523Y-95861904D01*
X114219047Y-95909523D01*
X113885714Y-95909523D01*
X113695238Y-95861904D01*
X113600000Y-95766666D01*
X113552380Y-95671428D01*
X113552380Y-95480952D01*
X113600000Y-95385714D01*
X113695238Y-95290476D01*
X113885714Y-95242857D01*
X114219047Y-95242857D01*
X114409523Y-95290476D01*
X114504761Y-95385714D01*
X114552380Y-95480952D01*
X114552380Y-95671428D01*
X113552380Y-94385714D02*
X113552380Y-94576190D01*
X113600000Y-94671428D01*
X113647619Y-94719047D01*
X113790476Y-94814285D01*
X113980952Y-94861904D01*
X114361904Y-94861904D01*
X114457142Y-94814285D01*
X114504761Y-94766666D01*
X114552380Y-94671428D01*
X114552380Y-94480952D01*
X114504761Y-94385714D01*
X114457142Y-94338095D01*
X114361904Y-94290476D01*
X114123809Y-94290476D01*
X114028571Y-94338095D01*
X113980952Y-94385714D01*
X113933333Y-94480952D01*
X113933333Y-94671428D01*
X113980952Y-94766666D01*
X114028571Y-94814285D01*
X114123809Y-94861904D01*
%TO.C,Q5*%
X123247619Y-94995238D02*
X123200000Y-95090476D01*
X123104761Y-95185714D01*
X122961904Y-95328571D01*
X122914285Y-95423809D01*
X122914285Y-95519047D01*
X123152380Y-95471428D02*
X123104761Y-95566666D01*
X123009523Y-95661904D01*
X122819047Y-95709523D01*
X122485714Y-95709523D01*
X122295238Y-95661904D01*
X122200000Y-95566666D01*
X122152380Y-95471428D01*
X122152380Y-95280952D01*
X122200000Y-95185714D01*
X122295238Y-95090476D01*
X122485714Y-95042857D01*
X122819047Y-95042857D01*
X123009523Y-95090476D01*
X123104761Y-95185714D01*
X123152380Y-95280952D01*
X123152380Y-95471428D01*
X122152380Y-94138095D02*
X122152380Y-94614285D01*
X122628571Y-94661904D01*
X122580952Y-94614285D01*
X122533333Y-94519047D01*
X122533333Y-94280952D01*
X122580952Y-94185714D01*
X122628571Y-94138095D01*
X122723809Y-94090476D01*
X122961904Y-94090476D01*
X123057142Y-94138095D01*
X123104761Y-94185714D01*
X123152380Y-94280952D01*
X123152380Y-94519047D01*
X123104761Y-94614285D01*
X123057142Y-94661904D01*
%TO.C,Q2*%
X115047619Y-81095238D02*
X115000000Y-81190476D01*
X114904761Y-81285714D01*
X114761904Y-81428571D01*
X114714285Y-81523809D01*
X114714285Y-81619047D01*
X114952380Y-81571428D02*
X114904761Y-81666666D01*
X114809523Y-81761904D01*
X114619047Y-81809523D01*
X114285714Y-81809523D01*
X114095238Y-81761904D01*
X114000000Y-81666666D01*
X113952380Y-81571428D01*
X113952380Y-81380952D01*
X114000000Y-81285714D01*
X114095238Y-81190476D01*
X114285714Y-81142857D01*
X114619047Y-81142857D01*
X114809523Y-81190476D01*
X114904761Y-81285714D01*
X114952380Y-81380952D01*
X114952380Y-81571428D01*
X114047619Y-80761904D02*
X114000000Y-80714285D01*
X113952380Y-80619047D01*
X113952380Y-80380952D01*
X114000000Y-80285714D01*
X114047619Y-80238095D01*
X114142857Y-80190476D01*
X114238095Y-80190476D01*
X114380952Y-80238095D01*
X114952380Y-80809523D01*
X114952380Y-80190476D01*
%TO.C,Q1*%
X106047619Y-81095238D02*
X106000000Y-81190476D01*
X105904761Y-81285714D01*
X105761904Y-81428571D01*
X105714285Y-81523809D01*
X105714285Y-81619047D01*
X105952380Y-81571428D02*
X105904761Y-81666666D01*
X105809523Y-81761904D01*
X105619047Y-81809523D01*
X105285714Y-81809523D01*
X105095238Y-81761904D01*
X105000000Y-81666666D01*
X104952380Y-81571428D01*
X104952380Y-81380952D01*
X105000000Y-81285714D01*
X105095238Y-81190476D01*
X105285714Y-81142857D01*
X105619047Y-81142857D01*
X105809523Y-81190476D01*
X105904761Y-81285714D01*
X105952380Y-81380952D01*
X105952380Y-81571428D01*
X105952380Y-80190476D02*
X105952380Y-80761904D01*
X105952380Y-80476190D02*
X104952380Y-80476190D01*
X105095238Y-80571428D01*
X105190476Y-80666666D01*
X105238095Y-80761904D01*
%TO.C,U5*%
X73888095Y-88452380D02*
X73888095Y-89261904D01*
X73935714Y-89357142D01*
X73983333Y-89404761D01*
X74078571Y-89452380D01*
X74269047Y-89452380D01*
X74364285Y-89404761D01*
X74411904Y-89357142D01*
X74459523Y-89261904D01*
X74459523Y-88452380D01*
X75411904Y-88452380D02*
X74935714Y-88452380D01*
X74888095Y-88928571D01*
X74935714Y-88880952D01*
X75030952Y-88833333D01*
X75269047Y-88833333D01*
X75364285Y-88880952D01*
X75411904Y-88928571D01*
X75459523Y-89023809D01*
X75459523Y-89261904D01*
X75411904Y-89357142D01*
X75364285Y-89404761D01*
X75269047Y-89452380D01*
X75030952Y-89452380D01*
X74935714Y-89404761D01*
X74888095Y-89357142D01*
%TO.C,R9*%
X86833333Y-89452380D02*
X86500000Y-88976190D01*
X86261904Y-89452380D02*
X86261904Y-88452380D01*
X86642857Y-88452380D01*
X86738095Y-88500000D01*
X86785714Y-88547619D01*
X86833333Y-88642857D01*
X86833333Y-88785714D01*
X86785714Y-88880952D01*
X86738095Y-88928571D01*
X86642857Y-88976190D01*
X86261904Y-88976190D01*
X87309523Y-89452380D02*
X87500000Y-89452380D01*
X87595238Y-89404761D01*
X87642857Y-89357142D01*
X87738095Y-89214285D01*
X87785714Y-89023809D01*
X87785714Y-88642857D01*
X87738095Y-88547619D01*
X87690476Y-88500000D01*
X87595238Y-88452380D01*
X87404761Y-88452380D01*
X87309523Y-88500000D01*
X87261904Y-88547619D01*
X87214285Y-88642857D01*
X87214285Y-88880952D01*
X87261904Y-88976190D01*
X87309523Y-89023809D01*
X87404761Y-89071428D01*
X87595238Y-89071428D01*
X87690476Y-89023809D01*
X87738095Y-88976190D01*
X87785714Y-88880952D01*
%TO.C,U2*%
X73238095Y-100587380D02*
X73238095Y-101396904D01*
X73285714Y-101492142D01*
X73333333Y-101539761D01*
X73428571Y-101587380D01*
X73619047Y-101587380D01*
X73714285Y-101539761D01*
X73761904Y-101492142D01*
X73809523Y-101396904D01*
X73809523Y-100587380D01*
X74238095Y-100682619D02*
X74285714Y-100635000D01*
X74380952Y-100587380D01*
X74619047Y-100587380D01*
X74714285Y-100635000D01*
X74761904Y-100682619D01*
X74809523Y-100777857D01*
X74809523Y-100873095D01*
X74761904Y-101015952D01*
X74190476Y-101587380D01*
X74809523Y-101587380D01*
%TO.C,U9*%
X81392380Y-75531904D02*
X82201904Y-75531904D01*
X82297142Y-75484285D01*
X82344761Y-75436666D01*
X82392380Y-75341428D01*
X82392380Y-75150952D01*
X82344761Y-75055714D01*
X82297142Y-75008095D01*
X82201904Y-74960476D01*
X81392380Y-74960476D01*
X82392380Y-74436666D02*
X82392380Y-74246190D01*
X82344761Y-74150952D01*
X82297142Y-74103333D01*
X82154285Y-74008095D01*
X81963809Y-73960476D01*
X81582857Y-73960476D01*
X81487619Y-74008095D01*
X81440000Y-74055714D01*
X81392380Y-74150952D01*
X81392380Y-74341428D01*
X81440000Y-74436666D01*
X81487619Y-74484285D01*
X81582857Y-74531904D01*
X81820952Y-74531904D01*
X81916190Y-74484285D01*
X81963809Y-74436666D01*
X82011428Y-74341428D01*
X82011428Y-74150952D01*
X81963809Y-74055714D01*
X81916190Y-74008095D01*
X81820952Y-73960476D01*
%TO.C,M1_S1*%
X89357142Y-25952380D02*
X89357142Y-24952380D01*
X89690476Y-25666666D01*
X90023809Y-24952380D01*
X90023809Y-25952380D01*
X91023809Y-25952380D02*
X90452380Y-25952380D01*
X90738095Y-25952380D02*
X90738095Y-24952380D01*
X90642857Y-25095238D01*
X90547619Y-25190476D01*
X90452380Y-25238095D01*
X91214285Y-26047619D02*
X91976190Y-26047619D01*
X92166666Y-25904761D02*
X92309523Y-25952380D01*
X92547619Y-25952380D01*
X92642857Y-25904761D01*
X92690476Y-25857142D01*
X92738095Y-25761904D01*
X92738095Y-25666666D01*
X92690476Y-25571428D01*
X92642857Y-25523809D01*
X92547619Y-25476190D01*
X92357142Y-25428571D01*
X92261904Y-25380952D01*
X92214285Y-25333333D01*
X92166666Y-25238095D01*
X92166666Y-25142857D01*
X92214285Y-25047619D01*
X92261904Y-25000000D01*
X92357142Y-24952380D01*
X92595238Y-24952380D01*
X92738095Y-25000000D01*
X93690476Y-25952380D02*
X93119047Y-25952380D01*
X93404761Y-25952380D02*
X93404761Y-24952380D01*
X93309523Y-25095238D01*
X93214285Y-25190476D01*
X93119047Y-25238095D01*
%TO.C,M1_S2*%
X99357142Y-25952380D02*
X99357142Y-24952380D01*
X99690476Y-25666666D01*
X100023809Y-24952380D01*
X100023809Y-25952380D01*
X101023809Y-25952380D02*
X100452380Y-25952380D01*
X100738095Y-25952380D02*
X100738095Y-24952380D01*
X100642857Y-25095238D01*
X100547619Y-25190476D01*
X100452380Y-25238095D01*
X101214285Y-26047619D02*
X101976190Y-26047619D01*
X102166666Y-25904761D02*
X102309523Y-25952380D01*
X102547619Y-25952380D01*
X102642857Y-25904761D01*
X102690476Y-25857142D01*
X102738095Y-25761904D01*
X102738095Y-25666666D01*
X102690476Y-25571428D01*
X102642857Y-25523809D01*
X102547619Y-25476190D01*
X102357142Y-25428571D01*
X102261904Y-25380952D01*
X102214285Y-25333333D01*
X102166666Y-25238095D01*
X102166666Y-25142857D01*
X102214285Y-25047619D01*
X102261904Y-25000000D01*
X102357142Y-24952380D01*
X102595238Y-24952380D01*
X102738095Y-25000000D01*
X103119047Y-25047619D02*
X103166666Y-25000000D01*
X103261904Y-24952380D01*
X103500000Y-24952380D01*
X103595238Y-25000000D01*
X103642857Y-25047619D01*
X103690476Y-25142857D01*
X103690476Y-25238095D01*
X103642857Y-25380952D01*
X103071428Y-25952380D01*
X103690476Y-25952380D01*
%TO.C,M2_S1*%
X109857142Y-25952380D02*
X109857142Y-24952380D01*
X110190476Y-25666666D01*
X110523809Y-24952380D01*
X110523809Y-25952380D01*
X110952380Y-25047619D02*
X111000000Y-25000000D01*
X111095238Y-24952380D01*
X111333333Y-24952380D01*
X111428571Y-25000000D01*
X111476190Y-25047619D01*
X111523809Y-25142857D01*
X111523809Y-25238095D01*
X111476190Y-25380952D01*
X110904761Y-25952380D01*
X111523809Y-25952380D01*
X111714285Y-26047619D02*
X112476190Y-26047619D01*
X112666666Y-25904761D02*
X112809523Y-25952380D01*
X113047619Y-25952380D01*
X113142857Y-25904761D01*
X113190476Y-25857142D01*
X113238095Y-25761904D01*
X113238095Y-25666666D01*
X113190476Y-25571428D01*
X113142857Y-25523809D01*
X113047619Y-25476190D01*
X112857142Y-25428571D01*
X112761904Y-25380952D01*
X112714285Y-25333333D01*
X112666666Y-25238095D01*
X112666666Y-25142857D01*
X112714285Y-25047619D01*
X112761904Y-25000000D01*
X112857142Y-24952380D01*
X113095238Y-24952380D01*
X113238095Y-25000000D01*
X114190476Y-25952380D02*
X113619047Y-25952380D01*
X113904761Y-25952380D02*
X113904761Y-24952380D01*
X113809523Y-25095238D01*
X113714285Y-25190476D01*
X113619047Y-25238095D01*
%TO.C,M2_S2*%
X119857142Y-25952380D02*
X119857142Y-24952380D01*
X120190476Y-25666666D01*
X120523809Y-24952380D01*
X120523809Y-25952380D01*
X120952380Y-25047619D02*
X121000000Y-25000000D01*
X121095238Y-24952380D01*
X121333333Y-24952380D01*
X121428571Y-25000000D01*
X121476190Y-25047619D01*
X121523809Y-25142857D01*
X121523809Y-25238095D01*
X121476190Y-25380952D01*
X120904761Y-25952380D01*
X121523809Y-25952380D01*
X121714285Y-26047619D02*
X122476190Y-26047619D01*
X122666666Y-25904761D02*
X122809523Y-25952380D01*
X123047619Y-25952380D01*
X123142857Y-25904761D01*
X123190476Y-25857142D01*
X123238095Y-25761904D01*
X123238095Y-25666666D01*
X123190476Y-25571428D01*
X123142857Y-25523809D01*
X123047619Y-25476190D01*
X122857142Y-25428571D01*
X122761904Y-25380952D01*
X122714285Y-25333333D01*
X122666666Y-25238095D01*
X122666666Y-25142857D01*
X122714285Y-25047619D01*
X122761904Y-25000000D01*
X122857142Y-24952380D01*
X123095238Y-24952380D01*
X123238095Y-25000000D01*
X123619047Y-25047619D02*
X123666666Y-25000000D01*
X123761904Y-24952380D01*
X124000000Y-24952380D01*
X124095238Y-25000000D01*
X124142857Y-25047619D01*
X124190476Y-25142857D01*
X124190476Y-25238095D01*
X124142857Y-25380952D01*
X123571428Y-25952380D01*
X124190476Y-25952380D01*
%TO.C,C23*%
X75357142Y-77107142D02*
X75309523Y-77154761D01*
X75166666Y-77202380D01*
X75071428Y-77202380D01*
X74928571Y-77154761D01*
X74833333Y-77059523D01*
X74785714Y-76964285D01*
X74738095Y-76773809D01*
X74738095Y-76630952D01*
X74785714Y-76440476D01*
X74833333Y-76345238D01*
X74928571Y-76250000D01*
X75071428Y-76202380D01*
X75166666Y-76202380D01*
X75309523Y-76250000D01*
X75357142Y-76297619D01*
X75738095Y-76297619D02*
X75785714Y-76250000D01*
X75880952Y-76202380D01*
X76119047Y-76202380D01*
X76214285Y-76250000D01*
X76261904Y-76297619D01*
X76309523Y-76392857D01*
X76309523Y-76488095D01*
X76261904Y-76630952D01*
X75690476Y-77202380D01*
X76309523Y-77202380D01*
X76642857Y-76202380D02*
X77261904Y-76202380D01*
X76928571Y-76583333D01*
X77071428Y-76583333D01*
X77166666Y-76630952D01*
X77214285Y-76678571D01*
X77261904Y-76773809D01*
X77261904Y-77011904D01*
X77214285Y-77107142D01*
X77166666Y-77154761D01*
X77071428Y-77202380D01*
X76785714Y-77202380D01*
X76690476Y-77154761D01*
X76642857Y-77107142D01*
%TO.C,D9*%
X85761904Y-96587380D02*
X85761904Y-95587380D01*
X86000000Y-95587380D01*
X86142857Y-95635000D01*
X86238095Y-95730238D01*
X86285714Y-95825476D01*
X86333333Y-96015952D01*
X86333333Y-96158809D01*
X86285714Y-96349285D01*
X86238095Y-96444523D01*
X86142857Y-96539761D01*
X86000000Y-96587380D01*
X85761904Y-96587380D01*
X86809523Y-96587380D02*
X87000000Y-96587380D01*
X87095238Y-96539761D01*
X87142857Y-96492142D01*
X87238095Y-96349285D01*
X87285714Y-96158809D01*
X87285714Y-95777857D01*
X87238095Y-95682619D01*
X87190476Y-95635000D01*
X87095238Y-95587380D01*
X86904761Y-95587380D01*
X86809523Y-95635000D01*
X86761904Y-95682619D01*
X86714285Y-95777857D01*
X86714285Y-96015952D01*
X86761904Y-96111190D01*
X86809523Y-96158809D01*
X86904761Y-96206428D01*
X87095238Y-96206428D01*
X87190476Y-96158809D01*
X87238095Y-96111190D01*
X87285714Y-96015952D01*
%TO.C,R18*%
X56111904Y-98764285D02*
X55730952Y-99030952D01*
X56111904Y-99221428D02*
X55311904Y-99221428D01*
X55311904Y-98916666D01*
X55350000Y-98840476D01*
X55388095Y-98802380D01*
X55464285Y-98764285D01*
X55578571Y-98764285D01*
X55654761Y-98802380D01*
X55692857Y-98840476D01*
X55730952Y-98916666D01*
X55730952Y-99221428D01*
X56111904Y-98002380D02*
X56111904Y-98459523D01*
X56111904Y-98230952D02*
X55311904Y-98230952D01*
X55426190Y-98307142D01*
X55502380Y-98383333D01*
X55540476Y-98459523D01*
X55654761Y-97545238D02*
X55616666Y-97621428D01*
X55578571Y-97659523D01*
X55502380Y-97697619D01*
X55464285Y-97697619D01*
X55388095Y-97659523D01*
X55350000Y-97621428D01*
X55311904Y-97545238D01*
X55311904Y-97392857D01*
X55350000Y-97316666D01*
X55388095Y-97278571D01*
X55464285Y-97240476D01*
X55502380Y-97240476D01*
X55578571Y-97278571D01*
X55616666Y-97316666D01*
X55654761Y-97392857D01*
X55654761Y-97545238D01*
X55692857Y-97621428D01*
X55730952Y-97659523D01*
X55807142Y-97697619D01*
X55959523Y-97697619D01*
X56035714Y-97659523D01*
X56073809Y-97621428D01*
X56111904Y-97545238D01*
X56111904Y-97392857D01*
X56073809Y-97316666D01*
X56035714Y-97278571D01*
X55959523Y-97240476D01*
X55807142Y-97240476D01*
X55730952Y-97278571D01*
X55692857Y-97316666D01*
X55654761Y-97392857D01*
%TO.C,C36*%
X54800000Y-86500000D02*
X54766666Y-86533333D01*
X54666666Y-86566666D01*
X54600000Y-86566666D01*
X54500000Y-86533333D01*
X54433333Y-86466666D01*
X54400000Y-86400000D01*
X54366666Y-86266666D01*
X54366666Y-86166666D01*
X54400000Y-86033333D01*
X54433333Y-85966666D01*
X54500000Y-85900000D01*
X54600000Y-85866666D01*
X54666666Y-85866666D01*
X54766666Y-85900000D01*
X54800000Y-85933333D01*
X55033333Y-85866666D02*
X55466666Y-85866666D01*
X55233333Y-86133333D01*
X55333333Y-86133333D01*
X55400000Y-86166666D01*
X55433333Y-86200000D01*
X55466666Y-86266666D01*
X55466666Y-86433333D01*
X55433333Y-86500000D01*
X55400000Y-86533333D01*
X55333333Y-86566666D01*
X55133333Y-86566666D01*
X55066666Y-86533333D01*
X55033333Y-86500000D01*
X56066666Y-85866666D02*
X55933333Y-85866666D01*
X55866666Y-85900000D01*
X55833333Y-85933333D01*
X55766666Y-86033333D01*
X55733333Y-86166666D01*
X55733333Y-86433333D01*
X55766666Y-86500000D01*
X55800000Y-86533333D01*
X55866666Y-86566666D01*
X56000000Y-86566666D01*
X56066666Y-86533333D01*
X56100000Y-86500000D01*
X56133333Y-86433333D01*
X56133333Y-86266666D01*
X56100000Y-86200000D01*
X56066666Y-86166666D01*
X56000000Y-86133333D01*
X55866666Y-86133333D01*
X55800000Y-86166666D01*
X55766666Y-86200000D01*
X55733333Y-86266666D01*
%TO.C,D13*%
X86785714Y-86952380D02*
X86785714Y-85952380D01*
X87023809Y-85952380D01*
X87166666Y-86000000D01*
X87261904Y-86095238D01*
X87309523Y-86190476D01*
X87357142Y-86380952D01*
X87357142Y-86523809D01*
X87309523Y-86714285D01*
X87261904Y-86809523D01*
X87166666Y-86904761D01*
X87023809Y-86952380D01*
X86785714Y-86952380D01*
X88309523Y-86952380D02*
X87738095Y-86952380D01*
X88023809Y-86952380D02*
X88023809Y-85952380D01*
X87928571Y-86095238D01*
X87833333Y-86190476D01*
X87738095Y-86238095D01*
X88642857Y-85952380D02*
X89261904Y-85952380D01*
X88928571Y-86333333D01*
X89071428Y-86333333D01*
X89166666Y-86380952D01*
X89214285Y-86428571D01*
X89261904Y-86523809D01*
X89261904Y-86761904D01*
X89214285Y-86857142D01*
X89166666Y-86904761D01*
X89071428Y-86952380D01*
X88785714Y-86952380D01*
X88690476Y-86904761D01*
X88642857Y-86857142D01*
%TO.C,C35*%
X55300000Y-85000000D02*
X55266666Y-85033333D01*
X55166666Y-85066666D01*
X55100000Y-85066666D01*
X55000000Y-85033333D01*
X54933333Y-84966666D01*
X54900000Y-84900000D01*
X54866666Y-84766666D01*
X54866666Y-84666666D01*
X54900000Y-84533333D01*
X54933333Y-84466666D01*
X55000000Y-84400000D01*
X55100000Y-84366666D01*
X55166666Y-84366666D01*
X55266666Y-84400000D01*
X55300000Y-84433333D01*
X55533333Y-84366666D02*
X55966666Y-84366666D01*
X55733333Y-84633333D01*
X55833333Y-84633333D01*
X55900000Y-84666666D01*
X55933333Y-84700000D01*
X55966666Y-84766666D01*
X55966666Y-84933333D01*
X55933333Y-85000000D01*
X55900000Y-85033333D01*
X55833333Y-85066666D01*
X55633333Y-85066666D01*
X55566666Y-85033333D01*
X55533333Y-85000000D01*
X56600000Y-84366666D02*
X56266666Y-84366666D01*
X56233333Y-84700000D01*
X56266666Y-84666666D01*
X56333333Y-84633333D01*
X56500000Y-84633333D01*
X56566666Y-84666666D01*
X56600000Y-84700000D01*
X56633333Y-84766666D01*
X56633333Y-84933333D01*
X56600000Y-85000000D01*
X56566666Y-85033333D01*
X56500000Y-85066666D01*
X56333333Y-85066666D01*
X56266666Y-85033333D01*
X56233333Y-85000000D01*
%TO.C,C22*%
X47857142Y-68357142D02*
X47809523Y-68404761D01*
X47666666Y-68452380D01*
X47571428Y-68452380D01*
X47428571Y-68404761D01*
X47333333Y-68309523D01*
X47285714Y-68214285D01*
X47238095Y-68023809D01*
X47238095Y-67880952D01*
X47285714Y-67690476D01*
X47333333Y-67595238D01*
X47428571Y-67500000D01*
X47571428Y-67452380D01*
X47666666Y-67452380D01*
X47809523Y-67500000D01*
X47857142Y-67547619D01*
X48238095Y-67547619D02*
X48285714Y-67500000D01*
X48380952Y-67452380D01*
X48619047Y-67452380D01*
X48714285Y-67500000D01*
X48761904Y-67547619D01*
X48809523Y-67642857D01*
X48809523Y-67738095D01*
X48761904Y-67880952D01*
X48190476Y-68452380D01*
X48809523Y-68452380D01*
X49190476Y-67547619D02*
X49238095Y-67500000D01*
X49333333Y-67452380D01*
X49571428Y-67452380D01*
X49666666Y-67500000D01*
X49714285Y-67547619D01*
X49761904Y-67642857D01*
X49761904Y-67738095D01*
X49714285Y-67880952D01*
X49142857Y-68452380D01*
X49761904Y-68452380D01*
%TO.C,VIN1*%
X124928571Y-72452380D02*
X125261904Y-73452380D01*
X125595238Y-72452380D01*
X125928571Y-73452380D02*
X125928571Y-72452380D01*
X126404761Y-73452380D02*
X126404761Y-72452380D01*
X126976190Y-73452380D01*
X126976190Y-72452380D01*
X127976190Y-73452380D02*
X127404761Y-73452380D01*
X127690476Y-73452380D02*
X127690476Y-72452380D01*
X127595238Y-72595238D01*
X127500000Y-72690476D01*
X127404761Y-72738095D01*
%TO.C,C19*%
X66857142Y-59857142D02*
X66809523Y-59904761D01*
X66666666Y-59952380D01*
X66571428Y-59952380D01*
X66428571Y-59904761D01*
X66333333Y-59809523D01*
X66285714Y-59714285D01*
X66238095Y-59523809D01*
X66238095Y-59380952D01*
X66285714Y-59190476D01*
X66333333Y-59095238D01*
X66428571Y-59000000D01*
X66571428Y-58952380D01*
X66666666Y-58952380D01*
X66809523Y-59000000D01*
X66857142Y-59047619D01*
X67809523Y-59952380D02*
X67238095Y-59952380D01*
X67523809Y-59952380D02*
X67523809Y-58952380D01*
X67428571Y-59095238D01*
X67333333Y-59190476D01*
X67238095Y-59238095D01*
X68285714Y-59952380D02*
X68476190Y-59952380D01*
X68571428Y-59904761D01*
X68619047Y-59857142D01*
X68714285Y-59714285D01*
X68761904Y-59523809D01*
X68761904Y-59142857D01*
X68714285Y-59047619D01*
X68666666Y-59000000D01*
X68571428Y-58952380D01*
X68380952Y-58952380D01*
X68285714Y-59000000D01*
X68238095Y-59047619D01*
X68190476Y-59142857D01*
X68190476Y-59380952D01*
X68238095Y-59476190D01*
X68285714Y-59523809D01*
X68380952Y-59571428D01*
X68571428Y-59571428D01*
X68666666Y-59523809D01*
X68714285Y-59476190D01*
X68761904Y-59380952D01*
%TO.C,C17*%
X58257142Y-53957142D02*
X58209523Y-54004761D01*
X58066666Y-54052380D01*
X57971428Y-54052380D01*
X57828571Y-54004761D01*
X57733333Y-53909523D01*
X57685714Y-53814285D01*
X57638095Y-53623809D01*
X57638095Y-53480952D01*
X57685714Y-53290476D01*
X57733333Y-53195238D01*
X57828571Y-53100000D01*
X57971428Y-53052380D01*
X58066666Y-53052380D01*
X58209523Y-53100000D01*
X58257142Y-53147619D01*
X59209523Y-54052380D02*
X58638095Y-54052380D01*
X58923809Y-54052380D02*
X58923809Y-53052380D01*
X58828571Y-53195238D01*
X58733333Y-53290476D01*
X58638095Y-53338095D01*
X59542857Y-53052380D02*
X60209523Y-53052380D01*
X59780952Y-54052380D01*
%TO.C,C26*%
X81857142Y-80642857D02*
X81904761Y-80690476D01*
X81952380Y-80833333D01*
X81952380Y-80928571D01*
X81904761Y-81071428D01*
X81809523Y-81166666D01*
X81714285Y-81214285D01*
X81523809Y-81261904D01*
X81380952Y-81261904D01*
X81190476Y-81214285D01*
X81095238Y-81166666D01*
X81000000Y-81071428D01*
X80952380Y-80928571D01*
X80952380Y-80833333D01*
X81000000Y-80690476D01*
X81047619Y-80642857D01*
X81047619Y-80261904D02*
X81000000Y-80214285D01*
X80952380Y-80119047D01*
X80952380Y-79880952D01*
X81000000Y-79785714D01*
X81047619Y-79738095D01*
X81142857Y-79690476D01*
X81238095Y-79690476D01*
X81380952Y-79738095D01*
X81952380Y-80309523D01*
X81952380Y-79690476D01*
X80952380Y-78833333D02*
X80952380Y-79023809D01*
X81000000Y-79119047D01*
X81047619Y-79166666D01*
X81190476Y-79261904D01*
X81380952Y-79309523D01*
X81761904Y-79309523D01*
X81857142Y-79261904D01*
X81904761Y-79214285D01*
X81952380Y-79119047D01*
X81952380Y-78928571D01*
X81904761Y-78833333D01*
X81857142Y-78785714D01*
X81761904Y-78738095D01*
X81523809Y-78738095D01*
X81428571Y-78785714D01*
X81380952Y-78833333D01*
X81333333Y-78928571D01*
X81333333Y-79119047D01*
X81380952Y-79214285D01*
X81428571Y-79261904D01*
X81523809Y-79309523D01*
%TO.C,D7*%
X86261904Y-38452380D02*
X86261904Y-37452380D01*
X86500000Y-37452380D01*
X86642857Y-37500000D01*
X86738095Y-37595238D01*
X86785714Y-37690476D01*
X86833333Y-37880952D01*
X86833333Y-38023809D01*
X86785714Y-38214285D01*
X86738095Y-38309523D01*
X86642857Y-38404761D01*
X86500000Y-38452380D01*
X86261904Y-38452380D01*
X87166666Y-37452380D02*
X87833333Y-37452380D01*
X87404761Y-38452380D01*
%TO.C,C39*%
X51357142Y-54142857D02*
X51404761Y-54190476D01*
X51452380Y-54333333D01*
X51452380Y-54428571D01*
X51404761Y-54571428D01*
X51309523Y-54666666D01*
X51214285Y-54714285D01*
X51023809Y-54761904D01*
X50880952Y-54761904D01*
X50690476Y-54714285D01*
X50595238Y-54666666D01*
X50500000Y-54571428D01*
X50452380Y-54428571D01*
X50452380Y-54333333D01*
X50500000Y-54190476D01*
X50547619Y-54142857D01*
X50452380Y-53809523D02*
X50452380Y-53190476D01*
X50833333Y-53523809D01*
X50833333Y-53380952D01*
X50880952Y-53285714D01*
X50928571Y-53238095D01*
X51023809Y-53190476D01*
X51261904Y-53190476D01*
X51357142Y-53238095D01*
X51404761Y-53285714D01*
X51452380Y-53380952D01*
X51452380Y-53666666D01*
X51404761Y-53761904D01*
X51357142Y-53809523D01*
X51452380Y-52714285D02*
X51452380Y-52523809D01*
X51404761Y-52428571D01*
X51357142Y-52380952D01*
X51214285Y-52285714D01*
X51023809Y-52238095D01*
X50642857Y-52238095D01*
X50547619Y-52285714D01*
X50500000Y-52333333D01*
X50452380Y-52428571D01*
X50452380Y-52619047D01*
X50500000Y-52714285D01*
X50547619Y-52761904D01*
X50642857Y-52809523D01*
X50880952Y-52809523D01*
X50976190Y-52761904D01*
X51023809Y-52714285D01*
X51071428Y-52619047D01*
X51071428Y-52428571D01*
X51023809Y-52333333D01*
X50976190Y-52285714D01*
X50880952Y-52238095D01*
%TO.C,R12*%
X52257142Y-73752380D02*
X51923809Y-73276190D01*
X51685714Y-73752380D02*
X51685714Y-72752380D01*
X52066666Y-72752380D01*
X52161904Y-72800000D01*
X52209523Y-72847619D01*
X52257142Y-72942857D01*
X52257142Y-73085714D01*
X52209523Y-73180952D01*
X52161904Y-73228571D01*
X52066666Y-73276190D01*
X51685714Y-73276190D01*
X53209523Y-73752380D02*
X52638095Y-73752380D01*
X52923809Y-73752380D02*
X52923809Y-72752380D01*
X52828571Y-72895238D01*
X52733333Y-72990476D01*
X52638095Y-73038095D01*
X53590476Y-72847619D02*
X53638095Y-72800000D01*
X53733333Y-72752380D01*
X53971428Y-72752380D01*
X54066666Y-72800000D01*
X54114285Y-72847619D01*
X54161904Y-72942857D01*
X54161904Y-73038095D01*
X54114285Y-73180952D01*
X53542857Y-73752380D01*
X54161904Y-73752380D01*
%TO.C,R7*%
X83983333Y-80022380D02*
X83650000Y-79546190D01*
X83411904Y-80022380D02*
X83411904Y-79022380D01*
X83792857Y-79022380D01*
X83888095Y-79070000D01*
X83935714Y-79117619D01*
X83983333Y-79212857D01*
X83983333Y-79355714D01*
X83935714Y-79450952D01*
X83888095Y-79498571D01*
X83792857Y-79546190D01*
X83411904Y-79546190D01*
X84316666Y-79022380D02*
X84983333Y-79022380D01*
X84554761Y-80022380D01*
D11*
%TO.C,Rvoltage4*%
X58435714Y-90635714D02*
X58335714Y-90492857D01*
X58264285Y-90635714D02*
X58264285Y-90335714D01*
X58378571Y-90335714D01*
X58407142Y-90350000D01*
X58421428Y-90364285D01*
X58435714Y-90392857D01*
X58435714Y-90435714D01*
X58421428Y-90464285D01*
X58407142Y-90478571D01*
X58378571Y-90492857D01*
X58264285Y-90492857D01*
X58535714Y-90435714D02*
X58607142Y-90635714D01*
X58678571Y-90435714D01*
X58835714Y-90635714D02*
X58807142Y-90621428D01*
X58792857Y-90607142D01*
X58778571Y-90578571D01*
X58778571Y-90492857D01*
X58792857Y-90464285D01*
X58807142Y-90450000D01*
X58835714Y-90435714D01*
X58878571Y-90435714D01*
X58907142Y-90450000D01*
X58921428Y-90464285D01*
X58935714Y-90492857D01*
X58935714Y-90578571D01*
X58921428Y-90607142D01*
X58907142Y-90621428D01*
X58878571Y-90635714D01*
X58835714Y-90635714D01*
X59107142Y-90635714D02*
X59078571Y-90621428D01*
X59064285Y-90592857D01*
X59064285Y-90335714D01*
X59178571Y-90435714D02*
X59292857Y-90435714D01*
X59221428Y-90335714D02*
X59221428Y-90592857D01*
X59235714Y-90621428D01*
X59264285Y-90635714D01*
X59292857Y-90635714D01*
X59521428Y-90635714D02*
X59521428Y-90478571D01*
X59507142Y-90450000D01*
X59478571Y-90435714D01*
X59421428Y-90435714D01*
X59392857Y-90450000D01*
X59521428Y-90621428D02*
X59492857Y-90635714D01*
X59421428Y-90635714D01*
X59392857Y-90621428D01*
X59378571Y-90592857D01*
X59378571Y-90564285D01*
X59392857Y-90535714D01*
X59421428Y-90521428D01*
X59492857Y-90521428D01*
X59521428Y-90507142D01*
X59792857Y-90435714D02*
X59792857Y-90678571D01*
X59778571Y-90707142D01*
X59764285Y-90721428D01*
X59735714Y-90735714D01*
X59692857Y-90735714D01*
X59664285Y-90721428D01*
X59792857Y-90621428D02*
X59764285Y-90635714D01*
X59707142Y-90635714D01*
X59678571Y-90621428D01*
X59664285Y-90607142D01*
X59650000Y-90578571D01*
X59650000Y-90492857D01*
X59664285Y-90464285D01*
X59678571Y-90450000D01*
X59707142Y-90435714D01*
X59764285Y-90435714D01*
X59792857Y-90450000D01*
X60050000Y-90621428D02*
X60021428Y-90635714D01*
X59964285Y-90635714D01*
X59935714Y-90621428D01*
X59921428Y-90592857D01*
X59921428Y-90478571D01*
X59935714Y-90450000D01*
X59964285Y-90435714D01*
X60021428Y-90435714D01*
X60050000Y-90450000D01*
X60064285Y-90478571D01*
X60064285Y-90507142D01*
X59921428Y-90535714D01*
X60321428Y-90435714D02*
X60321428Y-90635714D01*
X60250000Y-90321428D02*
X60178571Y-90535714D01*
X60364285Y-90535714D01*
D10*
%TO.C,M1-1*%
X124595238Y-37452380D02*
X124595238Y-36452380D01*
X124928571Y-37166666D01*
X125261904Y-36452380D01*
X125261904Y-37452380D01*
X126261904Y-37452380D02*
X125690476Y-37452380D01*
X125976190Y-37452380D02*
X125976190Y-36452380D01*
X125880952Y-36595238D01*
X125785714Y-36690476D01*
X125690476Y-36738095D01*
X126690476Y-37071428D02*
X127452380Y-37071428D01*
X128452380Y-37452380D02*
X127880952Y-37452380D01*
X128166666Y-37452380D02*
X128166666Y-36452380D01*
X128071428Y-36595238D01*
X127976190Y-36690476D01*
X127880952Y-36738095D01*
%TO.C,R21*%
X60452380Y-57642857D02*
X59976190Y-57976190D01*
X60452380Y-58214285D02*
X59452380Y-58214285D01*
X59452380Y-57833333D01*
X59500000Y-57738095D01*
X59547619Y-57690476D01*
X59642857Y-57642857D01*
X59785714Y-57642857D01*
X59880952Y-57690476D01*
X59928571Y-57738095D01*
X59976190Y-57833333D01*
X59976190Y-58214285D01*
X59547619Y-57261904D02*
X59500000Y-57214285D01*
X59452380Y-57119047D01*
X59452380Y-56880952D01*
X59500000Y-56785714D01*
X59547619Y-56738095D01*
X59642857Y-56690476D01*
X59738095Y-56690476D01*
X59880952Y-56738095D01*
X60452380Y-57309523D01*
X60452380Y-56690476D01*
X60452380Y-55738095D02*
X60452380Y-56309523D01*
X60452380Y-56023809D02*
X59452380Y-56023809D01*
X59595238Y-56119047D01*
X59690476Y-56214285D01*
X59738095Y-56309523D01*
%TO.C,C28*%
X69357142Y-92642857D02*
X69404761Y-92690476D01*
X69452380Y-92833333D01*
X69452380Y-92928571D01*
X69404761Y-93071428D01*
X69309523Y-93166666D01*
X69214285Y-93214285D01*
X69023809Y-93261904D01*
X68880952Y-93261904D01*
X68690476Y-93214285D01*
X68595238Y-93166666D01*
X68500000Y-93071428D01*
X68452380Y-92928571D01*
X68452380Y-92833333D01*
X68500000Y-92690476D01*
X68547619Y-92642857D01*
X68547619Y-92261904D02*
X68500000Y-92214285D01*
X68452380Y-92119047D01*
X68452380Y-91880952D01*
X68500000Y-91785714D01*
X68547619Y-91738095D01*
X68642857Y-91690476D01*
X68738095Y-91690476D01*
X68880952Y-91738095D01*
X69452380Y-92309523D01*
X69452380Y-91690476D01*
X68880952Y-91119047D02*
X68833333Y-91214285D01*
X68785714Y-91261904D01*
X68690476Y-91309523D01*
X68642857Y-91309523D01*
X68547619Y-91261904D01*
X68500000Y-91214285D01*
X68452380Y-91119047D01*
X68452380Y-90928571D01*
X68500000Y-90833333D01*
X68547619Y-90785714D01*
X68642857Y-90738095D01*
X68690476Y-90738095D01*
X68785714Y-90785714D01*
X68833333Y-90833333D01*
X68880952Y-90928571D01*
X68880952Y-91119047D01*
X68928571Y-91214285D01*
X68976190Y-91261904D01*
X69071428Y-91309523D01*
X69261904Y-91309523D01*
X69357142Y-91261904D01*
X69404761Y-91214285D01*
X69452380Y-91119047D01*
X69452380Y-90928571D01*
X69404761Y-90833333D01*
X69357142Y-90785714D01*
X69261904Y-90738095D01*
X69071428Y-90738095D01*
X68976190Y-90785714D01*
X68928571Y-90833333D01*
X68880952Y-90928571D01*
%TO.C,R23*%
X82957142Y-28352380D02*
X82623809Y-27876190D01*
X82385714Y-28352380D02*
X82385714Y-27352380D01*
X82766666Y-27352380D01*
X82861904Y-27400000D01*
X82909523Y-27447619D01*
X82957142Y-27542857D01*
X82957142Y-27685714D01*
X82909523Y-27780952D01*
X82861904Y-27828571D01*
X82766666Y-27876190D01*
X82385714Y-27876190D01*
X83338095Y-27447619D02*
X83385714Y-27400000D01*
X83480952Y-27352380D01*
X83719047Y-27352380D01*
X83814285Y-27400000D01*
X83861904Y-27447619D01*
X83909523Y-27542857D01*
X83909523Y-27638095D01*
X83861904Y-27780952D01*
X83290476Y-28352380D01*
X83909523Y-28352380D01*
X84242857Y-27352380D02*
X84861904Y-27352380D01*
X84528571Y-27733333D01*
X84671428Y-27733333D01*
X84766666Y-27780952D01*
X84814285Y-27828571D01*
X84861904Y-27923809D01*
X84861904Y-28161904D01*
X84814285Y-28257142D01*
X84766666Y-28304761D01*
X84671428Y-28352380D01*
X84385714Y-28352380D01*
X84290476Y-28304761D01*
X84242857Y-28257142D01*
%TO.C,D2*%
X85761904Y-51452380D02*
X85761904Y-50452380D01*
X86000000Y-50452380D01*
X86142857Y-50500000D01*
X86238095Y-50595238D01*
X86285714Y-50690476D01*
X86333333Y-50880952D01*
X86333333Y-51023809D01*
X86285714Y-51214285D01*
X86238095Y-51309523D01*
X86142857Y-51404761D01*
X86000000Y-51452380D01*
X85761904Y-51452380D01*
X86714285Y-50547619D02*
X86761904Y-50500000D01*
X86857142Y-50452380D01*
X87095238Y-50452380D01*
X87190476Y-50500000D01*
X87238095Y-50547619D01*
X87285714Y-50642857D01*
X87285714Y-50738095D01*
X87238095Y-50880952D01*
X86666666Y-51452380D01*
X87285714Y-51452380D01*
%TO.C,C15*%
X47857142Y-66857142D02*
X47809523Y-66904761D01*
X47666666Y-66952380D01*
X47571428Y-66952380D01*
X47428571Y-66904761D01*
X47333333Y-66809523D01*
X47285714Y-66714285D01*
X47238095Y-66523809D01*
X47238095Y-66380952D01*
X47285714Y-66190476D01*
X47333333Y-66095238D01*
X47428571Y-66000000D01*
X47571428Y-65952380D01*
X47666666Y-65952380D01*
X47809523Y-66000000D01*
X47857142Y-66047619D01*
X48809523Y-66952380D02*
X48238095Y-66952380D01*
X48523809Y-66952380D02*
X48523809Y-65952380D01*
X48428571Y-66095238D01*
X48333333Y-66190476D01*
X48238095Y-66238095D01*
X49714285Y-65952380D02*
X49238095Y-65952380D01*
X49190476Y-66428571D01*
X49238095Y-66380952D01*
X49333333Y-66333333D01*
X49571428Y-66333333D01*
X49666666Y-66380952D01*
X49714285Y-66428571D01*
X49761904Y-66523809D01*
X49761904Y-66761904D01*
X49714285Y-66857142D01*
X49666666Y-66904761D01*
X49571428Y-66952380D01*
X49333333Y-66952380D01*
X49238095Y-66904761D01*
X49190476Y-66857142D01*
%TO.C,R25*%
X103457142Y-29152380D02*
X103123809Y-28676190D01*
X102885714Y-29152380D02*
X102885714Y-28152380D01*
X103266666Y-28152380D01*
X103361904Y-28200000D01*
X103409523Y-28247619D01*
X103457142Y-28342857D01*
X103457142Y-28485714D01*
X103409523Y-28580952D01*
X103361904Y-28628571D01*
X103266666Y-28676190D01*
X102885714Y-28676190D01*
X103838095Y-28247619D02*
X103885714Y-28200000D01*
X103980952Y-28152380D01*
X104219047Y-28152380D01*
X104314285Y-28200000D01*
X104361904Y-28247619D01*
X104409523Y-28342857D01*
X104409523Y-28438095D01*
X104361904Y-28580952D01*
X103790476Y-29152380D01*
X104409523Y-29152380D01*
X105314285Y-28152380D02*
X104838095Y-28152380D01*
X104790476Y-28628571D01*
X104838095Y-28580952D01*
X104933333Y-28533333D01*
X105171428Y-28533333D01*
X105266666Y-28580952D01*
X105314285Y-28628571D01*
X105361904Y-28723809D01*
X105361904Y-28961904D01*
X105314285Y-29057142D01*
X105266666Y-29104761D01*
X105171428Y-29152380D01*
X104933333Y-29152380D01*
X104838095Y-29104761D01*
X104790476Y-29057142D01*
%TO.C,D18*%
X55452380Y-57214285D02*
X54452380Y-57214285D01*
X54452380Y-56976190D01*
X54500000Y-56833333D01*
X54595238Y-56738095D01*
X54690476Y-56690476D01*
X54880952Y-56642857D01*
X55023809Y-56642857D01*
X55214285Y-56690476D01*
X55309523Y-56738095D01*
X55404761Y-56833333D01*
X55452380Y-56976190D01*
X55452380Y-57214285D01*
X55452380Y-55690476D02*
X55452380Y-56261904D01*
X55452380Y-55976190D02*
X54452380Y-55976190D01*
X54595238Y-56071428D01*
X54690476Y-56166666D01*
X54738095Y-56261904D01*
X54880952Y-55119047D02*
X54833333Y-55214285D01*
X54785714Y-55261904D01*
X54690476Y-55309523D01*
X54642857Y-55309523D01*
X54547619Y-55261904D01*
X54500000Y-55214285D01*
X54452380Y-55119047D01*
X54452380Y-54928571D01*
X54500000Y-54833333D01*
X54547619Y-54785714D01*
X54642857Y-54738095D01*
X54690476Y-54738095D01*
X54785714Y-54785714D01*
X54833333Y-54833333D01*
X54880952Y-54928571D01*
X54880952Y-55119047D01*
X54928571Y-55214285D01*
X54976190Y-55261904D01*
X55071428Y-55309523D01*
X55261904Y-55309523D01*
X55357142Y-55261904D01*
X55404761Y-55214285D01*
X55452380Y-55119047D01*
X55452380Y-54928571D01*
X55404761Y-54833333D01*
X55357142Y-54785714D01*
X55261904Y-54738095D01*
X55071428Y-54738095D01*
X54976190Y-54785714D01*
X54928571Y-54833333D01*
X54880952Y-54928571D01*
%TO.C,R5*%
X85833333Y-101587380D02*
X85500000Y-101111190D01*
X85261904Y-101587380D02*
X85261904Y-100587380D01*
X85642857Y-100587380D01*
X85738095Y-100635000D01*
X85785714Y-100682619D01*
X85833333Y-100777857D01*
X85833333Y-100920714D01*
X85785714Y-101015952D01*
X85738095Y-101063571D01*
X85642857Y-101111190D01*
X85261904Y-101111190D01*
X86738095Y-100587380D02*
X86261904Y-100587380D01*
X86214285Y-101063571D01*
X86261904Y-101015952D01*
X86357142Y-100968333D01*
X86595238Y-100968333D01*
X86690476Y-101015952D01*
X86738095Y-101063571D01*
X86785714Y-101158809D01*
X86785714Y-101396904D01*
X86738095Y-101492142D01*
X86690476Y-101539761D01*
X86595238Y-101587380D01*
X86357142Y-101587380D01*
X86261904Y-101539761D01*
X86214285Y-101492142D01*
%TO.C,M2+1*%
X124595238Y-82452380D02*
X124595238Y-81452380D01*
X124928571Y-82166666D01*
X125261904Y-81452380D01*
X125261904Y-82452380D01*
X125690476Y-81547619D02*
X125738095Y-81500000D01*
X125833333Y-81452380D01*
X126071428Y-81452380D01*
X126166666Y-81500000D01*
X126214285Y-81547619D01*
X126261904Y-81642857D01*
X126261904Y-81738095D01*
X126214285Y-81880952D01*
X125642857Y-82452380D01*
X126261904Y-82452380D01*
X126690476Y-82071428D02*
X127452380Y-82071428D01*
X127071428Y-82452380D02*
X127071428Y-81690476D01*
X128452380Y-82452380D02*
X127880952Y-82452380D01*
X128166666Y-82452380D02*
X128166666Y-81452380D01*
X128071428Y-81595238D01*
X127976190Y-81690476D01*
X127880952Y-81738095D01*
%TO.C,C9*%
X79833333Y-32857142D02*
X79785714Y-32904761D01*
X79642857Y-32952380D01*
X79547619Y-32952380D01*
X79404761Y-32904761D01*
X79309523Y-32809523D01*
X79261904Y-32714285D01*
X79214285Y-32523809D01*
X79214285Y-32380952D01*
X79261904Y-32190476D01*
X79309523Y-32095238D01*
X79404761Y-32000000D01*
X79547619Y-31952380D01*
X79642857Y-31952380D01*
X79785714Y-32000000D01*
X79833333Y-32047619D01*
X80309523Y-32952380D02*
X80500000Y-32952380D01*
X80595238Y-32904761D01*
X80642857Y-32857142D01*
X80738095Y-32714285D01*
X80785714Y-32523809D01*
X80785714Y-32142857D01*
X80738095Y-32047619D01*
X80690476Y-32000000D01*
X80595238Y-31952380D01*
X80404761Y-31952380D01*
X80309523Y-32000000D01*
X80261904Y-32047619D01*
X80214285Y-32142857D01*
X80214285Y-32380952D01*
X80261904Y-32476190D01*
X80309523Y-32523809D01*
X80404761Y-32571428D01*
X80595238Y-32571428D01*
X80690476Y-32523809D01*
X80738095Y-32476190D01*
X80785714Y-32380952D01*
%TO.C,M2-1*%
X124595238Y-99952380D02*
X124595238Y-98952380D01*
X124928571Y-99666666D01*
X125261904Y-98952380D01*
X125261904Y-99952380D01*
X125690476Y-99047619D02*
X125738095Y-99000000D01*
X125833333Y-98952380D01*
X126071428Y-98952380D01*
X126166666Y-99000000D01*
X126214285Y-99047619D01*
X126261904Y-99142857D01*
X126261904Y-99238095D01*
X126214285Y-99380952D01*
X125642857Y-99952380D01*
X126261904Y-99952380D01*
X126690476Y-99571428D02*
X127452380Y-99571428D01*
X128452380Y-99952380D02*
X127880952Y-99952380D01*
X128166666Y-99952380D02*
X128166666Y-98952380D01*
X128071428Y-99095238D01*
X127976190Y-99190476D01*
X127880952Y-99238095D01*
%TO.C,C29*%
X56357142Y-54142857D02*
X56404761Y-54190476D01*
X56452380Y-54333333D01*
X56452380Y-54428571D01*
X56404761Y-54571428D01*
X56309523Y-54666666D01*
X56214285Y-54714285D01*
X56023809Y-54761904D01*
X55880952Y-54761904D01*
X55690476Y-54714285D01*
X55595238Y-54666666D01*
X55500000Y-54571428D01*
X55452380Y-54428571D01*
X55452380Y-54333333D01*
X55500000Y-54190476D01*
X55547619Y-54142857D01*
X55547619Y-53761904D02*
X55500000Y-53714285D01*
X55452380Y-53619047D01*
X55452380Y-53380952D01*
X55500000Y-53285714D01*
X55547619Y-53238095D01*
X55642857Y-53190476D01*
X55738095Y-53190476D01*
X55880952Y-53238095D01*
X56452380Y-53809523D01*
X56452380Y-53190476D01*
X56452380Y-52714285D02*
X56452380Y-52523809D01*
X56404761Y-52428571D01*
X56357142Y-52380952D01*
X56214285Y-52285714D01*
X56023809Y-52238095D01*
X55642857Y-52238095D01*
X55547619Y-52285714D01*
X55500000Y-52333333D01*
X55452380Y-52428571D01*
X55452380Y-52619047D01*
X55500000Y-52714285D01*
X55547619Y-52761904D01*
X55642857Y-52809523D01*
X55880952Y-52809523D01*
X55976190Y-52761904D01*
X56023809Y-52714285D01*
X56071428Y-52619047D01*
X56071428Y-52428571D01*
X56023809Y-52333333D01*
X55976190Y-52285714D01*
X55880952Y-52238095D01*
%TO.C,C40*%
X52857142Y-54142857D02*
X52904761Y-54190476D01*
X52952380Y-54333333D01*
X52952380Y-54428571D01*
X52904761Y-54571428D01*
X52809523Y-54666666D01*
X52714285Y-54714285D01*
X52523809Y-54761904D01*
X52380952Y-54761904D01*
X52190476Y-54714285D01*
X52095238Y-54666666D01*
X52000000Y-54571428D01*
X51952380Y-54428571D01*
X51952380Y-54333333D01*
X52000000Y-54190476D01*
X52047619Y-54142857D01*
X52285714Y-53285714D02*
X52952380Y-53285714D01*
X51904761Y-53523809D02*
X52619047Y-53761904D01*
X52619047Y-53142857D01*
X51952380Y-52571428D02*
X51952380Y-52476190D01*
X52000000Y-52380952D01*
X52047619Y-52333333D01*
X52142857Y-52285714D01*
X52333333Y-52238095D01*
X52571428Y-52238095D01*
X52761904Y-52285714D01*
X52857142Y-52333333D01*
X52904761Y-52380952D01*
X52952380Y-52476190D01*
X52952380Y-52571428D01*
X52904761Y-52666666D01*
X52857142Y-52714285D01*
X52761904Y-52761904D01*
X52571428Y-52809523D01*
X52333333Y-52809523D01*
X52142857Y-52761904D01*
X52047619Y-52714285D01*
X52000000Y-52666666D01*
X51952380Y-52571428D01*
%TO.C,C11*%
X78857142Y-43857142D02*
X78809523Y-43904761D01*
X78666666Y-43952380D01*
X78571428Y-43952380D01*
X78428571Y-43904761D01*
X78333333Y-43809523D01*
X78285714Y-43714285D01*
X78238095Y-43523809D01*
X78238095Y-43380952D01*
X78285714Y-43190476D01*
X78333333Y-43095238D01*
X78428571Y-43000000D01*
X78571428Y-42952380D01*
X78666666Y-42952380D01*
X78809523Y-43000000D01*
X78857142Y-43047619D01*
X79809523Y-43952380D02*
X79238095Y-43952380D01*
X79523809Y-43952380D02*
X79523809Y-42952380D01*
X79428571Y-43095238D01*
X79333333Y-43190476D01*
X79238095Y-43238095D01*
X80761904Y-43952380D02*
X80190476Y-43952380D01*
X80476190Y-43952380D02*
X80476190Y-42952380D01*
X80380952Y-43095238D01*
X80285714Y-43190476D01*
X80190476Y-43238095D01*
%TO.C,D10*%
X85778571Y-98996904D02*
X85778571Y-98196904D01*
X85969047Y-98196904D01*
X86083333Y-98235000D01*
X86159523Y-98311190D01*
X86197619Y-98387380D01*
X86235714Y-98539761D01*
X86235714Y-98654047D01*
X86197619Y-98806428D01*
X86159523Y-98882619D01*
X86083333Y-98958809D01*
X85969047Y-98996904D01*
X85778571Y-98996904D01*
X86997619Y-98996904D02*
X86540476Y-98996904D01*
X86769047Y-98996904D02*
X86769047Y-98196904D01*
X86692857Y-98311190D01*
X86616666Y-98387380D01*
X86540476Y-98425476D01*
X87492857Y-98196904D02*
X87569047Y-98196904D01*
X87645238Y-98235000D01*
X87683333Y-98273095D01*
X87721428Y-98349285D01*
X87759523Y-98501666D01*
X87759523Y-98692142D01*
X87721428Y-98844523D01*
X87683333Y-98920714D01*
X87645238Y-98958809D01*
X87569047Y-98996904D01*
X87492857Y-98996904D01*
X87416666Y-98958809D01*
X87378571Y-98920714D01*
X87340476Y-98844523D01*
X87302380Y-98692142D01*
X87302380Y-98501666D01*
X87340476Y-98349285D01*
X87378571Y-98273095D01*
X87416666Y-98235000D01*
X87492857Y-98196904D01*
%TO.C,C27*%
X81857142Y-90857142D02*
X81809523Y-90904761D01*
X81666666Y-90952380D01*
X81571428Y-90952380D01*
X81428571Y-90904761D01*
X81333333Y-90809523D01*
X81285714Y-90714285D01*
X81238095Y-90523809D01*
X81238095Y-90380952D01*
X81285714Y-90190476D01*
X81333333Y-90095238D01*
X81428571Y-90000000D01*
X81571428Y-89952380D01*
X81666666Y-89952380D01*
X81809523Y-90000000D01*
X81857142Y-90047619D01*
X82238095Y-90047619D02*
X82285714Y-90000000D01*
X82380952Y-89952380D01*
X82619047Y-89952380D01*
X82714285Y-90000000D01*
X82761904Y-90047619D01*
X82809523Y-90142857D01*
X82809523Y-90238095D01*
X82761904Y-90380952D01*
X82190476Y-90952380D01*
X82809523Y-90952380D01*
X83142857Y-89952380D02*
X83809523Y-89952380D01*
X83380952Y-90952380D01*
%TO.C,L1*%
X54452380Y-77166666D02*
X54452380Y-77642857D01*
X53452380Y-77642857D01*
X54452380Y-76309523D02*
X54452380Y-76880952D01*
X54452380Y-76595238D02*
X53452380Y-76595238D01*
X53595238Y-76690476D01*
X53690476Y-76785714D01*
X53738095Y-76880952D01*
%TO.C,BZ1*%
X66869047Y-105178571D02*
X67011904Y-105226190D01*
X67059523Y-105273809D01*
X67107142Y-105369047D01*
X67107142Y-105511904D01*
X67059523Y-105607142D01*
X67011904Y-105654761D01*
X66916666Y-105702380D01*
X66535714Y-105702380D01*
X66535714Y-104702380D01*
X66869047Y-104702380D01*
X66964285Y-104750000D01*
X67011904Y-104797619D01*
X67059523Y-104892857D01*
X67059523Y-104988095D01*
X67011904Y-105083333D01*
X66964285Y-105130952D01*
X66869047Y-105178571D01*
X66535714Y-105178571D01*
X67440476Y-104702380D02*
X68107142Y-104702380D01*
X67440476Y-105702380D01*
X68107142Y-105702380D01*
X69011904Y-105702380D02*
X68440476Y-105702380D01*
X68726190Y-105702380D02*
X68726190Y-104702380D01*
X68630952Y-104845238D01*
X68535714Y-104940476D01*
X68440476Y-104988095D01*
%TO.C,C33*%
X50300000Y-88500000D02*
X50266666Y-88533333D01*
X50166666Y-88566666D01*
X50100000Y-88566666D01*
X50000000Y-88533333D01*
X49933333Y-88466666D01*
X49900000Y-88400000D01*
X49866666Y-88266666D01*
X49866666Y-88166666D01*
X49900000Y-88033333D01*
X49933333Y-87966666D01*
X50000000Y-87900000D01*
X50100000Y-87866666D01*
X50166666Y-87866666D01*
X50266666Y-87900000D01*
X50300000Y-87933333D01*
X50533333Y-87866666D02*
X50966666Y-87866666D01*
X50733333Y-88133333D01*
X50833333Y-88133333D01*
X50900000Y-88166666D01*
X50933333Y-88200000D01*
X50966666Y-88266666D01*
X50966666Y-88433333D01*
X50933333Y-88500000D01*
X50900000Y-88533333D01*
X50833333Y-88566666D01*
X50633333Y-88566666D01*
X50566666Y-88533333D01*
X50533333Y-88500000D01*
X51200000Y-87866666D02*
X51633333Y-87866666D01*
X51400000Y-88133333D01*
X51500000Y-88133333D01*
X51566666Y-88166666D01*
X51600000Y-88200000D01*
X51633333Y-88266666D01*
X51633333Y-88433333D01*
X51600000Y-88500000D01*
X51566666Y-88533333D01*
X51500000Y-88566666D01*
X51300000Y-88566666D01*
X51233333Y-88533333D01*
X51200000Y-88500000D01*
%TO.C,R20*%
X53452380Y-102642857D02*
X52976190Y-102976190D01*
X53452380Y-103214285D02*
X52452380Y-103214285D01*
X52452380Y-102833333D01*
X52500000Y-102738095D01*
X52547619Y-102690476D01*
X52642857Y-102642857D01*
X52785714Y-102642857D01*
X52880952Y-102690476D01*
X52928571Y-102738095D01*
X52976190Y-102833333D01*
X52976190Y-103214285D01*
X52547619Y-102261904D02*
X52500000Y-102214285D01*
X52452380Y-102119047D01*
X52452380Y-101880952D01*
X52500000Y-101785714D01*
X52547619Y-101738095D01*
X52642857Y-101690476D01*
X52738095Y-101690476D01*
X52880952Y-101738095D01*
X53452380Y-102309523D01*
X53452380Y-101690476D01*
X52452380Y-101071428D02*
X52452380Y-100976190D01*
X52500000Y-100880952D01*
X52547619Y-100833333D01*
X52642857Y-100785714D01*
X52833333Y-100738095D01*
X53071428Y-100738095D01*
X53261904Y-100785714D01*
X53357142Y-100833333D01*
X53404761Y-100880952D01*
X53452380Y-100976190D01*
X53452380Y-101071428D01*
X53404761Y-101166666D01*
X53357142Y-101214285D01*
X53261904Y-101261904D01*
X53071428Y-101309523D01*
X52833333Y-101309523D01*
X52642857Y-101261904D01*
X52547619Y-101214285D01*
X52500000Y-101166666D01*
X52452380Y-101071428D01*
%TO.C,C41*%
X54357142Y-54142857D02*
X54404761Y-54190476D01*
X54452380Y-54333333D01*
X54452380Y-54428571D01*
X54404761Y-54571428D01*
X54309523Y-54666666D01*
X54214285Y-54714285D01*
X54023809Y-54761904D01*
X53880952Y-54761904D01*
X53690476Y-54714285D01*
X53595238Y-54666666D01*
X53500000Y-54571428D01*
X53452380Y-54428571D01*
X53452380Y-54333333D01*
X53500000Y-54190476D01*
X53547619Y-54142857D01*
X53785714Y-53285714D02*
X54452380Y-53285714D01*
X53404761Y-53523809D02*
X54119047Y-53761904D01*
X54119047Y-53142857D01*
X54452380Y-52238095D02*
X54452380Y-52809523D01*
X54452380Y-52523809D02*
X53452380Y-52523809D01*
X53595238Y-52619047D01*
X53690476Y-52714285D01*
X53738095Y-52809523D01*
%TO.C,R19*%
X61952380Y-57642857D02*
X61476190Y-57976190D01*
X61952380Y-58214285D02*
X60952380Y-58214285D01*
X60952380Y-57833333D01*
X61000000Y-57738095D01*
X61047619Y-57690476D01*
X61142857Y-57642857D01*
X61285714Y-57642857D01*
X61380952Y-57690476D01*
X61428571Y-57738095D01*
X61476190Y-57833333D01*
X61476190Y-58214285D01*
X61952380Y-56690476D02*
X61952380Y-57261904D01*
X61952380Y-56976190D02*
X60952380Y-56976190D01*
X61095238Y-57071428D01*
X61190476Y-57166666D01*
X61238095Y-57261904D01*
X61952380Y-56214285D02*
X61952380Y-56023809D01*
X61904761Y-55928571D01*
X61857142Y-55880952D01*
X61714285Y-55785714D01*
X61523809Y-55738095D01*
X61142857Y-55738095D01*
X61047619Y-55785714D01*
X61000000Y-55833333D01*
X60952380Y-55928571D01*
X60952380Y-56119047D01*
X61000000Y-56214285D01*
X61047619Y-56261904D01*
X61142857Y-56309523D01*
X61380952Y-56309523D01*
X61476190Y-56261904D01*
X61523809Y-56214285D01*
X61571428Y-56119047D01*
X61571428Y-55928571D01*
X61523809Y-55833333D01*
X61476190Y-55785714D01*
X61380952Y-55738095D01*
%TO.C,C7*%
X80833333Y-46357142D02*
X80785714Y-46404761D01*
X80642857Y-46452380D01*
X80547619Y-46452380D01*
X80404761Y-46404761D01*
X80309523Y-46309523D01*
X80261904Y-46214285D01*
X80214285Y-46023809D01*
X80214285Y-45880952D01*
X80261904Y-45690476D01*
X80309523Y-45595238D01*
X80404761Y-45500000D01*
X80547619Y-45452380D01*
X80642857Y-45452380D01*
X80785714Y-45500000D01*
X80833333Y-45547619D01*
X81166666Y-45452380D02*
X81833333Y-45452380D01*
X81404761Y-46452380D01*
%TO.C,C14*%
X81707142Y-102777857D02*
X81754761Y-102825476D01*
X81802380Y-102968333D01*
X81802380Y-103063571D01*
X81754761Y-103206428D01*
X81659523Y-103301666D01*
X81564285Y-103349285D01*
X81373809Y-103396904D01*
X81230952Y-103396904D01*
X81040476Y-103349285D01*
X80945238Y-103301666D01*
X80850000Y-103206428D01*
X80802380Y-103063571D01*
X80802380Y-102968333D01*
X80850000Y-102825476D01*
X80897619Y-102777857D01*
X81802380Y-101825476D02*
X81802380Y-102396904D01*
X81802380Y-102111190D02*
X80802380Y-102111190D01*
X80945238Y-102206428D01*
X81040476Y-102301666D01*
X81088095Y-102396904D01*
X81135714Y-100968333D02*
X81802380Y-100968333D01*
X80754761Y-101206428D02*
X81469047Y-101444523D01*
X81469047Y-100825476D01*
%TO.C,GND1*%
X125261904Y-27500000D02*
X125166666Y-27452380D01*
X125023809Y-27452380D01*
X124880952Y-27500000D01*
X124785714Y-27595238D01*
X124738095Y-27690476D01*
X124690476Y-27880952D01*
X124690476Y-28023809D01*
X124738095Y-28214285D01*
X124785714Y-28309523D01*
X124880952Y-28404761D01*
X125023809Y-28452380D01*
X125119047Y-28452380D01*
X125261904Y-28404761D01*
X125309523Y-28357142D01*
X125309523Y-28023809D01*
X125119047Y-28023809D01*
X125738095Y-28452380D02*
X125738095Y-27452380D01*
X126309523Y-28452380D01*
X126309523Y-27452380D01*
X126785714Y-28452380D02*
X126785714Y-27452380D01*
X127023809Y-27452380D01*
X127166666Y-27500000D01*
X127261904Y-27595238D01*
X127309523Y-27690476D01*
X127357142Y-27880952D01*
X127357142Y-28023809D01*
X127309523Y-28214285D01*
X127261904Y-28309523D01*
X127166666Y-28404761D01*
X127023809Y-28452380D01*
X126785714Y-28452380D01*
X128309523Y-28452380D02*
X127738095Y-28452380D01*
X128023809Y-28452380D02*
X128023809Y-27452380D01*
X127928571Y-27595238D01*
X127833333Y-27690476D01*
X127738095Y-27738095D01*
%TO.C,C24*%
X52157142Y-72157142D02*
X52109523Y-72204761D01*
X51966666Y-72252380D01*
X51871428Y-72252380D01*
X51728571Y-72204761D01*
X51633333Y-72109523D01*
X51585714Y-72014285D01*
X51538095Y-71823809D01*
X51538095Y-71680952D01*
X51585714Y-71490476D01*
X51633333Y-71395238D01*
X51728571Y-71300000D01*
X51871428Y-71252380D01*
X51966666Y-71252380D01*
X52109523Y-71300000D01*
X52157142Y-71347619D01*
X52538095Y-71347619D02*
X52585714Y-71300000D01*
X52680952Y-71252380D01*
X52919047Y-71252380D01*
X53014285Y-71300000D01*
X53061904Y-71347619D01*
X53109523Y-71442857D01*
X53109523Y-71538095D01*
X53061904Y-71680952D01*
X52490476Y-72252380D01*
X53109523Y-72252380D01*
X53966666Y-71585714D02*
X53966666Y-72252380D01*
X53728571Y-71204761D02*
X53490476Y-71919047D01*
X54109523Y-71919047D01*
D11*
%TO.C,Rvoltage1*%
X48035714Y-64464285D02*
X47892857Y-64564285D01*
X48035714Y-64635714D02*
X47735714Y-64635714D01*
X47735714Y-64521428D01*
X47750000Y-64492857D01*
X47764285Y-64478571D01*
X47792857Y-64464285D01*
X47835714Y-64464285D01*
X47864285Y-64478571D01*
X47878571Y-64492857D01*
X47892857Y-64521428D01*
X47892857Y-64635714D01*
X47835714Y-64364285D02*
X48035714Y-64292857D01*
X47835714Y-64221428D01*
X48035714Y-64064285D02*
X48021428Y-64092857D01*
X48007142Y-64107142D01*
X47978571Y-64121428D01*
X47892857Y-64121428D01*
X47864285Y-64107142D01*
X47850000Y-64092857D01*
X47835714Y-64064285D01*
X47835714Y-64021428D01*
X47850000Y-63992857D01*
X47864285Y-63978571D01*
X47892857Y-63964285D01*
X47978571Y-63964285D01*
X48007142Y-63978571D01*
X48021428Y-63992857D01*
X48035714Y-64021428D01*
X48035714Y-64064285D01*
X48035714Y-63792857D02*
X48021428Y-63821428D01*
X47992857Y-63835714D01*
X47735714Y-63835714D01*
X47835714Y-63721428D02*
X47835714Y-63607142D01*
X47735714Y-63678571D02*
X47992857Y-63678571D01*
X48021428Y-63664285D01*
X48035714Y-63635714D01*
X48035714Y-63607142D01*
X48035714Y-63378571D02*
X47878571Y-63378571D01*
X47850000Y-63392857D01*
X47835714Y-63421428D01*
X47835714Y-63478571D01*
X47850000Y-63507142D01*
X48021428Y-63378571D02*
X48035714Y-63407142D01*
X48035714Y-63478571D01*
X48021428Y-63507142D01*
X47992857Y-63521428D01*
X47964285Y-63521428D01*
X47935714Y-63507142D01*
X47921428Y-63478571D01*
X47921428Y-63407142D01*
X47907142Y-63378571D01*
X47835714Y-63107142D02*
X48078571Y-63107142D01*
X48107142Y-63121428D01*
X48121428Y-63135714D01*
X48135714Y-63164285D01*
X48135714Y-63207142D01*
X48121428Y-63235714D01*
X48021428Y-63107142D02*
X48035714Y-63135714D01*
X48035714Y-63192857D01*
X48021428Y-63221428D01*
X48007142Y-63235714D01*
X47978571Y-63250000D01*
X47892857Y-63250000D01*
X47864285Y-63235714D01*
X47850000Y-63221428D01*
X47835714Y-63192857D01*
X47835714Y-63135714D01*
X47850000Y-63107142D01*
X48021428Y-62850000D02*
X48035714Y-62878571D01*
X48035714Y-62935714D01*
X48021428Y-62964285D01*
X47992857Y-62978571D01*
X47878571Y-62978571D01*
X47850000Y-62964285D01*
X47835714Y-62935714D01*
X47835714Y-62878571D01*
X47850000Y-62850000D01*
X47878571Y-62835714D01*
X47907142Y-62835714D01*
X47935714Y-62978571D01*
X48035714Y-62550000D02*
X48035714Y-62721428D01*
X48035714Y-62635714D02*
X47735714Y-62635714D01*
X47778571Y-62664285D01*
X47807142Y-62692857D01*
X47821428Y-62721428D01*
D10*
%TO.C,D8*%
X77761904Y-92587380D02*
X77761904Y-91587380D01*
X78000000Y-91587380D01*
X78142857Y-91635000D01*
X78238095Y-91730238D01*
X78285714Y-91825476D01*
X78333333Y-92015952D01*
X78333333Y-92158809D01*
X78285714Y-92349285D01*
X78238095Y-92444523D01*
X78142857Y-92539761D01*
X78000000Y-92587380D01*
X77761904Y-92587380D01*
X78904761Y-92015952D02*
X78809523Y-91968333D01*
X78761904Y-91920714D01*
X78714285Y-91825476D01*
X78714285Y-91777857D01*
X78761904Y-91682619D01*
X78809523Y-91635000D01*
X78904761Y-91587380D01*
X79095238Y-91587380D01*
X79190476Y-91635000D01*
X79238095Y-91682619D01*
X79285714Y-91777857D01*
X79285714Y-91825476D01*
X79238095Y-91920714D01*
X79190476Y-91968333D01*
X79095238Y-92015952D01*
X78904761Y-92015952D01*
X78809523Y-92063571D01*
X78761904Y-92111190D01*
X78714285Y-92206428D01*
X78714285Y-92396904D01*
X78761904Y-92492142D01*
X78809523Y-92539761D01*
X78904761Y-92587380D01*
X79095238Y-92587380D01*
X79190476Y-92539761D01*
X79238095Y-92492142D01*
X79285714Y-92396904D01*
X79285714Y-92206428D01*
X79238095Y-92111190D01*
X79190476Y-92063571D01*
X79095238Y-92015952D01*
%TO.C,D6*%
X86261904Y-35452380D02*
X86261904Y-34452380D01*
X86500000Y-34452380D01*
X86642857Y-34500000D01*
X86738095Y-34595238D01*
X86785714Y-34690476D01*
X86833333Y-34880952D01*
X86833333Y-35023809D01*
X86785714Y-35214285D01*
X86738095Y-35309523D01*
X86642857Y-35404761D01*
X86500000Y-35452380D01*
X86261904Y-35452380D01*
X87690476Y-34452380D02*
X87500000Y-34452380D01*
X87404761Y-34500000D01*
X87357142Y-34547619D01*
X87261904Y-34690476D01*
X87214285Y-34880952D01*
X87214285Y-35261904D01*
X87261904Y-35357142D01*
X87309523Y-35404761D01*
X87404761Y-35452380D01*
X87595238Y-35452380D01*
X87690476Y-35404761D01*
X87738095Y-35357142D01*
X87785714Y-35261904D01*
X87785714Y-35023809D01*
X87738095Y-34928571D01*
X87690476Y-34880952D01*
X87595238Y-34833333D01*
X87404761Y-34833333D01*
X87309523Y-34880952D01*
X87261904Y-34928571D01*
X87214285Y-35023809D01*
%TO.C,C25*%
X68857142Y-53142857D02*
X68904761Y-53190476D01*
X68952380Y-53333333D01*
X68952380Y-53428571D01*
X68904761Y-53571428D01*
X68809523Y-53666666D01*
X68714285Y-53714285D01*
X68523809Y-53761904D01*
X68380952Y-53761904D01*
X68190476Y-53714285D01*
X68095238Y-53666666D01*
X68000000Y-53571428D01*
X67952380Y-53428571D01*
X67952380Y-53333333D01*
X68000000Y-53190476D01*
X68047619Y-53142857D01*
X68047619Y-52761904D02*
X68000000Y-52714285D01*
X67952380Y-52619047D01*
X67952380Y-52380952D01*
X68000000Y-52285714D01*
X68047619Y-52238095D01*
X68142857Y-52190476D01*
X68238095Y-52190476D01*
X68380952Y-52238095D01*
X68952380Y-52809523D01*
X68952380Y-52190476D01*
X67952380Y-51285714D02*
X67952380Y-51761904D01*
X68428571Y-51809523D01*
X68380952Y-51761904D01*
X68333333Y-51666666D01*
X68333333Y-51428571D01*
X68380952Y-51333333D01*
X68428571Y-51285714D01*
X68523809Y-51238095D01*
X68761904Y-51238095D01*
X68857142Y-51285714D01*
X68904761Y-51333333D01*
X68952380Y-51428571D01*
X68952380Y-51666666D01*
X68904761Y-51761904D01*
X68857142Y-51809523D01*
%TO.C,D20*%
X42352380Y-72714285D02*
X41352380Y-72714285D01*
X41352380Y-72476190D01*
X41400000Y-72333333D01*
X41495238Y-72238095D01*
X41590476Y-72190476D01*
X41780952Y-72142857D01*
X41923809Y-72142857D01*
X42114285Y-72190476D01*
X42209523Y-72238095D01*
X42304761Y-72333333D01*
X42352380Y-72476190D01*
X42352380Y-72714285D01*
X41447619Y-71761904D02*
X41400000Y-71714285D01*
X41352380Y-71619047D01*
X41352380Y-71380952D01*
X41400000Y-71285714D01*
X41447619Y-71238095D01*
X41542857Y-71190476D01*
X41638095Y-71190476D01*
X41780952Y-71238095D01*
X42352380Y-71809523D01*
X42352380Y-71190476D01*
X41352380Y-70571428D02*
X41352380Y-70476190D01*
X41400000Y-70380952D01*
X41447619Y-70333333D01*
X41542857Y-70285714D01*
X41733333Y-70238095D01*
X41971428Y-70238095D01*
X42161904Y-70285714D01*
X42257142Y-70333333D01*
X42304761Y-70380952D01*
X42352380Y-70476190D01*
X42352380Y-70571428D01*
X42304761Y-70666666D01*
X42257142Y-70714285D01*
X42161904Y-70761904D01*
X41971428Y-70809523D01*
X41733333Y-70809523D01*
X41542857Y-70761904D01*
X41447619Y-70714285D01*
X41400000Y-70666666D01*
X41352380Y-70571428D01*
X42852380Y-68864285D02*
X42852380Y-69435714D01*
X42852380Y-69150000D02*
X41852380Y-69150000D01*
X41995238Y-69245238D01*
X42090476Y-69340476D01*
X42138095Y-69435714D01*
%TO.C,R11*%
X55357142Y-104022380D02*
X55023809Y-103546190D01*
X54785714Y-104022380D02*
X54785714Y-103022380D01*
X55166666Y-103022380D01*
X55261904Y-103070000D01*
X55309523Y-103117619D01*
X55357142Y-103212857D01*
X55357142Y-103355714D01*
X55309523Y-103450952D01*
X55261904Y-103498571D01*
X55166666Y-103546190D01*
X54785714Y-103546190D01*
X56309523Y-104022380D02*
X55738095Y-104022380D01*
X56023809Y-104022380D02*
X56023809Y-103022380D01*
X55928571Y-103165238D01*
X55833333Y-103260476D01*
X55738095Y-103308095D01*
X57261904Y-104022380D02*
X56690476Y-104022380D01*
X56976190Y-104022380D02*
X56976190Y-103022380D01*
X56880952Y-103165238D01*
X56785714Y-103260476D01*
X56690476Y-103308095D01*
%TO.C,D12*%
X86785714Y-83952380D02*
X86785714Y-82952380D01*
X87023809Y-82952380D01*
X87166666Y-83000000D01*
X87261904Y-83095238D01*
X87309523Y-83190476D01*
X87357142Y-83380952D01*
X87357142Y-83523809D01*
X87309523Y-83714285D01*
X87261904Y-83809523D01*
X87166666Y-83904761D01*
X87023809Y-83952380D01*
X86785714Y-83952380D01*
X88309523Y-83952380D02*
X87738095Y-83952380D01*
X88023809Y-83952380D02*
X88023809Y-82952380D01*
X87928571Y-83095238D01*
X87833333Y-83190476D01*
X87738095Y-83238095D01*
X88690476Y-83047619D02*
X88738095Y-83000000D01*
X88833333Y-82952380D01*
X89071428Y-82952380D01*
X89166666Y-83000000D01*
X89214285Y-83047619D01*
X89261904Y-83142857D01*
X89261904Y-83238095D01*
X89214285Y-83380952D01*
X88642857Y-83952380D01*
X89261904Y-83952380D01*
%TO.C,C16*%
X61257142Y-53957142D02*
X61209523Y-54004761D01*
X61066666Y-54052380D01*
X60971428Y-54052380D01*
X60828571Y-54004761D01*
X60733333Y-53909523D01*
X60685714Y-53814285D01*
X60638095Y-53623809D01*
X60638095Y-53480952D01*
X60685714Y-53290476D01*
X60733333Y-53195238D01*
X60828571Y-53100000D01*
X60971428Y-53052380D01*
X61066666Y-53052380D01*
X61209523Y-53100000D01*
X61257142Y-53147619D01*
X62209523Y-54052380D02*
X61638095Y-54052380D01*
X61923809Y-54052380D02*
X61923809Y-53052380D01*
X61828571Y-53195238D01*
X61733333Y-53290476D01*
X61638095Y-53338095D01*
X63066666Y-53052380D02*
X62876190Y-53052380D01*
X62780952Y-53100000D01*
X62733333Y-53147619D01*
X62638095Y-53290476D01*
X62590476Y-53480952D01*
X62590476Y-53861904D01*
X62638095Y-53957142D01*
X62685714Y-54004761D01*
X62780952Y-54052380D01*
X62971428Y-54052380D01*
X63066666Y-54004761D01*
X63114285Y-53957142D01*
X63161904Y-53861904D01*
X63161904Y-53623809D01*
X63114285Y-53528571D01*
X63066666Y-53480952D01*
X62971428Y-53433333D01*
X62780952Y-53433333D01*
X62685714Y-53480952D01*
X62638095Y-53528571D01*
X62590476Y-53623809D01*
%TO.C,D5*%
X85761904Y-48452380D02*
X85761904Y-47452380D01*
X86000000Y-47452380D01*
X86142857Y-47500000D01*
X86238095Y-47595238D01*
X86285714Y-47690476D01*
X86333333Y-47880952D01*
X86333333Y-48023809D01*
X86285714Y-48214285D01*
X86238095Y-48309523D01*
X86142857Y-48404761D01*
X86000000Y-48452380D01*
X85761904Y-48452380D01*
X87238095Y-47452380D02*
X86761904Y-47452380D01*
X86714285Y-47928571D01*
X86761904Y-47880952D01*
X86857142Y-47833333D01*
X87095238Y-47833333D01*
X87190476Y-47880952D01*
X87238095Y-47928571D01*
X87285714Y-48023809D01*
X87285714Y-48261904D01*
X87238095Y-48357142D01*
X87190476Y-48404761D01*
X87095238Y-48452380D01*
X86857142Y-48452380D01*
X86761904Y-48404761D01*
X86714285Y-48357142D01*
%TO.C,C32*%
X50750000Y-95450000D02*
X50783333Y-95483333D01*
X50816666Y-95583333D01*
X50816666Y-95650000D01*
X50783333Y-95750000D01*
X50716666Y-95816666D01*
X50650000Y-95850000D01*
X50516666Y-95883333D01*
X50416666Y-95883333D01*
X50283333Y-95850000D01*
X50216666Y-95816666D01*
X50150000Y-95750000D01*
X50116666Y-95650000D01*
X50116666Y-95583333D01*
X50150000Y-95483333D01*
X50183333Y-95450000D01*
X50116666Y-95216666D02*
X50116666Y-94783333D01*
X50383333Y-95016666D01*
X50383333Y-94916666D01*
X50416666Y-94850000D01*
X50450000Y-94816666D01*
X50516666Y-94783333D01*
X50683333Y-94783333D01*
X50750000Y-94816666D01*
X50783333Y-94850000D01*
X50816666Y-94916666D01*
X50816666Y-95116666D01*
X50783333Y-95183333D01*
X50750000Y-95216666D01*
X50183333Y-94516666D02*
X50150000Y-94483333D01*
X50116666Y-94416666D01*
X50116666Y-94250000D01*
X50150000Y-94183333D01*
X50183333Y-94150000D01*
X50250000Y-94116666D01*
X50316666Y-94116666D01*
X50416666Y-94150000D01*
X50816666Y-94550000D01*
X50816666Y-94116666D01*
%TO.C,C30*%
X42157142Y-83942857D02*
X42204761Y-83990476D01*
X42252380Y-84133333D01*
X42252380Y-84228571D01*
X42204761Y-84371428D01*
X42109523Y-84466666D01*
X42014285Y-84514285D01*
X41823809Y-84561904D01*
X41680952Y-84561904D01*
X41490476Y-84514285D01*
X41395238Y-84466666D01*
X41300000Y-84371428D01*
X41252380Y-84228571D01*
X41252380Y-84133333D01*
X41300000Y-83990476D01*
X41347619Y-83942857D01*
X41252380Y-83609523D02*
X41252380Y-82990476D01*
X41633333Y-83323809D01*
X41633333Y-83180952D01*
X41680952Y-83085714D01*
X41728571Y-83038095D01*
X41823809Y-82990476D01*
X42061904Y-82990476D01*
X42157142Y-83038095D01*
X42204761Y-83085714D01*
X42252380Y-83180952D01*
X42252380Y-83466666D01*
X42204761Y-83561904D01*
X42157142Y-83609523D01*
X41252380Y-82371428D02*
X41252380Y-82276190D01*
X41300000Y-82180952D01*
X41347619Y-82133333D01*
X41442857Y-82085714D01*
X41633333Y-82038095D01*
X41871428Y-82038095D01*
X42061904Y-82085714D01*
X42157142Y-82133333D01*
X42204761Y-82180952D01*
X42252380Y-82276190D01*
X42252380Y-82371428D01*
X42204761Y-82466666D01*
X42157142Y-82514285D01*
X42061904Y-82561904D01*
X41871428Y-82609523D01*
X41633333Y-82609523D01*
X41442857Y-82561904D01*
X41347619Y-82514285D01*
X41300000Y-82466666D01*
X41252380Y-82371428D01*
%TO.C,R26*%
X113257142Y-28852380D02*
X112923809Y-28376190D01*
X112685714Y-28852380D02*
X112685714Y-27852380D01*
X113066666Y-27852380D01*
X113161904Y-27900000D01*
X113209523Y-27947619D01*
X113257142Y-28042857D01*
X113257142Y-28185714D01*
X113209523Y-28280952D01*
X113161904Y-28328571D01*
X113066666Y-28376190D01*
X112685714Y-28376190D01*
X113638095Y-27947619D02*
X113685714Y-27900000D01*
X113780952Y-27852380D01*
X114019047Y-27852380D01*
X114114285Y-27900000D01*
X114161904Y-27947619D01*
X114209523Y-28042857D01*
X114209523Y-28138095D01*
X114161904Y-28280952D01*
X113590476Y-28852380D01*
X114209523Y-28852380D01*
X115066666Y-27852380D02*
X114876190Y-27852380D01*
X114780952Y-27900000D01*
X114733333Y-27947619D01*
X114638095Y-28090476D01*
X114590476Y-28280952D01*
X114590476Y-28661904D01*
X114638095Y-28757142D01*
X114685714Y-28804761D01*
X114780952Y-28852380D01*
X114971428Y-28852380D01*
X115066666Y-28804761D01*
X115114285Y-28757142D01*
X115161904Y-28661904D01*
X115161904Y-28423809D01*
X115114285Y-28328571D01*
X115066666Y-28280952D01*
X114971428Y-28233333D01*
X114780952Y-28233333D01*
X114685714Y-28280952D01*
X114638095Y-28328571D01*
X114590476Y-28423809D01*
%TO.C,M1+1*%
X124595238Y-54952380D02*
X124595238Y-53952380D01*
X124928571Y-54666666D01*
X125261904Y-53952380D01*
X125261904Y-54952380D01*
X126261904Y-54952380D02*
X125690476Y-54952380D01*
X125976190Y-54952380D02*
X125976190Y-53952380D01*
X125880952Y-54095238D01*
X125785714Y-54190476D01*
X125690476Y-54238095D01*
X126690476Y-54571428D02*
X127452380Y-54571428D01*
X127071428Y-54952380D02*
X127071428Y-54190476D01*
X128452380Y-54952380D02*
X127880952Y-54952380D01*
X128166666Y-54952380D02*
X128166666Y-53952380D01*
X128071428Y-54095238D01*
X127976190Y-54190476D01*
X127880952Y-54238095D01*
%TO.C,C12*%
X69857142Y-82642857D02*
X69904761Y-82690476D01*
X69952380Y-82833333D01*
X69952380Y-82928571D01*
X69904761Y-83071428D01*
X69809523Y-83166666D01*
X69714285Y-83214285D01*
X69523809Y-83261904D01*
X69380952Y-83261904D01*
X69190476Y-83214285D01*
X69095238Y-83166666D01*
X69000000Y-83071428D01*
X68952380Y-82928571D01*
X68952380Y-82833333D01*
X69000000Y-82690476D01*
X69047619Y-82642857D01*
X69952380Y-81690476D02*
X69952380Y-82261904D01*
X69952380Y-81976190D02*
X68952380Y-81976190D01*
X69095238Y-82071428D01*
X69190476Y-82166666D01*
X69238095Y-82261904D01*
X69047619Y-81309523D02*
X69000000Y-81261904D01*
X68952380Y-81166666D01*
X68952380Y-80928571D01*
X69000000Y-80833333D01*
X69047619Y-80785714D01*
X69142857Y-80738095D01*
X69238095Y-80738095D01*
X69380952Y-80785714D01*
X69952380Y-81357142D01*
X69952380Y-80738095D01*
D12*
%TO.C,C18*%
X65178571Y-57178571D02*
X65154761Y-57202380D01*
X65083333Y-57226190D01*
X65035714Y-57226190D01*
X64964285Y-57202380D01*
X64916666Y-57154761D01*
X64892857Y-57107142D01*
X64869047Y-57011904D01*
X64869047Y-56940476D01*
X64892857Y-56845238D01*
X64916666Y-56797619D01*
X64964285Y-56750000D01*
X65035714Y-56726190D01*
X65083333Y-56726190D01*
X65154761Y-56750000D01*
X65178571Y-56773809D01*
X65654761Y-57226190D02*
X65369047Y-57226190D01*
X65511904Y-57226190D02*
X65511904Y-56726190D01*
X65464285Y-56797619D01*
X65416666Y-56845238D01*
X65369047Y-56869047D01*
X65940476Y-56940476D02*
X65892857Y-56916666D01*
X65869047Y-56892857D01*
X65845238Y-56845238D01*
X65845238Y-56821428D01*
X65869047Y-56773809D01*
X65892857Y-56750000D01*
X65940476Y-56726190D01*
X66035714Y-56726190D01*
X66083333Y-56750000D01*
X66107142Y-56773809D01*
X66130952Y-56821428D01*
X66130952Y-56845238D01*
X66107142Y-56892857D01*
X66083333Y-56916666D01*
X66035714Y-56940476D01*
X65940476Y-56940476D01*
X65892857Y-56964285D01*
X65869047Y-56988095D01*
X65845238Y-57035714D01*
X65845238Y-57130952D01*
X65869047Y-57178571D01*
X65892857Y-57202380D01*
X65940476Y-57226190D01*
X66035714Y-57226190D01*
X66083333Y-57202380D01*
X66107142Y-57178571D01*
X66130952Y-57130952D01*
X66130952Y-57035714D01*
X66107142Y-56988095D01*
X66083333Y-56964285D01*
X66035714Y-56940476D01*
D10*
%TO.C,C38*%
X49357142Y-102657142D02*
X49309523Y-102704761D01*
X49166666Y-102752380D01*
X49071428Y-102752380D01*
X48928571Y-102704761D01*
X48833333Y-102609523D01*
X48785714Y-102514285D01*
X48738095Y-102323809D01*
X48738095Y-102180952D01*
X48785714Y-101990476D01*
X48833333Y-101895238D01*
X48928571Y-101800000D01*
X49071428Y-101752380D01*
X49166666Y-101752380D01*
X49309523Y-101800000D01*
X49357142Y-101847619D01*
X49690476Y-101752380D02*
X50309523Y-101752380D01*
X49976190Y-102133333D01*
X50119047Y-102133333D01*
X50214285Y-102180952D01*
X50261904Y-102228571D01*
X50309523Y-102323809D01*
X50309523Y-102561904D01*
X50261904Y-102657142D01*
X50214285Y-102704761D01*
X50119047Y-102752380D01*
X49833333Y-102752380D01*
X49738095Y-102704761D01*
X49690476Y-102657142D01*
X50880952Y-102180952D02*
X50785714Y-102133333D01*
X50738095Y-102085714D01*
X50690476Y-101990476D01*
X50690476Y-101942857D01*
X50738095Y-101847619D01*
X50785714Y-101800000D01*
X50880952Y-101752380D01*
X51071428Y-101752380D01*
X51166666Y-101800000D01*
X51214285Y-101847619D01*
X51261904Y-101942857D01*
X51261904Y-101990476D01*
X51214285Y-102085714D01*
X51166666Y-102133333D01*
X51071428Y-102180952D01*
X50880952Y-102180952D01*
X50785714Y-102228571D01*
X50738095Y-102276190D01*
X50690476Y-102371428D01*
X50690476Y-102561904D01*
X50738095Y-102657142D01*
X50785714Y-102704761D01*
X50880952Y-102752380D01*
X51071428Y-102752380D01*
X51166666Y-102704761D01*
X51214285Y-102657142D01*
X51261904Y-102561904D01*
X51261904Y-102371428D01*
X51214285Y-102276190D01*
X51166666Y-102228571D01*
X51071428Y-102180952D01*
%TO.C,D1*%
X77761904Y-44952380D02*
X77761904Y-43952380D01*
X78000000Y-43952380D01*
X78142857Y-44000000D01*
X78238095Y-44095238D01*
X78285714Y-44190476D01*
X78333333Y-44380952D01*
X78333333Y-44523809D01*
X78285714Y-44714285D01*
X78238095Y-44809523D01*
X78142857Y-44904761D01*
X78000000Y-44952380D01*
X77761904Y-44952380D01*
X79285714Y-44952380D02*
X78714285Y-44952380D01*
X79000000Y-44952380D02*
X79000000Y-43952380D01*
X78904761Y-44095238D01*
X78809523Y-44190476D01*
X78714285Y-44238095D01*
D11*
%TO.C,Rvoltage3*%
X58435714Y-87635714D02*
X58335714Y-87492857D01*
X58264285Y-87635714D02*
X58264285Y-87335714D01*
X58378571Y-87335714D01*
X58407142Y-87350000D01*
X58421428Y-87364285D01*
X58435714Y-87392857D01*
X58435714Y-87435714D01*
X58421428Y-87464285D01*
X58407142Y-87478571D01*
X58378571Y-87492857D01*
X58264285Y-87492857D01*
X58535714Y-87435714D02*
X58607142Y-87635714D01*
X58678571Y-87435714D01*
X58835714Y-87635714D02*
X58807142Y-87621428D01*
X58792857Y-87607142D01*
X58778571Y-87578571D01*
X58778571Y-87492857D01*
X58792857Y-87464285D01*
X58807142Y-87450000D01*
X58835714Y-87435714D01*
X58878571Y-87435714D01*
X58907142Y-87450000D01*
X58921428Y-87464285D01*
X58935714Y-87492857D01*
X58935714Y-87578571D01*
X58921428Y-87607142D01*
X58907142Y-87621428D01*
X58878571Y-87635714D01*
X58835714Y-87635714D01*
X59107142Y-87635714D02*
X59078571Y-87621428D01*
X59064285Y-87592857D01*
X59064285Y-87335714D01*
X59178571Y-87435714D02*
X59292857Y-87435714D01*
X59221428Y-87335714D02*
X59221428Y-87592857D01*
X59235714Y-87621428D01*
X59264285Y-87635714D01*
X59292857Y-87635714D01*
X59521428Y-87635714D02*
X59521428Y-87478571D01*
X59507142Y-87450000D01*
X59478571Y-87435714D01*
X59421428Y-87435714D01*
X59392857Y-87450000D01*
X59521428Y-87621428D02*
X59492857Y-87635714D01*
X59421428Y-87635714D01*
X59392857Y-87621428D01*
X59378571Y-87592857D01*
X59378571Y-87564285D01*
X59392857Y-87535714D01*
X59421428Y-87521428D01*
X59492857Y-87521428D01*
X59521428Y-87507142D01*
X59792857Y-87435714D02*
X59792857Y-87678571D01*
X59778571Y-87707142D01*
X59764285Y-87721428D01*
X59735714Y-87735714D01*
X59692857Y-87735714D01*
X59664285Y-87721428D01*
X59792857Y-87621428D02*
X59764285Y-87635714D01*
X59707142Y-87635714D01*
X59678571Y-87621428D01*
X59664285Y-87607142D01*
X59650000Y-87578571D01*
X59650000Y-87492857D01*
X59664285Y-87464285D01*
X59678571Y-87450000D01*
X59707142Y-87435714D01*
X59764285Y-87435714D01*
X59792857Y-87450000D01*
X60050000Y-87621428D02*
X60021428Y-87635714D01*
X59964285Y-87635714D01*
X59935714Y-87621428D01*
X59921428Y-87592857D01*
X59921428Y-87478571D01*
X59935714Y-87450000D01*
X59964285Y-87435714D01*
X60021428Y-87435714D01*
X60050000Y-87450000D01*
X60064285Y-87478571D01*
X60064285Y-87507142D01*
X59921428Y-87535714D01*
X60164285Y-87335714D02*
X60350000Y-87335714D01*
X60250000Y-87450000D01*
X60292857Y-87450000D01*
X60321428Y-87464285D01*
X60335714Y-87478571D01*
X60350000Y-87507142D01*
X60350000Y-87578571D01*
X60335714Y-87607142D01*
X60321428Y-87621428D01*
X60292857Y-87635714D01*
X60207142Y-87635714D01*
X60178571Y-87621428D01*
X60164285Y-87607142D01*
D10*
%TO.C,L2*%
X42583333Y-87952380D02*
X42107142Y-87952380D01*
X42107142Y-86952380D01*
X42869047Y-87047619D02*
X42916666Y-87000000D01*
X43011904Y-86952380D01*
X43250000Y-86952380D01*
X43345238Y-87000000D01*
X43392857Y-87047619D01*
X43440476Y-87142857D01*
X43440476Y-87238095D01*
X43392857Y-87380952D01*
X42821428Y-87952380D01*
X43440476Y-87952380D01*
%TO.C,U7*%
X62238095Y-70952380D02*
X62238095Y-71761904D01*
X62285714Y-71857142D01*
X62333333Y-71904761D01*
X62428571Y-71952380D01*
X62619047Y-71952380D01*
X62714285Y-71904761D01*
X62761904Y-71857142D01*
X62809523Y-71761904D01*
X62809523Y-70952380D01*
X63190476Y-70952380D02*
X63857142Y-70952380D01*
X63428571Y-71952380D01*
D11*
%TO.C,Rvoltage2*%
X48035714Y-61364285D02*
X47892857Y-61464285D01*
X48035714Y-61535714D02*
X47735714Y-61535714D01*
X47735714Y-61421428D01*
X47750000Y-61392857D01*
X47764285Y-61378571D01*
X47792857Y-61364285D01*
X47835714Y-61364285D01*
X47864285Y-61378571D01*
X47878571Y-61392857D01*
X47892857Y-61421428D01*
X47892857Y-61535714D01*
X47835714Y-61264285D02*
X48035714Y-61192857D01*
X47835714Y-61121428D01*
X48035714Y-60964285D02*
X48021428Y-60992857D01*
X48007142Y-61007142D01*
X47978571Y-61021428D01*
X47892857Y-61021428D01*
X47864285Y-61007142D01*
X47850000Y-60992857D01*
X47835714Y-60964285D01*
X47835714Y-60921428D01*
X47850000Y-60892857D01*
X47864285Y-60878571D01*
X47892857Y-60864285D01*
X47978571Y-60864285D01*
X48007142Y-60878571D01*
X48021428Y-60892857D01*
X48035714Y-60921428D01*
X48035714Y-60964285D01*
X48035714Y-60692857D02*
X48021428Y-60721428D01*
X47992857Y-60735714D01*
X47735714Y-60735714D01*
X47835714Y-60621428D02*
X47835714Y-60507142D01*
X47735714Y-60578571D02*
X47992857Y-60578571D01*
X48021428Y-60564285D01*
X48035714Y-60535714D01*
X48035714Y-60507142D01*
X48035714Y-60278571D02*
X47878571Y-60278571D01*
X47850000Y-60292857D01*
X47835714Y-60321428D01*
X47835714Y-60378571D01*
X47850000Y-60407142D01*
X48021428Y-60278571D02*
X48035714Y-60307142D01*
X48035714Y-60378571D01*
X48021428Y-60407142D01*
X47992857Y-60421428D01*
X47964285Y-60421428D01*
X47935714Y-60407142D01*
X47921428Y-60378571D01*
X47921428Y-60307142D01*
X47907142Y-60278571D01*
X47835714Y-60007142D02*
X48078571Y-60007142D01*
X48107142Y-60021428D01*
X48121428Y-60035714D01*
X48135714Y-60064285D01*
X48135714Y-60107142D01*
X48121428Y-60135714D01*
X48021428Y-60007142D02*
X48035714Y-60035714D01*
X48035714Y-60092857D01*
X48021428Y-60121428D01*
X48007142Y-60135714D01*
X47978571Y-60150000D01*
X47892857Y-60150000D01*
X47864285Y-60135714D01*
X47850000Y-60121428D01*
X47835714Y-60092857D01*
X47835714Y-60035714D01*
X47850000Y-60007142D01*
X48021428Y-59750000D02*
X48035714Y-59778571D01*
X48035714Y-59835714D01*
X48021428Y-59864285D01*
X47992857Y-59878571D01*
X47878571Y-59878571D01*
X47850000Y-59864285D01*
X47835714Y-59835714D01*
X47835714Y-59778571D01*
X47850000Y-59750000D01*
X47878571Y-59735714D01*
X47907142Y-59735714D01*
X47935714Y-59878571D01*
X47764285Y-59621428D02*
X47750000Y-59607142D01*
X47735714Y-59578571D01*
X47735714Y-59507142D01*
X47750000Y-59478571D01*
X47764285Y-59464285D01*
X47792857Y-59450000D01*
X47821428Y-59450000D01*
X47864285Y-59464285D01*
X48035714Y-59635714D01*
X48035714Y-59450000D01*
D10*
%TO.C,R24*%
X93157142Y-28852380D02*
X92823809Y-28376190D01*
X92585714Y-28852380D02*
X92585714Y-27852380D01*
X92966666Y-27852380D01*
X93061904Y-27900000D01*
X93109523Y-27947619D01*
X93157142Y-28042857D01*
X93157142Y-28185714D01*
X93109523Y-28280952D01*
X93061904Y-28328571D01*
X92966666Y-28376190D01*
X92585714Y-28376190D01*
X93538095Y-27947619D02*
X93585714Y-27900000D01*
X93680952Y-27852380D01*
X93919047Y-27852380D01*
X94014285Y-27900000D01*
X94061904Y-27947619D01*
X94109523Y-28042857D01*
X94109523Y-28138095D01*
X94061904Y-28280952D01*
X93490476Y-28852380D01*
X94109523Y-28852380D01*
X94966666Y-28185714D02*
X94966666Y-28852380D01*
X94728571Y-27804761D02*
X94490476Y-28519047D01*
X95109523Y-28519047D01*
%TO.C,C31*%
X52500000Y-99950000D02*
X52533333Y-99983333D01*
X52566666Y-100083333D01*
X52566666Y-100150000D01*
X52533333Y-100250000D01*
X52466666Y-100316666D01*
X52400000Y-100350000D01*
X52266666Y-100383333D01*
X52166666Y-100383333D01*
X52033333Y-100350000D01*
X51966666Y-100316666D01*
X51900000Y-100250000D01*
X51866666Y-100150000D01*
X51866666Y-100083333D01*
X51900000Y-99983333D01*
X51933333Y-99950000D01*
X51866666Y-99716666D02*
X51866666Y-99283333D01*
X52133333Y-99516666D01*
X52133333Y-99416666D01*
X52166666Y-99350000D01*
X52200000Y-99316666D01*
X52266666Y-99283333D01*
X52433333Y-99283333D01*
X52500000Y-99316666D01*
X52533333Y-99350000D01*
X52566666Y-99416666D01*
X52566666Y-99616666D01*
X52533333Y-99683333D01*
X52500000Y-99716666D01*
X52566666Y-98616666D02*
X52566666Y-99016666D01*
X52566666Y-98816666D02*
X51866666Y-98816666D01*
X51966666Y-98883333D01*
X52033333Y-98950000D01*
X52066666Y-99016666D01*
%TO.C,D11*%
X78285714Y-80452380D02*
X78285714Y-79452380D01*
X78523809Y-79452380D01*
X78666666Y-79500000D01*
X78761904Y-79595238D01*
X78809523Y-79690476D01*
X78857142Y-79880952D01*
X78857142Y-80023809D01*
X78809523Y-80214285D01*
X78761904Y-80309523D01*
X78666666Y-80404761D01*
X78523809Y-80452380D01*
X78285714Y-80452380D01*
X79809523Y-80452380D02*
X79238095Y-80452380D01*
X79523809Y-80452380D02*
X79523809Y-79452380D01*
X79428571Y-79595238D01*
X79333333Y-79690476D01*
X79238095Y-79738095D01*
X80761904Y-80452380D02*
X80190476Y-80452380D01*
X80476190Y-80452380D02*
X80476190Y-79452380D01*
X80380952Y-79595238D01*
X80285714Y-79690476D01*
X80190476Y-79738095D01*
%TO.C,C20*%
X63107142Y-56392857D02*
X63154761Y-56440476D01*
X63202380Y-56583333D01*
X63202380Y-56678571D01*
X63154761Y-56821428D01*
X63059523Y-56916666D01*
X62964285Y-56964285D01*
X62773809Y-57011904D01*
X62630952Y-57011904D01*
X62440476Y-56964285D01*
X62345238Y-56916666D01*
X62250000Y-56821428D01*
X62202380Y-56678571D01*
X62202380Y-56583333D01*
X62250000Y-56440476D01*
X62297619Y-56392857D01*
X62297619Y-56011904D02*
X62250000Y-55964285D01*
X62202380Y-55869047D01*
X62202380Y-55630952D01*
X62250000Y-55535714D01*
X62297619Y-55488095D01*
X62392857Y-55440476D01*
X62488095Y-55440476D01*
X62630952Y-55488095D01*
X63202380Y-56059523D01*
X63202380Y-55440476D01*
X62202380Y-54821428D02*
X62202380Y-54726190D01*
X62250000Y-54630952D01*
X62297619Y-54583333D01*
X62392857Y-54535714D01*
X62583333Y-54488095D01*
X62821428Y-54488095D01*
X63011904Y-54535714D01*
X63107142Y-54583333D01*
X63154761Y-54630952D01*
X63202380Y-54726190D01*
X63202380Y-54821428D01*
X63154761Y-54916666D01*
X63107142Y-54964285D01*
X63011904Y-55011904D01*
X62821428Y-55059523D01*
X62583333Y-55059523D01*
X62392857Y-55011904D01*
X62297619Y-54964285D01*
X62250000Y-54916666D01*
X62202380Y-54821428D01*
%TO.C,C37*%
X43357142Y-97557142D02*
X43309523Y-97604761D01*
X43166666Y-97652380D01*
X43071428Y-97652380D01*
X42928571Y-97604761D01*
X42833333Y-97509523D01*
X42785714Y-97414285D01*
X42738095Y-97223809D01*
X42738095Y-97080952D01*
X42785714Y-96890476D01*
X42833333Y-96795238D01*
X42928571Y-96700000D01*
X43071428Y-96652380D01*
X43166666Y-96652380D01*
X43309523Y-96700000D01*
X43357142Y-96747619D01*
X43690476Y-96652380D02*
X44309523Y-96652380D01*
X43976190Y-97033333D01*
X44119047Y-97033333D01*
X44214285Y-97080952D01*
X44261904Y-97128571D01*
X44309523Y-97223809D01*
X44309523Y-97461904D01*
X44261904Y-97557142D01*
X44214285Y-97604761D01*
X44119047Y-97652380D01*
X43833333Y-97652380D01*
X43738095Y-97604761D01*
X43690476Y-97557142D01*
X44642857Y-96652380D02*
X45309523Y-96652380D01*
X44880952Y-97652380D01*
%TO.C,C21*%
X44357142Y-70416562D02*
X44309523Y-70464181D01*
X44166666Y-70511800D01*
X44071428Y-70511800D01*
X43928571Y-70464181D01*
X43833333Y-70368943D01*
X43785714Y-70273705D01*
X43738095Y-70083229D01*
X43738095Y-69940372D01*
X43785714Y-69749896D01*
X43833333Y-69654658D01*
X43928571Y-69559420D01*
X44071428Y-69511800D01*
X44166666Y-69511800D01*
X44309523Y-69559420D01*
X44357142Y-69607039D01*
X44738095Y-69607039D02*
X44785714Y-69559420D01*
X44880952Y-69511800D01*
X45119047Y-69511800D01*
X45214285Y-69559420D01*
X45261904Y-69607039D01*
X45309523Y-69702277D01*
X45309523Y-69797515D01*
X45261904Y-69940372D01*
X44690476Y-70511800D01*
X45309523Y-70511800D01*
X46261904Y-70511800D02*
X45690476Y-70511800D01*
X45976190Y-70511800D02*
X45976190Y-69511800D01*
X45880952Y-69654658D01*
X45785714Y-69749896D01*
X45690476Y-69797515D01*
%TO.C,C13*%
X81857142Y-93777857D02*
X81904761Y-93825476D01*
X81952380Y-93968333D01*
X81952380Y-94063571D01*
X81904761Y-94206428D01*
X81809523Y-94301666D01*
X81714285Y-94349285D01*
X81523809Y-94396904D01*
X81380952Y-94396904D01*
X81190476Y-94349285D01*
X81095238Y-94301666D01*
X81000000Y-94206428D01*
X80952380Y-94063571D01*
X80952380Y-93968333D01*
X81000000Y-93825476D01*
X81047619Y-93777857D01*
X81952380Y-92825476D02*
X81952380Y-93396904D01*
X81952380Y-93111190D02*
X80952380Y-93111190D01*
X81095238Y-93206428D01*
X81190476Y-93301666D01*
X81238095Y-93396904D01*
X80952380Y-92492142D02*
X80952380Y-91873095D01*
X81333333Y-92206428D01*
X81333333Y-92063571D01*
X81380952Y-91968333D01*
X81428571Y-91920714D01*
X81523809Y-91873095D01*
X81761904Y-91873095D01*
X81857142Y-91920714D01*
X81904761Y-91968333D01*
X81952380Y-92063571D01*
X81952380Y-92349285D01*
X81904761Y-92444523D01*
X81857142Y-92492142D01*
%TO.C,R3*%
X83333333Y-92157380D02*
X83000000Y-91681190D01*
X82761904Y-92157380D02*
X82761904Y-91157380D01*
X83142857Y-91157380D01*
X83238095Y-91205000D01*
X83285714Y-91252619D01*
X83333333Y-91347857D01*
X83333333Y-91490714D01*
X83285714Y-91585952D01*
X83238095Y-91633571D01*
X83142857Y-91681190D01*
X82761904Y-91681190D01*
X83666666Y-91157380D02*
X84285714Y-91157380D01*
X83952380Y-91538333D01*
X84095238Y-91538333D01*
X84190476Y-91585952D01*
X84238095Y-91633571D01*
X84285714Y-91728809D01*
X84285714Y-91966904D01*
X84238095Y-92062142D01*
X84190476Y-92109761D01*
X84095238Y-92157380D01*
X83809523Y-92157380D01*
X83714285Y-92109761D01*
X83666666Y-92062142D01*
%TO.C,C34*%
X51107142Y-85142857D02*
X51154761Y-85190476D01*
X51202380Y-85333333D01*
X51202380Y-85428571D01*
X51154761Y-85571428D01*
X51059523Y-85666666D01*
X50964285Y-85714285D01*
X50773809Y-85761904D01*
X50630952Y-85761904D01*
X50440476Y-85714285D01*
X50345238Y-85666666D01*
X50250000Y-85571428D01*
X50202380Y-85428571D01*
X50202380Y-85333333D01*
X50250000Y-85190476D01*
X50297619Y-85142857D01*
X50202380Y-84809523D02*
X50202380Y-84190476D01*
X50583333Y-84523809D01*
X50583333Y-84380952D01*
X50630952Y-84285714D01*
X50678571Y-84238095D01*
X50773809Y-84190476D01*
X51011904Y-84190476D01*
X51107142Y-84238095D01*
X51154761Y-84285714D01*
X51202380Y-84380952D01*
X51202380Y-84666666D01*
X51154761Y-84761904D01*
X51107142Y-84809523D01*
X50535714Y-83333333D02*
X51202380Y-83333333D01*
X50154761Y-83571428D02*
X50869047Y-83809523D01*
X50869047Y-83190476D01*
%TO.C,D19*%
X44035714Y-86952380D02*
X44035714Y-85952380D01*
X44273809Y-85952380D01*
X44416666Y-86000000D01*
X44511904Y-86095238D01*
X44559523Y-86190476D01*
X44607142Y-86380952D01*
X44607142Y-86523809D01*
X44559523Y-86714285D01*
X44511904Y-86809523D01*
X44416666Y-86904761D01*
X44273809Y-86952380D01*
X44035714Y-86952380D01*
X45559523Y-86952380D02*
X44988095Y-86952380D01*
X45273809Y-86952380D02*
X45273809Y-85952380D01*
X45178571Y-86095238D01*
X45083333Y-86190476D01*
X44988095Y-86238095D01*
X46035714Y-86952380D02*
X46226190Y-86952380D01*
X46321428Y-86904761D01*
X46369047Y-86857142D01*
X46464285Y-86714285D01*
X46511904Y-86523809D01*
X46511904Y-86142857D01*
X46464285Y-86047619D01*
X46416666Y-86000000D01*
X46321428Y-85952380D01*
X46130952Y-85952380D01*
X46035714Y-86000000D01*
X45988095Y-86047619D01*
X45940476Y-86142857D01*
X45940476Y-86380952D01*
X45988095Y-86476190D01*
X46035714Y-86523809D01*
X46130952Y-86571428D01*
X46321428Y-86571428D01*
X46416666Y-86523809D01*
X46464285Y-86476190D01*
X46511904Y-86380952D01*
%TO.C,R22*%
X53952380Y-81642857D02*
X53476190Y-81976190D01*
X53952380Y-82214285D02*
X52952380Y-82214285D01*
X52952380Y-81833333D01*
X53000000Y-81738095D01*
X53047619Y-81690476D01*
X53142857Y-81642857D01*
X53285714Y-81642857D01*
X53380952Y-81690476D01*
X53428571Y-81738095D01*
X53476190Y-81833333D01*
X53476190Y-82214285D01*
X53047619Y-81261904D02*
X53000000Y-81214285D01*
X52952380Y-81119047D01*
X52952380Y-80880952D01*
X53000000Y-80785714D01*
X53047619Y-80738095D01*
X53142857Y-80690476D01*
X53238095Y-80690476D01*
X53380952Y-80738095D01*
X53952380Y-81309523D01*
X53952380Y-80690476D01*
X53047619Y-80309523D02*
X53000000Y-80261904D01*
X52952380Y-80166666D01*
X52952380Y-79928571D01*
X53000000Y-79833333D01*
X53047619Y-79785714D01*
X53142857Y-79738095D01*
X53238095Y-79738095D01*
X53380952Y-79785714D01*
X53952380Y-80357142D01*
X53952380Y-79738095D01*
%TO.C,D4*%
X78261904Y-31452380D02*
X78261904Y-30452380D01*
X78500000Y-30452380D01*
X78642857Y-30500000D01*
X78738095Y-30595238D01*
X78785714Y-30690476D01*
X78833333Y-30880952D01*
X78833333Y-31023809D01*
X78785714Y-31214285D01*
X78738095Y-31309523D01*
X78642857Y-31404761D01*
X78500000Y-31452380D01*
X78261904Y-31452380D01*
X79690476Y-30785714D02*
X79690476Y-31452380D01*
X79452380Y-30404761D02*
X79214285Y-31119047D01*
X79833333Y-31119047D01*
%TO.C,U10*%
X57202380Y-94738095D02*
X58011904Y-94738095D01*
X58107142Y-94690476D01*
X58154761Y-94642857D01*
X58202380Y-94547619D01*
X58202380Y-94357142D01*
X58154761Y-94261904D01*
X58107142Y-94214285D01*
X58011904Y-94166666D01*
X57202380Y-94166666D01*
X58202380Y-93166666D02*
X58202380Y-93738095D01*
X58202380Y-93452380D02*
X57202380Y-93452380D01*
X57345238Y-93547619D01*
X57440476Y-93642857D01*
X57488095Y-93738095D01*
X57202380Y-92547619D02*
X57202380Y-92452380D01*
X57250000Y-92357142D01*
X57297619Y-92309523D01*
X57392857Y-92261904D01*
X57583333Y-92214285D01*
X57821428Y-92214285D01*
X58011904Y-92261904D01*
X58107142Y-92309523D01*
X58154761Y-92357142D01*
X58202380Y-92452380D01*
X58202380Y-92547619D01*
X58154761Y-92642857D01*
X58107142Y-92690476D01*
X58011904Y-92738095D01*
X57821428Y-92785714D01*
X57583333Y-92785714D01*
X57392857Y-92738095D01*
X57297619Y-92690476D01*
X57250000Y-92642857D01*
X57202380Y-92547619D01*
D13*
%TO.C,1WIRE1*%
X69890000Y-24547500D02*
X80110000Y-24547500D01*
X80110000Y-20527500D02*
X69890000Y-20527500D01*
X70390000Y-22837500D02*
X69890000Y-22837500D01*
X79110000Y-22027500D02*
X79110000Y-20527500D01*
X80110000Y-24547500D02*
X80110000Y-20527500D01*
X70890000Y-22027500D02*
X70890000Y-20527500D01*
X69890000Y-22027500D02*
X70890000Y-22027500D01*
X80410000Y-20227500D02*
X77910000Y-20227500D01*
X79610000Y-24047500D02*
X70390000Y-24047500D01*
X69890000Y-20527500D02*
X69890000Y-24547500D01*
X80110000Y-22027500D02*
X79110000Y-22027500D01*
X70390000Y-24047500D02*
X70390000Y-22837500D01*
X79610000Y-22837500D02*
X79610000Y-24047500D01*
X80410000Y-22727500D02*
X80410000Y-20227500D01*
X80110000Y-22837500D02*
X79610000Y-22837500D01*
%TO.C,Boot1*%
X41650000Y-45440000D02*
X45350000Y-45440000D01*
X41650000Y-51560000D02*
X41650000Y-45440000D01*
X45350000Y-45440000D02*
X45350000Y-51560000D01*
X45350000Y-51560000D02*
X41650000Y-51560000D01*
%TO.C,C1*%
X46265000Y-52011252D02*
X46265000Y-51488748D01*
X47735000Y-52011252D02*
X47735000Y-51488748D01*
%TO.C,C2*%
X44238748Y-30265000D02*
X44761252Y-30265000D01*
X44238748Y-31735000D02*
X44761252Y-31735000D01*
%TO.C,C3*%
X44761252Y-29235000D02*
X44238748Y-29235000D01*
X44761252Y-27765000D02*
X44238748Y-27765000D01*
%TO.C,C4*%
X67311252Y-42235000D02*
X66788748Y-42235000D01*
X67311252Y-40765000D02*
X66788748Y-40765000D01*
%TO.C,C5*%
X47735000Y-34488748D02*
X47735000Y-35011252D01*
X46265000Y-34488748D02*
X46265000Y-35011252D01*
%TO.C,C6*%
X55761252Y-45235000D02*
X55238748Y-45235000D01*
X55761252Y-43765000D02*
X55238748Y-43765000D01*
%TO.C,C8*%
X80037150Y-52288748D02*
X80037150Y-53711252D01*
X78217150Y-52288748D02*
X78217150Y-53711252D01*
%TO.C,C10*%
X70010000Y-35359420D02*
X70010000Y-35640580D01*
X68990000Y-35359420D02*
X68990000Y-35640580D01*
%TO.C,D3*%
X75920000Y-27847500D02*
X75920000Y-26387500D01*
X79080000Y-27847500D02*
X78150000Y-27847500D01*
X75920000Y-27847500D02*
X76850000Y-27847500D01*
X79080000Y-27847500D02*
X79080000Y-25687500D01*
%TO.C,D14*%
X86235000Y-24865978D02*
X86235000Y-25795978D01*
X86235000Y-28025978D02*
X86235000Y-27095978D01*
X86235000Y-24865978D02*
X87695000Y-24865978D01*
X86235000Y-28025978D02*
X88395000Y-28025978D01*
%TO.C,D15*%
X96260000Y-24940000D02*
X97720000Y-24940000D01*
X96260000Y-24940000D02*
X96260000Y-25870000D01*
X96260000Y-28100000D02*
X98420000Y-28100000D01*
X96260000Y-28100000D02*
X96260000Y-27170000D01*
%TO.C,D16*%
X106815000Y-28050000D02*
X106815000Y-27120000D01*
X106815000Y-28050000D02*
X108975000Y-28050000D01*
X106815000Y-24890000D02*
X108275000Y-24890000D01*
X106815000Y-24890000D02*
X106815000Y-25820000D01*
%TO.C,D17*%
X116530000Y-27880000D02*
X116530000Y-26950000D01*
X116530000Y-27880000D02*
X118690000Y-27880000D01*
X116530000Y-24720000D02*
X116530000Y-25650000D01*
X116530000Y-24720000D02*
X117990000Y-24720000D01*
%TO.C,J2*%
X44495000Y-54920000D02*
X49635000Y-54920000D01*
X41895000Y-57580000D02*
X41895000Y-56250000D01*
X43225000Y-57580000D02*
X41895000Y-57580000D01*
X49635000Y-57580000D02*
X49635000Y-54920000D01*
X44495000Y-57580000D02*
X49635000Y-57580000D01*
X44495000Y-57580000D02*
X44495000Y-54920000D01*
%TO.C,Q3*%
X106320000Y-56530000D02*
X106320000Y-55430000D01*
X112950000Y-56530000D02*
X112680000Y-56530000D01*
X112680000Y-56530000D02*
X112680000Y-53700000D01*
X106050000Y-56530000D02*
X106320000Y-56530000D01*
X106050000Y-58030000D02*
X106050000Y-56530000D01*
X112950000Y-58030000D02*
X112950000Y-56530000D01*
%TO.C,Q4*%
X121950000Y-58030000D02*
X121950000Y-56530000D01*
X115050000Y-56530000D02*
X115320000Y-56530000D01*
X121680000Y-56530000D02*
X121680000Y-53700000D01*
X115320000Y-56530000D02*
X115320000Y-55430000D01*
X115050000Y-58030000D02*
X115050000Y-56530000D01*
X121950000Y-56530000D02*
X121680000Y-56530000D01*
%TO.C,Q7*%
X121705000Y-38605000D02*
X121705000Y-35775000D01*
X121975000Y-40105000D02*
X121975000Y-38605000D01*
X115075000Y-38605000D02*
X115345000Y-38605000D01*
X115075000Y-40105000D02*
X115075000Y-38605000D01*
X121975000Y-38605000D02*
X121705000Y-38605000D01*
X115345000Y-38605000D02*
X115345000Y-37505000D01*
%TO.C,Q8*%
X106050000Y-40030000D02*
X106050000Y-38530000D01*
X106320000Y-38530000D02*
X106320000Y-37430000D01*
X112680000Y-38530000D02*
X112680000Y-35700000D01*
X112950000Y-38530000D02*
X112680000Y-38530000D01*
X106050000Y-38530000D02*
X106320000Y-38530000D01*
X112950000Y-40030000D02*
X112950000Y-38530000D01*
%TO.C,Q11*%
X103950000Y-56530000D02*
X103680000Y-56530000D01*
X103950000Y-58030000D02*
X103950000Y-56530000D01*
X97050000Y-58030000D02*
X97050000Y-56530000D01*
X97320000Y-56530000D02*
X97320000Y-55430000D01*
X103680000Y-56530000D02*
X103680000Y-53700000D01*
X97050000Y-56530000D02*
X97320000Y-56530000D01*
%TO.C,Q12*%
X94950000Y-56530000D02*
X94680000Y-56530000D01*
X94680000Y-56530000D02*
X94680000Y-53700000D01*
X88320000Y-56530000D02*
X88320000Y-55430000D01*
X88050000Y-58030000D02*
X88050000Y-56530000D01*
X94950000Y-58030000D02*
X94950000Y-56530000D01*
X88050000Y-56530000D02*
X88320000Y-56530000D01*
%TO.C,Q15*%
X103950000Y-38530000D02*
X103680000Y-38530000D01*
X103950000Y-40030000D02*
X103950000Y-38530000D01*
X103680000Y-38530000D02*
X103680000Y-35700000D01*
X97050000Y-38530000D02*
X97320000Y-38530000D01*
X97050000Y-40030000D02*
X97050000Y-38530000D01*
X97320000Y-38530000D02*
X97320000Y-37430000D01*
%TO.C,Q16*%
X94680000Y-38530000D02*
X94680000Y-35700000D01*
X88320000Y-38530000D02*
X88320000Y-37430000D01*
X88050000Y-38530000D02*
X88320000Y-38530000D01*
X94950000Y-40030000D02*
X94950000Y-38530000D01*
X88050000Y-40030000D02*
X88050000Y-38530000D01*
X94950000Y-38530000D02*
X94680000Y-38530000D01*
%TO.C,R1*%
X72522500Y-27324758D02*
X72522500Y-26850242D01*
X71477500Y-27324758D02*
X71477500Y-26850242D01*
%TO.C,R2*%
X75022500Y-27324758D02*
X75022500Y-26850242D01*
X73977500Y-27324758D02*
X73977500Y-26850242D01*
%TO.C,R4*%
X83214892Y-46022500D02*
X83689408Y-46022500D01*
X83214892Y-44977500D02*
X83689408Y-44977500D01*
%TO.C,R6*%
X82889892Y-52977500D02*
X83364408Y-52977500D01*
X82889892Y-54022500D02*
X83364408Y-54022500D01*
%TO.C,R8*%
X83412742Y-31977500D02*
X83887258Y-31977500D01*
X83412742Y-33022500D02*
X83887258Y-33022500D01*
%TO.C,R10*%
X83412742Y-40477500D02*
X83887258Y-40477500D01*
X83412742Y-41522500D02*
X83887258Y-41522500D01*
%TO.C,R13*%
X46477500Y-45012742D02*
X46477500Y-45487258D01*
X47522500Y-45012742D02*
X47522500Y-45487258D01*
%TO.C,R14*%
X49850242Y-45022500D02*
X50324758Y-45022500D01*
X49850242Y-43977500D02*
X50324758Y-43977500D01*
%TO.C,R15*%
X50324758Y-47272500D02*
X49850242Y-47272500D01*
X50324758Y-46227500D02*
X49850242Y-46227500D01*
%TO.C,R16*%
X55262742Y-47522500D02*
X55737258Y-47522500D01*
X55262742Y-46477500D02*
X55737258Y-46477500D01*
%TO.C,R17*%
X47522500Y-41487258D02*
X47522500Y-41012742D01*
X46477500Y-41487258D02*
X46477500Y-41012742D01*
%TO.C,Reset1*%
X41650000Y-41060000D02*
X41650000Y-34940000D01*
X45350000Y-41060000D02*
X41650000Y-41060000D01*
X45350000Y-34940000D02*
X45350000Y-41060000D01*
X41650000Y-34940000D02*
X45350000Y-34940000D01*
%TO.C,U1*%
X122290000Y-59200000D02*
X122290000Y-62800000D01*
X122301522Y-62838478D02*
G75*
G03*
X126740000Y-61000000I1838478J1838478D01*
G01*
X126740001Y-61000000D02*
G75*
G03*
X122301522Y-59161522I-2600001J0D01*
G01*
%TO.C,U3*%
X73627150Y-52560000D02*
X75577150Y-52560000D01*
X73627150Y-47440000D02*
X75577150Y-47440000D01*
X73627150Y-52560000D02*
X71677150Y-52560000D01*
X73627150Y-47440000D02*
X70177150Y-47440000D01*
%TO.C,U4*%
X67120000Y-39630000D02*
X66120000Y-39630000D01*
X48880000Y-13885000D02*
X67120000Y-13885000D01*
X48880000Y-20305000D02*
X48500000Y-20305000D01*
X48880000Y-13885000D02*
X48880000Y-20305000D01*
X67120000Y-13885000D02*
X67120000Y-20305000D01*
X48880000Y-39630000D02*
X49880000Y-39630000D01*
X48880000Y-38850000D02*
X48880000Y-39630000D01*
X67120000Y-38850000D02*
X67120000Y-39630000D01*
%TO.C,U6*%
X74150000Y-34440000D02*
X70700000Y-34440000D01*
X74150000Y-34440000D02*
X76100000Y-34440000D01*
X74150000Y-39560000D02*
X76100000Y-39560000D01*
X74150000Y-39560000D02*
X72200000Y-39560000D01*
%TO.C,U8*%
X63850000Y-43865000D02*
X60090000Y-43865000D01*
X60090000Y-50685000D02*
X60090000Y-49425000D01*
X66100000Y-50685000D02*
X60090000Y-50685000D01*
X60090000Y-43865000D02*
X60090000Y-45125000D01*
%TO.C,Q14*%
X88050000Y-97470000D02*
X88320000Y-97470000D01*
X94680000Y-97470000D02*
X94680000Y-98570000D01*
X94950000Y-97470000D02*
X94680000Y-97470000D01*
X88320000Y-97470000D02*
X88320000Y-100300000D01*
X94950000Y-95970000D02*
X94950000Y-97470000D01*
X88050000Y-95970000D02*
X88050000Y-97470000D01*
%TO.C,Q13*%
X97320000Y-97470000D02*
X97320000Y-100300000D01*
X97050000Y-95970000D02*
X97050000Y-97470000D01*
X103950000Y-97470000D02*
X103680000Y-97470000D01*
X103680000Y-97470000D02*
X103680000Y-98570000D01*
X97050000Y-97470000D02*
X97320000Y-97470000D01*
X103950000Y-95970000D02*
X103950000Y-97470000D01*
%TO.C,Q10*%
X88050000Y-79470000D02*
X88320000Y-79470000D01*
X88320000Y-79470000D02*
X88320000Y-82300000D01*
X94680000Y-79470000D02*
X94680000Y-80570000D01*
X94950000Y-77970000D02*
X94950000Y-79470000D01*
X88050000Y-77970000D02*
X88050000Y-79470000D01*
X94950000Y-79470000D02*
X94680000Y-79470000D01*
%TO.C,Q9*%
X103950000Y-77970000D02*
X103950000Y-79470000D01*
X97320000Y-79470000D02*
X97320000Y-82300000D01*
X103950000Y-79470000D02*
X103680000Y-79470000D01*
X103680000Y-79470000D02*
X103680000Y-80570000D01*
X97050000Y-79470000D02*
X97320000Y-79470000D01*
X97050000Y-77970000D02*
X97050000Y-79470000D01*
%TO.C,Q6*%
X106050000Y-95970000D02*
X106050000Y-97470000D01*
X106050000Y-97470000D02*
X106320000Y-97470000D01*
X112950000Y-95970000D02*
X112950000Y-97470000D01*
X112680000Y-97470000D02*
X112680000Y-98570000D01*
X112950000Y-97470000D02*
X112680000Y-97470000D01*
X106320000Y-97470000D02*
X106320000Y-100300000D01*
%TO.C,Q5*%
X121975000Y-97470000D02*
X121705000Y-97470000D01*
X115075000Y-95970000D02*
X115075000Y-97470000D01*
X121975000Y-95970000D02*
X121975000Y-97470000D01*
X121705000Y-97470000D02*
X121705000Y-98570000D01*
X115075000Y-97470000D02*
X115345000Y-97470000D01*
X115345000Y-97470000D02*
X115345000Y-100300000D01*
%TO.C,Q2*%
X121680000Y-79470000D02*
X121680000Y-80570000D01*
X115320000Y-79470000D02*
X115320000Y-82300000D01*
X115050000Y-77970000D02*
X115050000Y-79470000D01*
X121950000Y-77970000D02*
X121950000Y-79470000D01*
X121950000Y-79470000D02*
X121680000Y-79470000D01*
X115050000Y-79470000D02*
X115320000Y-79470000D01*
%TO.C,Q1*%
X106050000Y-77970000D02*
X106050000Y-79470000D01*
X106320000Y-79470000D02*
X106320000Y-82300000D01*
X112950000Y-79470000D02*
X112680000Y-79470000D01*
X106050000Y-79470000D02*
X106320000Y-79470000D01*
X112950000Y-77970000D02*
X112950000Y-79470000D01*
X112680000Y-79470000D02*
X112680000Y-80570000D01*
%TO.C,U5*%
X74650000Y-82940000D02*
X71200000Y-82940000D01*
X74650000Y-82940000D02*
X76600000Y-82940000D01*
X74650000Y-88060000D02*
X72700000Y-88060000D01*
X74650000Y-88060000D02*
X76600000Y-88060000D01*
%TO.C,R9*%
X83912742Y-88477500D02*
X84387258Y-88477500D01*
X83912742Y-89522500D02*
X84387258Y-89522500D01*
%TO.C,U2*%
X74000000Y-100195000D02*
X72050000Y-100195000D01*
X74000000Y-95075000D02*
X75950000Y-95075000D01*
X74000000Y-100195000D02*
X75950000Y-100195000D01*
X74000000Y-95075000D02*
X70550000Y-95075000D01*
%TO.C,U9*%
X87350000Y-76570000D02*
X87350000Y-72970000D01*
X82899999Y-74770000D02*
G75*
G03*
X87338478Y-76608478I2600001J0D01*
G01*
X87338478Y-72931522D02*
G75*
G03*
X82900000Y-74770000I-1838478J-1838478D01*
G01*
%TO.C,M1_S1*%
X88500000Y-21190000D02*
X88500000Y-23850000D01*
X88500000Y-21190000D02*
X83360000Y-21190000D01*
X88500000Y-23850000D02*
X83360000Y-23850000D01*
X91100000Y-21190000D02*
X91100000Y-22520000D01*
X83360000Y-21190000D02*
X83360000Y-23850000D01*
X89770000Y-21190000D02*
X91100000Y-21190000D01*
%TO.C,M1_S2*%
X99795000Y-21190000D02*
X101125000Y-21190000D01*
X98525000Y-21190000D02*
X98525000Y-23850000D01*
X98525000Y-23850000D02*
X93385000Y-23850000D01*
X93385000Y-21190000D02*
X93385000Y-23850000D01*
X101125000Y-21190000D02*
X101125000Y-22520000D01*
X98525000Y-21190000D02*
X93385000Y-21190000D01*
%TO.C,M2_S1*%
X111180000Y-21190000D02*
X111180000Y-22520000D01*
X109850000Y-21190000D02*
X111180000Y-21190000D01*
X103440000Y-21190000D02*
X103440000Y-23850000D01*
X108580000Y-21190000D02*
X108580000Y-23850000D01*
X108580000Y-23850000D02*
X103440000Y-23850000D01*
X108580000Y-21190000D02*
X103440000Y-21190000D01*
%TO.C,M2_S2*%
X118520000Y-21170000D02*
X118520000Y-23830000D01*
X113380000Y-21170000D02*
X113380000Y-23830000D01*
X118520000Y-21170000D02*
X113380000Y-21170000D01*
X119790000Y-21170000D02*
X121120000Y-21170000D01*
X118520000Y-23830000D02*
X113380000Y-23830000D01*
X121120000Y-21170000D02*
X121120000Y-22500000D01*
%TO.C,C23*%
X85120000Y-66500000D02*
G75*
G03*
X85120000Y-66500000I-9120000J0D01*
G01*
%TO.C,D9*%
X81250000Y-94635000D02*
X81250000Y-96635000D01*
X81250000Y-94635000D02*
X85150000Y-94635000D01*
X81250000Y-96635000D02*
X85150000Y-96635000D01*
%TO.C,R18*%
X55022500Y-97245276D02*
X55022500Y-97754724D01*
X53977500Y-97245276D02*
X53977500Y-97754724D01*
%TO.C,C36*%
X54140580Y-88010000D02*
X53859420Y-88010000D01*
X54140580Y-86990000D02*
X53859420Y-86990000D01*
%TO.C,D13*%
X81900000Y-87500000D02*
X85800000Y-87500000D01*
X81900000Y-85500000D02*
X81900000Y-87500000D01*
X81900000Y-85500000D02*
X85800000Y-85500000D01*
%TO.C,C35*%
X52890580Y-85490000D02*
X52609420Y-85490000D01*
X52890580Y-86510000D02*
X52609420Y-86510000D01*
%TO.C,C22*%
X48290000Y-70340580D02*
X48290000Y-70059420D01*
X49310000Y-70340580D02*
X49310000Y-70059420D01*
%TO.C,C19*%
X64059420Y-59090000D02*
X64340580Y-59090000D01*
X64059420Y-60110000D02*
X64340580Y-60110000D01*
%TO.C,C17*%
X60859420Y-52510000D02*
X61140580Y-52510000D01*
X60859420Y-51490000D02*
X61140580Y-51490000D01*
%TO.C,C26*%
X81060000Y-82788748D02*
X81060000Y-84211252D01*
X79240000Y-82788748D02*
X79240000Y-84211252D01*
%TO.C,D7*%
X81400000Y-37000000D02*
X81400000Y-39000000D01*
X81400000Y-39000000D02*
X85300000Y-39000000D01*
X81400000Y-37000000D02*
X85300000Y-37000000D01*
%TO.C,C39*%
X49265000Y-50288748D02*
X49265000Y-50811252D01*
X50735000Y-50288748D02*
X50735000Y-50811252D01*
%TO.C,R12*%
X49562742Y-73322500D02*
X50037258Y-73322500D01*
X49562742Y-72277500D02*
X50037258Y-72277500D01*
%TO.C,R7*%
X83912742Y-81522500D02*
X84387258Y-81522500D01*
X83912742Y-80477500D02*
X84387258Y-80477500D01*
%TO.C,Rvoltage4*%
X58022500Y-90262742D02*
X58022500Y-90737258D01*
X56977500Y-90262742D02*
X56977500Y-90737258D01*
%TO.C,R21*%
X59477500Y-59745276D02*
X59477500Y-60254724D01*
X60522500Y-59745276D02*
X60522500Y-60254724D01*
%TO.C,C28*%
X68490000Y-94859420D02*
X68490000Y-95140580D01*
X69510000Y-94859420D02*
X69510000Y-95140580D01*
%TO.C,R23*%
X83362742Y-25777500D02*
X83837258Y-25777500D01*
X83362742Y-26822500D02*
X83837258Y-26822500D01*
%TO.C,D2*%
X80877150Y-50000000D02*
X84777150Y-50000000D01*
X80877150Y-50000000D02*
X80877150Y-52000000D01*
X80877150Y-52000000D02*
X84777150Y-52000000D01*
%TO.C,C15*%
X51110000Y-66859420D02*
X51110000Y-67140580D01*
X50090000Y-66859420D02*
X50090000Y-67140580D01*
%TO.C,R25*%
X103962742Y-26777500D02*
X104437258Y-26777500D01*
X103962742Y-27822500D02*
X104437258Y-27822500D01*
%TO.C,D18*%
X51750000Y-70800000D02*
X51750000Y-59600000D01*
X58250000Y-70800000D02*
X58250000Y-59600000D01*
X58250000Y-70800000D02*
X51750000Y-70800000D01*
%TO.C,R5*%
X83262742Y-100612500D02*
X83737258Y-100612500D01*
X83262742Y-101657500D02*
X83737258Y-101657500D01*
%TO.C,C9*%
X78740000Y-34688748D02*
X78740000Y-36111252D01*
X80560000Y-34688748D02*
X80560000Y-36111252D01*
%TO.C,C29*%
X56735000Y-50238748D02*
X56735000Y-50761252D01*
X55265000Y-50238748D02*
X55265000Y-50761252D01*
%TO.C,C40*%
X51255000Y-50238748D02*
X51255000Y-50761252D01*
X52725000Y-50238748D02*
X52725000Y-50761252D01*
%TO.C,C11*%
X80560000Y-39688748D02*
X80560000Y-41111252D01*
X78740000Y-39688748D02*
X78740000Y-41111252D01*
%TO.C,D10*%
X81250000Y-97635000D02*
X81250000Y-99635000D01*
X81250000Y-97635000D02*
X85150000Y-97635000D01*
X81250000Y-99635000D02*
X85150000Y-99635000D01*
%TO.C,C27*%
X79240000Y-87788748D02*
X79240000Y-89211252D01*
X81060000Y-87788748D02*
X81060000Y-89211252D01*
%TO.C,L1*%
X54700000Y-72700000D02*
X57700000Y-72700000D01*
X67300000Y-72700000D02*
X67300000Y-85300000D01*
X64300000Y-72700000D02*
X67300000Y-72700000D01*
X57700000Y-85300000D02*
X54700000Y-85300000D01*
X54700000Y-85300000D02*
X54700000Y-72700000D01*
X67300000Y-85300000D02*
X64300000Y-85300000D01*
%TO.C,BZ1*%
X68900000Y-101000000D02*
G75*
G03*
X68900000Y-98000001I-6400010J1499999D01*
G01*
X68730000Y-99500000D02*
G75*
G03*
X68730000Y-99500000I-6230000J0D01*
G01*
%TO.C,C33*%
X51010000Y-90365580D02*
X51010000Y-90084420D01*
X49990000Y-90365580D02*
X49990000Y-90084420D01*
%TO.C,R20*%
X55022500Y-100745276D02*
X55022500Y-101254724D01*
X53977500Y-100745276D02*
X53977500Y-101254724D01*
%TO.C,C41*%
X53265000Y-50238748D02*
X53265000Y-50761252D01*
X54735000Y-50238748D02*
X54735000Y-50761252D01*
%TO.C,R19*%
X62272500Y-60254724D02*
X62272500Y-59745276D01*
X61227500Y-60254724D02*
X61227500Y-59745276D01*
%TO.C,C7*%
X80037150Y-47288748D02*
X80037150Y-48711252D01*
X78217150Y-47288748D02*
X78217150Y-48711252D01*
%TO.C,C14*%
X78590000Y-99923748D02*
X78590000Y-101346252D01*
X80410000Y-99923748D02*
X80410000Y-101346252D01*
%TO.C,C24*%
X51110000Y-70340580D02*
X51110000Y-70059420D01*
X50090000Y-70340580D02*
X50090000Y-70059420D01*
%TO.C,Rvoltage1*%
X49322500Y-64037258D02*
X49322500Y-63562742D01*
X48277500Y-64037258D02*
X48277500Y-63562742D01*
%TO.C,D8*%
X77400000Y-93785000D02*
X72000000Y-93785000D01*
X77400000Y-90485000D02*
X72000000Y-90485000D01*
X77400000Y-93785000D02*
X77400000Y-90485000D01*
%TO.C,D6*%
X81400000Y-34000000D02*
X81400000Y-36000000D01*
X81400000Y-34000000D02*
X85300000Y-34000000D01*
X81400000Y-36000000D02*
X85300000Y-36000000D01*
%TO.C,C25*%
X68117150Y-49359420D02*
X68117150Y-49640580D01*
X69137150Y-49359420D02*
X69137150Y-49640580D01*
%TO.C,D20*%
X46750000Y-61350000D02*
X45600000Y-61350000D01*
X41250000Y-68650000D02*
X41250000Y-61350000D01*
X46750000Y-68650000D02*
X46750000Y-61350000D01*
%TO.C,R11*%
X55762742Y-104477500D02*
X56237258Y-104477500D01*
X55762742Y-105522500D02*
X56237258Y-105522500D01*
%TO.C,D12*%
X81900000Y-82500000D02*
X85800000Y-82500000D01*
X81900000Y-82500000D02*
X81900000Y-84500000D01*
X81900000Y-84500000D02*
X85800000Y-84500000D01*
%TO.C,C16*%
X66211252Y-52090000D02*
X64788748Y-52090000D01*
X66211252Y-53910000D02*
X64788748Y-53910000D01*
%TO.C,D5*%
X80877150Y-49000000D02*
X84777150Y-49000000D01*
X80877150Y-47000000D02*
X84777150Y-47000000D01*
X80877150Y-47000000D02*
X80877150Y-49000000D01*
%TO.C,C32*%
X52390580Y-95990000D02*
X52109420Y-95990000D01*
X52390580Y-97010000D02*
X52109420Y-97010000D01*
%TO.C,C30*%
X51580000Y-78940000D02*
X41420000Y-78940000D01*
X50917000Y-81421000D02*
X47741000Y-81421000D01*
X45259000Y-82221000D02*
X42642000Y-82221000D01*
X51545000Y-79500000D02*
X41455000Y-79500000D01*
X51174000Y-80901000D02*
X47741000Y-80901000D01*
X48444000Y-83621000D02*
X44556000Y-83621000D01*
X51407000Y-80221000D02*
X47741000Y-80221000D01*
X49706000Y-82861000D02*
X43294000Y-82861000D01*
X51157000Y-80941000D02*
X47741000Y-80941000D01*
X45259000Y-82381000D02*
X42784000Y-82381000D01*
X49554000Y-82981000D02*
X43446000Y-82981000D01*
X48709000Y-83501000D02*
X44291000Y-83501000D01*
X49445000Y-83061000D02*
X43555000Y-83061000D01*
X51554000Y-79420000D02*
X41446000Y-79420000D01*
X49978000Y-82621000D02*
X47741000Y-82621000D01*
X50289000Y-82301000D02*
X47741000Y-82301000D01*
X50798000Y-81621000D02*
X47741000Y-81621000D01*
X45259000Y-81101000D02*
X41916000Y-81101000D01*
X49270000Y-83181000D02*
X43730000Y-83181000D01*
X50610000Y-81901000D02*
X47741000Y-81901000D01*
X50962000Y-81341000D02*
X47741000Y-81341000D01*
X49606000Y-82941000D02*
X43394000Y-82941000D01*
X45259000Y-82061000D02*
X42511000Y-82061000D01*
X45259000Y-81701000D02*
X42253000Y-81701000D01*
X49656000Y-82901000D02*
X43344000Y-82901000D01*
X45259000Y-80821000D02*
X41793000Y-80821000D01*
X45259000Y-81821000D02*
X42334000Y-81821000D01*
X51524000Y-79661000D02*
X41476000Y-79661000D01*
X45259000Y-81221000D02*
X41975000Y-81221000D01*
X45259000Y-82181000D02*
X42608000Y-82181000D01*
X45259000Y-81581000D02*
X42177000Y-81581000D01*
X48865000Y-83421000D02*
X44135000Y-83421000D01*
X51465000Y-79981000D02*
X41535000Y-79981000D01*
X45259000Y-80261000D02*
X41603000Y-80261000D01*
X50489000Y-82061000D02*
X47741000Y-82061000D01*
X45259000Y-80181000D02*
X41582000Y-80181000D01*
X45259000Y-82621000D02*
X43022000Y-82621000D01*
X50324000Y-82261000D02*
X47741000Y-82261000D01*
X51238000Y-80741000D02*
X47741000Y-80741000D01*
X51397000Y-80261000D02*
X47741000Y-80261000D01*
X50721000Y-81741000D02*
X47741000Y-81741000D01*
X51580000Y-78980000D02*
X41420000Y-78980000D01*
X48346000Y-83661000D02*
X44654000Y-83661000D01*
X49500000Y-83021000D02*
X43500000Y-83021000D01*
X45259000Y-80301000D02*
X41615000Y-80301000D01*
X51568000Y-79260000D02*
X41432000Y-79260000D01*
X45259000Y-80581000D02*
X41703000Y-80581000D01*
X51518000Y-79701000D02*
X41482000Y-79701000D01*
X51447000Y-80061000D02*
X41553000Y-80061000D01*
X51562000Y-79340000D02*
X41438000Y-79340000D01*
X50020000Y-82581000D02*
X47741000Y-82581000D01*
X51374000Y-80341000D02*
X47741000Y-80341000D01*
X50747000Y-81701000D02*
X47741000Y-81701000D01*
X45259000Y-80941000D02*
X41843000Y-80941000D01*
X45259000Y-81141000D02*
X41936000Y-81141000D01*
X50358000Y-82221000D02*
X47741000Y-82221000D01*
X51362000Y-80381000D02*
X47741000Y-80381000D01*
X48939000Y-83381000D02*
X44061000Y-83381000D01*
X51580000Y-78900000D02*
X41420000Y-78900000D01*
X51456000Y-80021000D02*
X41544000Y-80021000D01*
X50983000Y-81301000D02*
X47741000Y-81301000D01*
X45259000Y-80701000D02*
X41746000Y-80701000D01*
X45259000Y-80981000D02*
X41861000Y-80981000D01*
X49936000Y-82661000D02*
X43064000Y-82661000D01*
X51268000Y-80661000D02*
X47741000Y-80661000D01*
X49892000Y-82701000D02*
X43108000Y-82701000D01*
X45259000Y-82141000D02*
X42575000Y-82141000D01*
X51064000Y-81141000D02*
X47741000Y-81141000D01*
X50425000Y-82141000D02*
X47741000Y-82141000D01*
X45259000Y-81781000D02*
X42306000Y-81781000D01*
X51283000Y-80621000D02*
X47741000Y-80621000D01*
X47562000Y-83901000D02*
X45438000Y-83901000D01*
X51121000Y-81021000D02*
X47741000Y-81021000D01*
X45259000Y-81381000D02*
X42060000Y-81381000D01*
X45259000Y-80781000D02*
X41777000Y-80781000D01*
X51004000Y-81261000D02*
X47741000Y-81261000D01*
X45259000Y-82581000D02*
X42980000Y-82581000D01*
X51482000Y-79901000D02*
X41518000Y-79901000D01*
X45259000Y-80341000D02*
X41626000Y-80341000D01*
X45259000Y-82101000D02*
X42543000Y-82101000D01*
X51575000Y-79140000D02*
X41425000Y-79140000D01*
X50871000Y-81501000D02*
X47741000Y-81501000D01*
X51550000Y-79460000D02*
X41450000Y-79460000D01*
X49330000Y-83141000D02*
X43670000Y-83141000D01*
X45259000Y-81021000D02*
X41879000Y-81021000D01*
X51535000Y-79580000D02*
X41465000Y-79580000D01*
X51207000Y-80821000D02*
X47741000Y-80821000D01*
X51504000Y-79781000D02*
X41496000Y-79781000D01*
X49754000Y-82821000D02*
X43246000Y-82821000D01*
X45259000Y-81061000D02*
X41897000Y-81061000D01*
X50773000Y-81661000D02*
X47741000Y-81661000D01*
X51428000Y-80141000D02*
X41572000Y-80141000D01*
X50638000Y-81861000D02*
X47741000Y-81861000D01*
X45259000Y-81941000D02*
X42420000Y-81941000D01*
X45259000Y-80381000D02*
X41638000Y-80381000D01*
X45259000Y-80501000D02*
X41676000Y-80501000D01*
X45259000Y-81501000D02*
X42129000Y-81501000D01*
X51223000Y-80781000D02*
X47741000Y-80781000D01*
X45259000Y-81861000D02*
X42362000Y-81861000D01*
X51254000Y-80701000D02*
X47741000Y-80701000D01*
X48537000Y-83581000D02*
X44463000Y-83581000D01*
X51565000Y-79300000D02*
X41435000Y-79300000D01*
X45259000Y-80461000D02*
X41663000Y-80461000D01*
X45259000Y-81421000D02*
X42083000Y-81421000D01*
X45259000Y-80421000D02*
X41650000Y-80421000D01*
X49389000Y-83101000D02*
X43611000Y-83101000D01*
X51511000Y-79741000D02*
X41489000Y-79741000D01*
X49209000Y-83221000D02*
X43791000Y-83221000D01*
X51350000Y-80421000D02*
X47741000Y-80421000D01*
X49010000Y-83341000D02*
X43990000Y-83341000D01*
X48130000Y-83741000D02*
X44870000Y-83741000D01*
X45259000Y-80741000D02*
X41762000Y-80741000D01*
X51045000Y-81181000D02*
X47741000Y-81181000D01*
X48625000Y-83541000D02*
X44375000Y-83541000D01*
X45259000Y-82261000D02*
X42676000Y-82261000D01*
X50666000Y-81821000D02*
X47741000Y-81821000D01*
X51311000Y-80541000D02*
X47741000Y-80541000D01*
X50823000Y-81581000D02*
X47741000Y-81581000D01*
X50216000Y-82381000D02*
X47741000Y-82381000D01*
X48242000Y-83701000D02*
X44758000Y-83701000D01*
X51570000Y-79220000D02*
X41430000Y-79220000D01*
X49847000Y-82741000D02*
X43153000Y-82741000D01*
X51438000Y-80101000D02*
X41562000Y-80101000D01*
X48789000Y-83461000D02*
X44211000Y-83461000D01*
X50694000Y-81781000D02*
X47741000Y-81781000D01*
X45259000Y-81301000D02*
X42017000Y-81301000D01*
X50847000Y-81541000D02*
X47741000Y-81541000D01*
X50550000Y-81981000D02*
X47741000Y-81981000D01*
X45259000Y-80541000D02*
X41689000Y-80541000D01*
X51025000Y-81221000D02*
X47741000Y-81221000D01*
X45259000Y-81901000D02*
X42390000Y-81901000D01*
X45259000Y-80901000D02*
X41826000Y-80901000D01*
X50140000Y-82461000D02*
X47741000Y-82461000D01*
X45259000Y-82021000D02*
X42480000Y-82021000D01*
X51497000Y-79821000D02*
X41503000Y-79821000D01*
X47362000Y-83941000D02*
X45638000Y-83941000D01*
X45259000Y-80861000D02*
X41810000Y-80861000D01*
X50520000Y-82021000D02*
X47741000Y-82021000D01*
X47730000Y-83861000D02*
X45270000Y-83861000D01*
X49079000Y-83301000D02*
X43921000Y-83301000D01*
X45259000Y-81661000D02*
X42227000Y-81661000D01*
X50101000Y-82501000D02*
X47741000Y-82501000D01*
X48010000Y-83781000D02*
X44990000Y-83781000D01*
X45259000Y-80621000D02*
X41717000Y-80621000D01*
X51418000Y-80181000D02*
X47741000Y-80181000D01*
X51577000Y-79100000D02*
X41423000Y-79100000D01*
X51540000Y-79540000D02*
X41460000Y-79540000D01*
X51324000Y-80501000D02*
X47741000Y-80501000D01*
X50392000Y-82181000D02*
X47741000Y-82181000D01*
X47878000Y-83821000D02*
X45122000Y-83821000D01*
X45259000Y-81621000D02*
X42202000Y-81621000D01*
X50179000Y-82421000D02*
X47741000Y-82421000D01*
X45259000Y-81981000D02*
X42450000Y-81981000D01*
X45259000Y-81541000D02*
X42153000Y-81541000D01*
X47099000Y-83981000D02*
X45901000Y-83981000D01*
X45259000Y-81261000D02*
X41996000Y-81261000D01*
X51573000Y-79180000D02*
X41427000Y-79180000D01*
X51474000Y-79941000D02*
X41526000Y-79941000D01*
X50061000Y-82541000D02*
X47741000Y-82541000D01*
X50895000Y-81461000D02*
X47741000Y-81461000D01*
X50580000Y-81941000D02*
X47741000Y-81941000D01*
X51084000Y-81101000D02*
X47741000Y-81101000D01*
X51530000Y-79621000D02*
X41470000Y-79621000D01*
X51578000Y-79060000D02*
X41422000Y-79060000D01*
X45259000Y-81461000D02*
X42105000Y-81461000D01*
X51103000Y-81061000D02*
X47741000Y-81061000D01*
X51490000Y-79861000D02*
X41510000Y-79861000D01*
X50940000Y-81381000D02*
X47741000Y-81381000D01*
X45259000Y-81741000D02*
X42279000Y-81741000D01*
X45259000Y-80661000D02*
X41732000Y-80661000D01*
X50253000Y-82341000D02*
X47741000Y-82341000D01*
X51579000Y-79020000D02*
X41421000Y-79020000D01*
X45259000Y-82301000D02*
X42711000Y-82301000D01*
X45259000Y-80221000D02*
X41593000Y-80221000D01*
X49145000Y-83261000D02*
X43855000Y-83261000D01*
X51385000Y-80301000D02*
X47741000Y-80301000D01*
X49875000Y-73920354D02*
X48875000Y-73920354D01*
X51337000Y-80461000D02*
X47741000Y-80461000D01*
X51190000Y-80861000D02*
X47741000Y-80861000D01*
X50457000Y-82101000D02*
X47741000Y-82101000D01*
X49801000Y-82781000D02*
X43199000Y-82781000D01*
X45259000Y-81341000D02*
X42038000Y-81341000D01*
X45259000Y-81181000D02*
X41955000Y-81181000D01*
X45259000Y-82341000D02*
X42747000Y-82341000D01*
X49375000Y-73420354D02*
X49375000Y-74420354D01*
X45259000Y-82421000D02*
X42821000Y-82421000D01*
X51297000Y-80581000D02*
X47741000Y-80581000D01*
X45259000Y-82541000D02*
X42939000Y-82541000D01*
X51558000Y-79380000D02*
X41442000Y-79380000D01*
X45259000Y-82501000D02*
X42899000Y-82501000D01*
X45259000Y-82461000D02*
X42860000Y-82461000D01*
X51139000Y-80981000D02*
X47741000Y-80981000D01*
X51620000Y-78900000D02*
G75*
G03*
X51620000Y-78900000I-5120000J0D01*
G01*
%TO.C,R26*%
X113662742Y-27622500D02*
X114137258Y-27622500D01*
X113662742Y-26577500D02*
X114137258Y-26577500D01*
%TO.C,C12*%
X69140000Y-84859420D02*
X69140000Y-85140580D01*
X70160000Y-84859420D02*
X70160000Y-85140580D01*
%TO.C,C18*%
X66211252Y-56410000D02*
X64788748Y-56410000D01*
X66211252Y-54590000D02*
X64788748Y-54590000D01*
%TO.C,C38*%
X48788748Y-101410000D02*
X50211252Y-101410000D01*
X48788748Y-99590000D02*
X50211252Y-99590000D01*
%TO.C,D1*%
X77027150Y-42850000D02*
X71627150Y-42850000D01*
X77027150Y-46150000D02*
X71627150Y-46150000D01*
X77027150Y-46150000D02*
X77027150Y-42850000D01*
%TO.C,Rvoltage3*%
X58022500Y-87262742D02*
X58022500Y-87737258D01*
X56977500Y-87262742D02*
X56977500Y-87737258D01*
%TO.C,L2*%
X49450000Y-95700000D02*
X47150000Y-95700000D01*
X49450000Y-88300000D02*
X49450000Y-95700000D01*
X47150000Y-88300000D02*
X49450000Y-88300000D01*
X44350000Y-95700000D02*
X42050000Y-95700000D01*
X42050000Y-95700000D02*
X42050000Y-88300000D01*
X42050000Y-88300000D02*
X44350000Y-88300000D01*
D10*
%TO.C,U7*%
X60330000Y-69375000D02*
X60475000Y-69375000D01*
X65480000Y-65225000D02*
X65480000Y-69375000D01*
X65480000Y-69375000D02*
X65335000Y-69375000D01*
X65480000Y-65225000D02*
X65430000Y-65225000D01*
X60330000Y-65225000D02*
X60475000Y-65225000D01*
X60330000Y-65225000D02*
X60330000Y-69375000D01*
X65430000Y-65225000D02*
X65430000Y-63825000D01*
D13*
%TO.C,Rvoltage2*%
X49322500Y-60837258D02*
X49322500Y-60362742D01*
X48277500Y-60837258D02*
X48277500Y-60362742D01*
%TO.C,R24*%
X93462742Y-26377500D02*
X93937258Y-26377500D01*
X93462742Y-27422500D02*
X93937258Y-27422500D01*
%TO.C,C31*%
X52390580Y-98510000D02*
X52109420Y-98510000D01*
X52390580Y-97490000D02*
X52109420Y-97490000D01*
%TO.C,D11*%
X78050000Y-81650000D02*
X72650000Y-81650000D01*
X78050000Y-78350000D02*
X72650000Y-78350000D01*
X78050000Y-81650000D02*
X78050000Y-78350000D01*
%TO.C,C20*%
X64059420Y-57290000D02*
X64340580Y-57290000D01*
X64059420Y-58310000D02*
X64340580Y-58310000D01*
%TO.C,C37*%
X47538748Y-98410000D02*
X48961252Y-98410000D01*
X47538748Y-96590000D02*
X48961252Y-96590000D01*
%TO.C,C21*%
X46490000Y-70340580D02*
X46490000Y-70059420D01*
X47510000Y-70340580D02*
X47510000Y-70059420D01*
%TO.C,C13*%
X80410000Y-94923748D02*
X80410000Y-96346252D01*
X78590000Y-94923748D02*
X78590000Y-96346252D01*
%TO.C,R3*%
X83262742Y-93657500D02*
X83737258Y-93657500D01*
X83262742Y-92612500D02*
X83737258Y-92612500D01*
%TO.C,C34*%
X52510000Y-83609420D02*
X52510000Y-83890580D01*
X51490000Y-83609420D02*
X51490000Y-83890580D01*
%TO.C,D19*%
X47250000Y-85650000D02*
X47250000Y-87350000D01*
X47250000Y-85650000D02*
X49800000Y-85650000D01*
X47250000Y-87350000D02*
X49800000Y-87350000D01*
%TO.C,R22*%
X54022500Y-83987258D02*
X54022500Y-83512742D01*
X52977500Y-83987258D02*
X52977500Y-83512742D01*
%TO.C,D4*%
X77550000Y-33150000D02*
X77550000Y-29850000D01*
X77550000Y-33150000D02*
X72150000Y-33150000D01*
X77550000Y-29850000D02*
X72150000Y-29850000D01*
D10*
%TO.C,U10*%
X51425000Y-94075000D02*
X51475000Y-94075000D01*
X56575000Y-94075000D02*
X56430000Y-94075000D01*
X51425000Y-94075000D02*
X51425000Y-89925000D01*
X56575000Y-94075000D02*
X56575000Y-89925000D01*
X56575000Y-89925000D02*
X56430000Y-89925000D01*
X51425000Y-89925000D02*
X51570000Y-89925000D01*
X51475000Y-94075000D02*
X51475000Y-95475000D01*
%TD*%
M02*
