M48
; DRILL file {KiCad (6.0.0)} date Mon Jan 17 01:15:48 2022
; FORMAT={-:-/ absolute / inch / decimal}
; #@! TF.CreationDate,2022-01-17T01:15:48+01:00
; #@! TF.GenerationSoftware,Kicad,Pcbnew,(6.0.0)
; #@! TF.FileFunction,Plated,1,4,PTH
FMAT,2
INCH
; #@! TA.AperFunction,Plated,PTH,ComponentDrill
T1C0.0118
; #@! TA.AperFunction,Plated,PTH,ViaDrill
T2C0.0157
; #@! TA.AperFunction,Plated,PTH,ComponentDrill
T3C0.0295
; #@! TA.AperFunction,Plated,PTH,ComponentDrill
T4C0.0374
; #@! TA.AperFunction,Plated,PTH,ViaDrill
T5C0.0394
; #@! TA.AperFunction,Plated,PTH,ComponentDrill
T6C0.0394
; #@! TA.AperFunction,Plated,PTH,ViaDrill
T7C0.0787
; #@! TA.AperFunction,Plated,PTH,ViaDrill
T8C0.1181
; #@! TA.AperFunction,Plated,PTH,ComponentDrill
T9C0.1220
%
G90
G05
T1
X2.0551Y-3.5984
X2.0551Y-3.6457
X2.1024Y-3.5984
X2.1024Y-3.6457
X2.1535Y-3.5984
X2.1535Y-3.6457
X2.1969Y-3.5984
X2.1969Y-3.6457
X2.4057Y-2.626
X2.4057Y-2.6732
X2.449Y-2.626
X2.449Y-2.6732
X2.5002Y-2.626
X2.5002Y-2.6732
X2.5474Y-2.626
X2.5474Y-2.6732
T2
X1.6654Y-2.3701
X1.7047Y-2.3504
X1.811Y-3.7992
X1.8504Y-1.122
X1.874Y-2.8583
X1.9291Y-2.5984
X1.9587Y-1.7032
X1.9882Y-3.7598
X1.9921Y-2.5433
X2.0177Y-1.3976
X2.0354Y-1.1969
X2.0374Y-0.8957
X2.0556Y-1.6599
X2.0866Y-1.8996
X2.0945Y-1.0591
X2.1063Y-3.8976
X2.1063Y-4.1339
X2.2008Y-1.4606
X2.2047Y-1.4173
X2.2047Y-3.4449
X2.2087Y-1.3758
X2.3425Y-1.3583
X2.374Y-0.9961
X2.3888Y-1.2963
X2.3937Y-1.0433
X2.4252Y-2.8268
X2.4409Y-0.9488
X2.5039Y-1.6417
X2.5197Y-0.8976
X2.5197Y-3.4843
X2.5315Y-1.2992
X2.5394Y-1.25
X2.5984Y-1.7028
X2.5984Y-2.5433
X2.6142Y-2.2756
X2.6181Y-3.4252
X2.6378Y-1.8602
X2.6772Y-1.4469
X2.6772Y-1.752
X2.6772Y-3.4252
X2.687Y-2.0866
X2.687Y-2.126
X2.6969Y-1.2795
X2.6969Y-1.7992
X2.6969Y-2.185
X2.7067Y-1.6929
X2.7205Y-1.0315
X2.7232Y-0.9894
X2.7244Y-0.9488
X2.8031Y-4.0315
X2.8819Y-3.9134
X3.0118Y-2.9331
X3.1811Y-1.7677
X3.189Y-2.0965
X3.2126Y-1.5866
X3.2283Y-3.4941
X3.2362Y-3.8228
X3.2598Y-1.9449
X3.2717Y-1.6693
X3.2795Y-1.4843
X3.2953Y-3.3425
X3.3425Y-0.9882
X3.3661Y-1.5551
X3.3661Y-1.8307
X3.3661Y-2.0866
X3.3898Y-1.4331
X3.3945Y-3.7414
X3.3976Y-3.937
X3.563Y-3.189
X3.563Y-3.8976
X3.6417Y-1.4567
X3.6417Y-2.1575
X3.7244Y-1.0118
X3.9173Y-3.189
X3.9173Y-3.8976
X3.9961Y-1.4567
X4.0Y-2.1575
X4.1339Y-1.0197
X4.2677Y-3.1969
X4.2677Y-3.9016
X4.3504Y-1.4567
X4.3504Y-2.1654
X4.5315Y-1.0118
X4.6181Y-3.1969
X4.622Y-3.9016
X4.7047Y-1.4567
X4.7047Y-2.1654
T3
X3.3661Y-2.8937
X3.3661Y-2.9437
X3.3661Y-2.9937
X4.8874Y-2.3516
X4.8874Y-2.4016
X4.8874Y-2.4516
T4
X2.8543Y-0.8991
X2.9528Y-0.8991
X3.0512Y-0.8991
T5
X3.1984Y-0.9055
T6
X1.7018Y-2.2146
X1.8018Y-2.2146
X1.8307Y-3.0079
X1.8307Y-3.2047
X1.9018Y-2.2146
X2.3622Y-3.9173
X2.5591Y-3.9173
X2.8445Y-2.6181
X3.1398Y-2.6181
X3.3343Y-0.8866
X3.4343Y-0.8866
X3.5343Y-0.8866
X3.7289Y-0.8866
X3.8289Y-0.8866
X3.9289Y-0.8866
X4.1248Y-0.8866
X4.2248Y-0.8866
X4.3248Y-0.8866
X4.5161Y-0.8858
X4.6161Y-0.8858
X4.7161Y-0.8858
T7
X3.4646Y-1.2008
X3.4646Y-1.3091
X3.5039Y-1.8996
X3.5039Y-2.0079
X3.563Y-1.2008
X3.563Y-1.3091
X3.563Y-2.628
X3.563Y-2.7362
X3.563Y-3.3268
X3.563Y-3.435
X3.6024Y-1.8996
X3.6024Y-2.0079
X3.6417Y-4.0354
X3.6417Y-4.1437
X3.6614Y-2.628
X3.6614Y-2.7362
X3.6614Y-3.3268
X3.6614Y-3.435
X3.7402Y-4.0354
X3.7402Y-4.1437
X3.8189Y-1.2008
X3.8189Y-1.3091
X3.8583Y-1.8996
X3.8583Y-2.0079
X3.9173Y-1.2008
X3.9173Y-1.3091
X3.9173Y-2.628
X3.9173Y-2.7362
X3.9173Y-3.3268
X3.9173Y-3.435
X3.9567Y-1.8996
X3.9567Y-2.0079
X3.9961Y-4.0354
X3.9961Y-4.1437
X4.0157Y-2.628
X4.0157Y-2.7362
X4.0157Y-3.3268
X4.0157Y-3.435
X4.0945Y-4.0354
X4.0945Y-4.1437
X4.1732Y-1.2008
X4.1732Y-1.3091
X4.1929Y-1.9094
X4.1929Y-2.0177
X4.252Y-2.628
X4.252Y-2.7362
X4.2717Y-1.2008
X4.2717Y-1.3091
X4.2913Y-1.9094
X4.2913Y-2.0177
X4.3504Y-2.628
X4.3504Y-2.7362
X4.3504Y-3.3268
X4.3504Y-3.435
X4.3504Y-4.0354
X4.3504Y-4.1437
X4.4488Y-3.3268
X4.4488Y-3.435
X4.4488Y-4.0354
X4.4488Y-4.1437
X4.5276Y-1.2008
X4.5276Y-1.3091
X4.5866Y-1.9094
X4.5866Y-2.0177
X4.626Y-1.2008
X4.626Y-1.3091
X4.626Y-2.628
X4.626Y-2.7362
X4.685Y-1.9094
X4.685Y-2.0177
X4.7047Y-3.3268
X4.7047Y-3.435
X4.7047Y-4.0453
X4.7047Y-4.1535
X4.7244Y-2.628
X4.7244Y-2.7362
X4.8031Y-3.3268
X4.8031Y-3.435
X4.8031Y-4.0453
X4.8031Y-4.1535
T8
X1.752Y-0.9252
X1.7618Y-4.065
X4.9705Y-0.935
X4.9705Y-4.0748
T9
X4.9803Y-1.2598
X4.9803Y-1.6142
X4.9803Y-1.9685
X4.9803Y-2.6772
X4.9803Y-3.3858
X4.9803Y-3.7402
T0
M30
